<?xml version="1.0" encoding="UTF-8"?>
<!-- Generator: visioncortex VTracer 0.6.12 -->
<svg version="1.1" xmlns="http://www.w3.org/2000/svg" width="200" height="200">
<path d="M0 0 C66 0 132 0 200 0 C200 66 200 132 200 200 C134 200 68 200 0 200 C0 134 0 68 0 0 Z " fill="#FFFFFF" transform="translate(0,0)"/>
<path d="M0 0 C26.73 0 53.46 0 81 0 C81 26.73 81 53.46 81 81 C54.27 81 27.54 81 0 81 C0 54.27 0 27.54 0 0 Z " fill="#FF0000" transform="translate(20,20)"/>
<path d="M0 0 C8.24627364 6.74086872 14.05182265 13.73715652 15.875 24.375 C16.6839206 34.50206365 15.21711276 43.42360647 8.67578125 51.42578125 C1.28725383 59.4233413 -5.54630848 64.6897589 -16.66796875 65.578125 C-27.1619596 65.7641337 -35.32631241 63.57979955 -43.125 56.375 C-51.00315574 48.58201351 -55.17506351 41.46725046 -55.375 30.1875 C-55.22881112 19.3110473 -51.53430061 11.84341865 -43.98046875 4.20703125 C-31.96220645 -7.03321748 -14.03246609 -9.84734462 0 0 Z " fill="#0000FF" transform="translate(165.125,25.625)"/>
<path d="M0 0 C33.33 0 66.66 0 101 0 C97.31464874 4.91380168 93.67970795 9.67638754 89.6875 14.3125 C86.24788656 18.34096031 82.84217552 22.38978415 79.5 26.5 C75.75675849 31.09883957 71.94140563 35.63056124 68.09912109 40.14648438 C64.35060182 44.56085037 60.69318793 49.04423711 57.0703125 53.5625 C54.84101381 56.18718374 52.46401053 58.59608729 50 61 C43.6694999 53.66261832 37.38673446 46.30084297 31.27734375 38.77734375 C28.71795783 35.65603433 26.11398455 32.57556761 23.5 29.5 C19.35132528 24.6156988 15.25833189 19.69085115 11.21484375 14.71875 C9.63105968 12.7746341 8.04084677 10.83737728 6.44140625 8.90625 C5.61511719 7.9059375 4.78882813 6.905625 3.9375 5.875 C3.18339844 4.96492188 2.42929687 4.05484375 1.65234375 3.1171875 C0 1 0 1 0 0 Z " fill="#008000" transform="translate(50,120)"/>
</svg>
