999
DXF data, created by potrace 1.16, written by Peter Selinger 2001-2019
  0
SECTION
  2
HEADER
  9
$ACADVER
  1
AC1006
  9
$EXTMIN
 10
0.000000
 20
0.000000
 30
0.000000
  9
$EXTMAX
 10
100.000000
 20
100.000000
 30
0.000000
  0
ENDSEC
  0
SECTION
  2
ENTITIES
  0
POLYLINE
  8
0
 66
1
 70
1
  0
VERTEX
  8
0
 10
10.000000
 20
49.500000
 42
0.000000
  0
VERTEX
  8
0
 10
10.000000
 20
9.000000
 42
0.000000
  0
VERTEX
  8
0
 10
50.500000
 20
9.000000
 42
0.000000
  0
VERTEX
  8
0
 10
91.000000
 20
9.000000
 42
0.000000
  0
VERTEX
  8
0
 10
91.000000
 20
49.500000
 42
0.000000
  0
VERTEX
  8
0
 10
91.000000
 20
90.000000
 42
0.000000
  0
VERTEX
  8
0
 10
50.500000
 20
90.000000
 42
0.000000
  0
VERTEX
  8
0
 10
10.000000
 20
90.000000
 42
0.000000
  0
SEQEND
  0
ENDSEC
  0
EOF
