999
DXF data, created by potrace 1.16, written by Peter Selinger 2001-2019
  0
SECTION
  2
HEADER
  9
$ACADVER
  1
AC1006
  9
$EXTMIN
 10
0.000000
 20
0.000000
 30
0.000000
  9
$EXTMAX
 10
400.000000
 20
400.000000
 30
0.000000
  0
ENDSEC
  0
SECTION
  2
ENTITIES
  0
POLYLINE
  8
0
 66
1
 70
1
  0
VERTEX
  8
0
 10
50.000000
 20
199.500000
 42
0.000000
  0
VERTEX
  8
0
 10
50.000000
 20
49.000000
 42
0.000000
  0
VERTEX
  8
0
 10
200.500000
 20
49.000000
 42
0.000000
  0
VERTEX
  8
0
 10
351.000000
 20
49.000000
 42
0.000000
  0
VERTEX
  8
0
 10
351.000000
 20
199.500000
 42
0.000000
  0
VERTEX
  8
0
 10
351.000000
 20
350.000000
 42
0.000000
  0
VERTEX
  8
0
 10
200.500000
 20
350.000000
 42
0.000000
  0
VERTEX
  8
0
 10
50.000000
 20
350.000000
 42
0.000000
  0
SEQEND
  0
POLYLINE
  8
0
 66
1
 70
1
  0
VERTEX
  8
0
 10
348.000000
 20
199.500000
 42
0.000000
  0
VERTEX
  8
0
 10
348.000000
 20
52.000000
 42
0.000000
  0
VERTEX
  8
0
 10
200.500000
 20
52.000000
 42
0.000000
  0
VERTEX
  8
0
 10
53.000000
 20
52.000000
 42
0.000000
  0
VERTEX
  8
0
 10
53.000000
 20
199.500000
 42
0.000000
  0
VERTEX
  8
0
 10
53.000000
 20
347.000000
 42
0.000000
  0
VERTEX
  8
0
 10
200.500000
 20
347.000000
 42
0.000000
  0
VERTEX
  8
0
 10
348.000000
 20
347.000000
 42
0.000000
  0
SEQEND
  0
POLYLINE
  8
0
 66
1
 70
1
  0
VERTEX
  8
0
 10
185.500000
 20
298.890854
 42
0.022783
  0
VERTEX
  8
0
 10
179.142874
 20
297.676289
 42
0.016275
  0
VERTEX
  8
0
 10
172.154875
 20
295.765718
 42
0.015811
  0
VERTEX
  8
0
 10
165.043875
 20
293.321669
 42
0.017243
  0
VERTEX
  8
0
 10
158.307570
 20
290.496183
 42
0.042946
  0
VERTEX
  8
0
 10
144.585369
 20
282.685334
 42
0.038370
  0
VERTEX
  8
0
 10
131.835313
 20
272.374558
 42
0.038239
  0
VERTEX
  8
0
 10
120.767890
 20
260.196097
 42
0.041896
  0
VERTEX
  8
0
 10
112.055467
 20
246.824016
 42
0.062001
  0
VERTEX
  8
0
 10
103.178087
 20
223.927308
 42
0.061585
  0
VERTEX
  8
0
 10
100.157938
 20
199.500000
 42
0.061585
  0
VERTEX
  8
0
 10
103.178087
 20
175.072692
 42
0.062001
  0
VERTEX
  8
0
 10
112.055467
 20
152.175984
 42
0.040485
  0
VERTEX
  8
0
 10
120.288858
 20
139.460978
 42
0.035768
  0
VERTEX
  8
0
 10
130.784249
 20
127.663857
 42
0.035782
  0
VERTEX
  8
0
 10
142.849207
 20
117.487530
 42
0.040602
  0
VERTEX
  8
0
 10
155.762907
 20
109.605680
 42
0.067231
  0
VERTEX
  8
0
 10
180.303939
 20
101.129132
 42
0.065297
  0
VERTEX
  8
0
 10
206.464898
 20
99.349963
 42
0.064940
  0
VERTEX
  8
0
 10
232.329213
 20
104.383308
 42
0.065206
  0
VERTEX
  8
0
 10
255.998401
 20
115.879066
 42
0.029980
  0
VERTEX
  8
0
 10
261.787855
 20
120.210301
 42
0.013812
  0
VERTEX
  8
0
 10
268.805664
 20
126.488958
 42
0.013841
  0
VERTEX
  8
0
 10
275.575295
 20
133.255469
 42
0.025475
  0
VERTEX
  8
0
 10
280.633449
 20
139.175984
 42
0.079763
  0
VERTEX
  8
0
 10
295.130718
 20
165.910769
 42
0.077050
  0
VERTEX
  8
0
 10
300.757913
 20
196.164533
 42
0.076504
  0
VERTEX
  8
0
 10
296.971431
 20
226.892383
 42
0.076911
  0
VERTEX
  8
0
 10
284.120934
 20
254.998401
 42
0.029980
  0
VERTEX
  8
0
 10
279.789699
 20
260.787855
 42
0.013812
  0
VERTEX
  8
0
 10
273.511042
 20
267.805664
 42
0.013841
  0
VERTEX
  8
0
 10
266.744531
 20
274.575295
 42
0.025475
  0
VERTEX
  8
0
 10
260.824016
 20
279.633449
 42
0.053192
  0
VERTEX
  8
0
 10
244.246172
 20
289.792564
 42
0.048339
  0
VERTEX
  8
0
 10
225.363364
 20
296.619097
 42
0.047960
  0
VERTEX
  8
0
 10
205.369310
 20
299.732011
 42
0.050500
  0
SEQEND
  0
POLYLINE
  8
0
 66
1
 70
1
  0
VERTEX
  8
0
 10
225.500000
 20
293.612570
 42
-0.015886
  0
VERTEX
  8
0
 10
233.759838
 20
291.061753
 42
-0.023644
  0
VERTEX
  8
0
 10
240.788675
 20
288.265930
 42
-0.023765
  0
VERTEX
  8
0
 10
247.495718
 20
284.830438
 42
-0.016281
  0
VERTEX
  8
0
 10
254.773729
 20
280.333557
 42
-0.046227
  0
VERTEX
  8
0
 10
268.534985
 20
269.241618
 42
-0.046765
  0
VERTEX
  8
0
 10
279.965199
 20
255.849999
 42
-0.045990
  0
VERTEX
  8
0
 10
288.863847
 20
240.350157
 42
-0.041902
  0
VERTEX
  8
0
 10
295.108774
 20
223.000000
 42
-0.042574
  0
VERTEX
  8
0
 10
296.971244
 20
212.566473
 42
-0.022892
  0
VERTEX
  8
0
 10
297.569788
 20
199.500000
 42
-0.022892
  0
VERTEX
  8
0
 10
296.971244
 20
186.433527
 42
-0.042574
  0
VERTEX
  8
0
 10
295.108774
 20
176.000000
 42
-0.062256
  0
VERTEX
  8
0
 10
285.030411
 20
151.206909
 42
-0.068846
  0
VERTEX
  8
0
 10
269.418419
 20
130.581581
 42
-0.068846
  0
VERTEX
  8
0
 10
248.793091
 20
114.969589
 42
-0.062256
  0
VERTEX
  8
0
 10
224.000000
 20
104.891226
 42
-0.017455
  0
VERTEX
  8
0
 10
218.920756
 20
103.718882
 42
-0.023839
  0
VERTEX
  8
0
 10
214.273632
 20
103.043782
 42
-0.018280
  0
VERTEX
  8
0
 10
208.735474
 20
102.710872
 42
-0.005871
  0
VERTEX
  8
0
 10
200.500000
 20
102.614164
 42
-0.005871
  0
VERTEX
  8
0
 10
192.264526
 20
102.710872
 42
-0.018280
  0
VERTEX
  8
0
 10
186.726368
 20
103.043782
 42
-0.023839
  0
VERTEX
  8
0
 10
182.079244
 20
103.718882
 42
-0.017455
  0
VERTEX
  8
0
 10
177.000000
 20
104.891226
 42
-0.062256
  0
VERTEX
  8
0
 10
152.206909
 20
114.969589
 42
-0.068846
  0
VERTEX
  8
0
 10
131.581581
 20
130.581581
 42
-0.068846
  0
VERTEX
  8
0
 10
115.969589
 20
151.206909
 42
-0.062256
  0
VERTEX
  8
0
 10
105.891226
 20
176.000000
 42
-0.042574
  0
VERTEX
  8
0
 10
104.028756
 20
186.433527
 42
-0.022892
  0
VERTEX
  8
0
 10
103.430212
 20
199.500000
 42
-0.022892
  0
VERTEX
  8
0
 10
104.028756
 20
212.566473
 42
-0.042574
  0
VERTEX
  8
0
 10
105.891226
 20
223.000000
 42
-0.017659
  0
VERTEX
  8
0
 10
108.490214
 20
231.490242
 42
-0.021967
  0
VERTEX
  8
0
 10
111.523420
 20
239.166800
 42
-0.022335
  0
VERTEX
  8
0
 10
115.172055
 20
246.441531
 42
-0.019393
  0
VERTEX
  8
0
 10
119.619273
 20
253.722409
 42
-0.052345
  0
VERTEX
  8
0
 10
132.440351
 20
269.202959
 42
-0.052579
  0
VERTEX
  8
0
 10
148.178972
 20
281.657505
 42
-0.051845
  0
VERTEX
  8
0
 10
166.383558
 20
290.694610
 42
-0.048257
  0
VERTEX
  8
0
 10
186.500000
 20
296.062016
 42
-0.040078
  0
VERTEX
  8
0
 10
194.664341
 20
296.750992
 42
-0.016701
  0
VERTEX
  8
0
 10
205.722718
 20
296.426618
 42
-0.016800
  0
VERTEX
  8
0
 10
216.888584
 20
295.347782
 42
-0.034475
  0
SEQEND
  0
ENDSEC
  0
EOF
