999
DXF data, created by potrace 1.16, written by Peter Selinger 2001-2019
  0
SECTION
  2
HEADER
  9
$ACADVER
  1
AC1006
  9
$EXTMIN
 10
0.000000
 20
0.000000
 30
0.000000
  9
$EXTMAX
 10
860.000000
 20
730.000000
 30
0.000000
  0
ENDSEC
  0
SECTION
  2
ENTITIES
  0
POLYLINE
  8
0
 66
1
 70
1
  0
VERTEX
  8
0
 10
421.500000
 20
712.405835
 42
-0.012493
  0
VERTEX
  8
0
 10
418.355895
 20
711.394908
 42
-0.008159
  0
VERTEX
  8
0
 10
414.683430
 20
710.379362
 42
-0.008208
  0
VERTEX
  8
0
 10
411.068591
 20
709.506029
 42
-0.015519
  0
VERTEX
  8
0
 10
408.124443
 20
708.941022
 42
0.013441
  0
VERTEX
  8
0
 10
405.478741
 20
708.444679
 42
0.012545
  0
VERTEX
  8
0
 10
402.801486
 20
707.796836
 42
0.012631
  0
VERTEX
  8
0
 10
400.453439
 20
707.101856
 42
0.041079
  0
VERTEX
  8
0
 10
398.956649
 20
706.477582
 42
0.085891
  0
VERTEX
  8
0
 10
396.580877
 20
704.676710
 42
0.026780
  0
VERTEX
  8
0
 10
393.697339
 20
701.234271
 42
0.024577
  0
VERTEX
  8
0
 10
390.686618
 20
696.781971
 42
0.019071
  0
VERTEX
  8
0
 10
387.844150
 20
691.667988
 42
-0.012967
  0
VERTEX
  8
0
 10
386.953434
 20
690.018370
 42
-0.015329
  0
VERTEX
  8
0
 10
386.024245
 20
688.508532
 42
-0.014250
  0
VERTEX
  8
0
 10
385.170941
 20
687.289810
 42
-0.087503
  0
VERTEX
  8
0
 10
384.615666
 20
686.765313
 42
0.031876
  0
VERTEX
  8
0
 10
384.166842
 20
686.426889
 42
0.302232
  0
VERTEX
  8
0
 10
384.104902
 20
686.206510
 42
0.289101
  0
VERTEX
  8
0
 10
384.284858
 20
686.056490
 42
0.030208
  0
VERTEX
  8
0
 10
384.858408
 20
686.015313
 42
-0.382370
  0
VERTEX
  8
0
 10
385.700489
 20
685.243782
 42
-0.092142
  0
VERTEX
  8
0
 10
385.525221
 20
683.189322
 42
-0.060568
  0
VERTEX
  8
0
 10
384.415430
 20
680.488367
 42
-0.053174
  0
VERTEX
  8
0
 10
382.649856
 20
678.000000
 42
0.005092
  0
VERTEX
  8
0
 10
379.778437
 20
674.680576
 42
0.019239
  0
VERTEX
  8
0
 10
378.084309
 20
672.517886
 42
0.185671
  0
VERTEX
  8
0
 10
377.937973
 20
671.965277
 42
0.586090
  0
VERTEX
  8
0
 10
378.204475
 20
671.851896
 42
-0.021320
  0
VERTEX
  8
0
 10
379.197215
 20
672.553718
 42
-0.465230
  0
VERTEX
  8
0
 10
379.497240
 20
672.461518
 42
-0.166025
  0
VERTEX
  8
0
 10
379.534593
 20
671.948681
 42
-0.005739
  0
VERTEX
  8
0
 10
378.996485
 20
669.987745
 42
-0.020428
  0
VERTEX
  8
0
 10
378.552435
 20
668.648451
 42
-0.016704
  0
VERTEX
  8
0
 10
377.972529
 20
667.255161
 42
-0.017024
  0
VERTEX
  8
0
 10
377.351862
 20
666.008244
 42
-0.041901
  0
VERTEX
  8
0
 10
376.792010
 20
665.153082
 42
0.002011
  0
VERTEX
  8
0
 10
375.977912
 20
664.102793
 42
0.476242
  0
VERTEX
  8
0
 10
376.002672
 20
663.998715
 42
0.284283
  0
VERTEX
  8
0
 10
376.147153
 20
664.014034
 42
0.001550
  0
VERTEX
  8
0
 10
377.296040
 20
664.910655
 42
-0.059500
  0
VERTEX
  8
0
 10
378.299890
 20
665.521888
 42
-0.453191
  0
VERTEX
  8
0
 10
378.744944
 20
665.321568
 42
-0.096402
  0
VERTEX
  8
0
 10
378.849850
 20
664.322662
 42
-0.004461
  0
VERTEX
  8
0
 10
378.519584
 20
660.910655
 42
0.007205
  0
VERTEX
  8
0
 10
378.282273
 20
658.310263
 42
0.050896
  0
VERTEX
  8
0
 10
378.314094
 20
657.043125
 42
0.374026
  0
VERTEX
  8
0
 10
378.600146
 20
656.788082
 42
0.245516
  0
VERTEX
  8
0
 10
379.018174
 20
657.000000
 42
-0.024883
  0
VERTEX
  8
0
 10
379.583260
 20
657.713478
 42
-0.453061
  0
VERTEX
  8
0
 10
379.840673
 20
657.713579
 42
-0.192222
  0
VERTEX
  8
0
 10
379.973886
 20
657.337689
 42
-0.009487
  0
VERTEX
  8
0
 10
379.895945
 20
656.000000
 42
0.029312
  0
VERTEX
  8
0
 10
379.875858
 20
654.918163
 42
0.022177
  0
VERTEX
  8
0
 10
379.975996
 20
653.734379
 42
0.022609
  0
VERTEX
  8
0
 10
380.170449
 20
652.627807
 42
0.047437
  0
VERTEX
  8
0
 10
380.439927
 20
651.797887
 42
-0.050908
  0
VERTEX
  8
0
 10
380.672023
 20
651.065876
 42
-0.045759
  0
VERTEX
  8
0
 10
380.762450
 20
650.275085
 42
-0.048548
  0
VERTEX
  8
0
 10
380.707905
 20
649.545443
 42
-0.095776
  0
VERTEX
  8
0
 10
380.502523
 20
649.004082
 42
0.101178
  0
VERTEX
  8
0
 10
380.316204
 20
648.496661
 42
0.068505
  0
VERTEX
  8
0
 10
380.307899
 20
647.878755
 42
0.065142
  0
VERTEX
  8
0
 10
380.471043
 20
647.248918
 42
0.072244
  0
VERTEX
  8
0
 10
380.787427
 20
646.706195
 42
-0.093501
  0
VERTEX
  8
0
 10
381.190181
 20
645.942990
 42
-0.016827
  0
VERTEX
  8
0
 10
381.613611
 20
644.385570
 42
-0.017631
  0
VERTEX
  8
0
 10
381.988538
 20
642.502694
 42
-0.015140
  0
VERTEX
  8
0
 10
382.252435
 20
640.500000
 42
0.010671
  0
VERTEX
  8
0
 10
382.505288
 20
638.439063
 42
0.010525
  0
VERTEX
  8
0
 10
382.846816
 20
636.381250
 42
0.010445
  0
VERTEX
  8
0
 10
383.221310
 20
634.592715
 42
0.039218
  0
VERTEX
  8
0
 10
383.566148
 20
633.500000
 42
-0.007894
  0
VERTEX
  8
0
 10
384.045111
 20
632.258861
 42
-0.391803
  0
VERTEX
  8
0
 10
383.952216
 20
632.035625
 42
-0.271720
  0
VERTEX
  8
0
 10
383.663768
 20
632.064858
 42
-0.005414
  0
VERTEX
  8
0
 10
382.437231
 20
632.982767
 42
0.001168
  0
VERTEX
  8
0
 10
381.080338
 20
634.016324
 42
0.590348
  0
VERTEX
  8
0
 10
381.001358
 20
633.981246
 42
0.199941
  0
VERTEX
  8
0
 10
381.051969
 20
633.822394
 42
0.000697
  0
VERTEX
  8
0
 10
382.375230
 20
632.265648
 42
-0.048955
  0
VERTEX
  8
0
 10
383.087372
 20
631.242521
 42
-0.050759
  0
VERTEX
  8
0
 10
383.576908
 20
630.112499
 42
-0.054762
  0
VERTEX
  8
0
 10
383.799951
 20
629.000539
 42
-0.086294
  0
VERTEX
  8
0
 10
383.718850
 20
628.032882
 42
0.046693
  0
VERTEX
  8
0
 10
383.579488
 20
627.182620
 42
0.106418
  0
VERTEX
  8
0
 10
383.671650
 20
626.542062
 42
0.157914
  0
VERTEX
  8
0
 10
383.982043
 20
626.148806
 42
0.148420
  0
VERTEX
  8
0
 10
384.472299
 20
626.000000
 42
-0.251510
  0
VERTEX
  8
0
 10
385.803625
 20
625.285094
 42
-0.061237
  0
VERTEX
  8
0
 10
386.955403
 20
622.977100
 42
-0.057395
  0
VERTEX
  8
0
 10
387.610222
 20
620.127764
 42
-0.089521
  0
VERTEX
  8
0
 10
387.441220
 20
617.621824
 42
-0.012598
  0
VERTEX
  8
0
 10
387.016509
 20
616.093763
 42
-0.191070
  0
VERTEX
  8
0
 10
386.679685
 20
615.671990
 42
-0.344901
  0
VERTEX
  8
0
 10
386.272582
 20
615.731406
 42
-0.032574
  0
VERTEX
  8
0
 10
385.580968
 20
616.558382
 42
0.028167
  0
VERTEX
  8
0
 10
384.873313
 20
617.419843
 42
0.193837
  0
VERTEX
  8
0
 10
384.388259
 20
617.650490
 42
0.205567
  0
VERTEX
  8
0
 10
383.896113
 20
617.473878
 42
0.032021
  0
VERTEX
  8
0
 10
383.170511
 20
616.705453
 42
0.052675
  0
VERTEX
  8
0
 10
382.638318
 20
615.906244
 42
0.264800
  0
VERTEX
  8
0
 10
382.656667
 20
615.389571
 42
0.172180
  0
VERTEX
  8
0
 10
383.152873
 20
614.991123
 42
0.022414
  0
VERTEX
  8
0
 10
384.473124
 20
614.596101
 42
-0.058174
  0
VERTEX
  8
0
 10
385.791293
 20
614.096744
 42
-0.139568
  0
VERTEX
  8
0
 10
386.544854
 20
613.386688
 42
-0.104770
  0
VERTEX
  8
0
 10
386.934556
 20
612.245201
 42
-0.024932
  0
VERTEX
  8
0
 10
387.076511
 20
610.230948
 42
0.009192
  0
VERTEX
  8
0
 10
387.137794
 20
608.655868
 42
0.007989
  0
VERTEX
  8
0
 10
387.258679
 20
607.008466
 42
0.008061
  0
VERTEX
  8
0
 10
387.415975
 20
605.520849
 42
0.023321
  0
VERTEX
  8
0
 10
387.589215
 20
604.500000
 42
-0.015669
  0
VERTEX
  8
0
 10
388.476634
 20
599.715595
 42
-0.031835
  0
VERTEX
  8
0
 10
388.814299
 20
595.906361
 42
-0.038359
  0
VERTEX
  8
0
 10
388.669705
 20
593.123742
 42
-0.223034
  0
VERTEX
  8
0
 10
387.900867
 20
591.917571
 42
0.016657
  0
VERTEX
  8
0
 10
387.194722
 20
591.436807
 42
0.339442
  0
VERTEX
  8
0
 10
387.126422
 20
591.203914
 42
0.292037
  0
VERTEX
  8
0
 10
387.337417
 20
591.049001
 42
0.014075
  0
VERTEX
  8
0
 10
388.250000
 20
591.015313
 42
-0.040653
  0
VERTEX
  8
0
 10
388.925509
 20
590.954344
 42
-0.056441
  0
VERTEX
  8
0
 10
389.508382
 20
590.784186
 42
-0.070737
  0
VERTEX
  8
0
 10
389.920111
 20
590.538480
 42
-0.200107
  0
VERTEX
  8
0
 10
390.076408
 20
590.250000
 42
0.008711
  0
VERTEX
  8
0
 10
390.805126
 20
584.152597
 42
0.004061
  0
VERTEX
  8
0
 10
391.951528
 20
576.273897
 42
0.003359
  0
VERTEX
  8
0
 10
393.162526
 20
568.737807
 42
0.022094
  0
VERTEX
  8
0
 10
393.960109
 20
565.000000
 42
-0.034759
  0
VERTEX
  8
0
 10
394.413170
 20
562.577984
 42
-0.018923
  0
VERTEX
  8
0
 10
394.647821
 20
559.559880
 42
-0.017078
  0
VERTEX
  8
0
 10
394.667056
 20
556.124018
 42
-0.013523
  0
VERTEX
  8
0
 10
394.460630
 20
552.415054
 42
0.009706
  0
VERTEX
  8
0
 10
394.163441
 20
547.721297
 42
0.042327
  0
VERTEX
  8
0
 10
394.276857
 20
544.941864
 42
0.057506
  0
VERTEX
  8
0
 10
394.838365
 20
542.650037
 42
0.028835
  0
VERTEX
  8
0
 10
396.036226
 20
539.915054
 42
0.019519
  0
VERTEX
  8
0
 10
399.186198
 20
534.277017
 42
0.021380
  0
VERTEX
  8
0
 10
402.678403
 20
529.075779
 42
0.014091
  0
VERTEX
  8
0
 10
405.955982
 20
524.871956
 42
0.374683
  0
VERTEX
  8
0
 10
407.255221
 20
524.657735
 42
0.037214
  0
VERTEX
  8
0
 10
407.754151
 20
525.019962
 42
0.238371
  0
VERTEX
  8
0
 10
407.872206
 20
525.298854
 42
0.258409
  0
VERTEX
  8
0
 10
407.714526
 20
525.543060
 42
0.042514
  0
VERTEX
  8
0
 10
407.179706
 20
525.773431
 42
-0.156203
  0
VERTEX
  8
0
 10
406.165348
 20
526.515585
 42
-0.020085
  0
VERTEX
  8
0
 10
404.649472
 20
528.784117
 42
-0.022700
  0
VERTEX
  8
0
 10
403.323855
 20
531.190483
 42
-0.101648
  0
VERTEX
  8
0
 10
402.919189
 20
532.739522
 42
0.123506
  0
VERTEX
  8
0
 10
402.791035
 20
533.155736
 42
0.017774
  0
VERTEX
  8
0
 10
402.299542
 20
533.905908
 42
0.019268
  0
VERTEX
  8
0
 10
401.639893
 20
534.766325
 42
0.015395
  0
VERTEX
  8
0
 10
400.866324
 20
535.642291
 42
-0.021905
  0
VERTEX
  8
0
 10
399.976635
 20
536.676573
 42
-0.096821
  0
VERTEX
  8
0
 10
399.612014
 20
537.388126
 42
-0.221603
  0
VERTEX
  8
0
 10
399.688486
 20
537.875440
 42
-0.165803
  0
VERTEX
  8
0
 10
400.126873
 20
538.208958
 42
0.186150
  0
VERTEX
  8
0
 10
400.627511
 20
538.622015
 42
0.052879
  0
VERTEX
  8
0
 10
401.034327
 20
539.565196
 42
0.044420
  0
VERTEX
  8
0
 10
401.309039
 20
540.836756
 42
0.031008
  0
VERTEX
  8
0
 10
401.400000
 20
542.302077
 42
-0.017151
  0
VERTEX
  8
0
 10
401.448417
 20
543.713156
 42
-0.060912
  0
VERTEX
  8
0
 10
401.619286
 20
544.600321
 42
-0.253325
  0
VERTEX
  8
0
 10
401.882901
 20
544.852201
 42
-0.328991
  0
VERTEX
  8
0
 10
402.184687
 20
544.735410
 42
-0.055930
  0
VERTEX
  8
0
 10
402.487098
 20
544.115921
 42
-0.026045
  0
VERTEX
  8
0
 10
402.743371
 20
543.258109
 42
-0.025413
  0
VERTEX
  8
0
 10
402.921283
 20
542.319973
 42
-0.032303
  0
VERTEX
  8
0
 10
402.984687
 20
541.441130
 42
0.056506
  0
VERTEX
  8
0
 10
403.097014
 20
540.512143
 42
0.031195
  0
VERTEX
  8
0
 10
403.430545
 20
539.416846
 42
0.030694
  0
VERTEX
  8
0
 10
403.912768
 20
538.335066
 42
0.042787
  0
VERTEX
  8
0
 10
404.480997
 20
537.441130
 42
0.024663
  0
VERTEX
  8
0
 10
405.283081
 20
536.490905
 42
0.143208
  0
VERTEX
  8
0
 10
405.841043
 20
536.159519
 42
0.238218
  0
VERTEX
  8
0
 10
406.329028
 20
536.266728
 42
0.076076
  0
VERTEX
  8
0
 10
406.842259
 20
536.834535
 42
-0.053424
  0
VERTEX
  8
0
 10
407.302632
 20
537.392511
 42
-0.325454
  0
VERTEX
  8
0
 10
407.651393
 20
537.443410
 42
-0.187805
  0
VERTEX
  8
0
 10
407.955978
 20
537.092713
 42
-0.022024
  0
VERTEX
  8
0
 10
408.267643
 20
536.084535
 42
0.067234
  0
VERTEX
  8
0
 10
408.595226
 20
535.287699
 42
0.068588
  0
VERTEX
  8
0
 10
409.120758
 20
534.612332
 42
0.075277
  0
VERTEX
  8
0
 10
409.756444
 20
534.156305
 42
0.118557
  0
VERTEX
  8
0
 10
410.406380
 20
534.000000
 42
-0.060013
  0
VERTEX
  8
0
 10
411.025053
 20
533.925474
 42
-0.071926
  0
VERTEX
  8
0
 10
411.568593
 20
533.706250
 42
-0.084749
  0
VERTEX
  8
0
 10
411.956731
 20
533.381925
 42
-0.146351
  0
VERTEX
  8
0
 10
412.125000
 20
533.000000
 42
0.032635
  0
VERTEX
  8
0
 10
412.642367
 20
530.304078
 42
0.047962
  0
VERTEX
  8
0
 10
413.470726
 20
528.039689
 42
0.062186
  0
VERTEX
  8
0
 10
414.429123
 20
526.546954
 42
0.312427
  0
VERTEX
  8
0
 10
415.334859
 20
526.296101
 42
-0.163138
  0
VERTEX
  8
0
 10
415.965303
 20
526.303680
 42
-0.035508
  0
VERTEX
  8
0
 10
416.988090
 20
525.892326
 42
-0.033465
  0
VERTEX
  8
0
 10
418.159056
 20
525.221434
 42
-0.026661
  0
VERTEX
  8
0
 10
419.326725
 20
524.351148
 42
0.045046
  0
VERTEX
  8
0
 10
420.816853
 20
523.323414
 42
0.042596
  0
VERTEX
  8
0
 10
422.494467
 20
522.556859
 42
0.041010
  0
VERTEX
  8
0
 10
424.339225
 20
522.063171
 42
0.035774
  0
VERTEX
  8
0
 10
426.326725
 20
521.847686
 42
-0.004549
  0
VERTEX
  8
0
 10
429.305534
 20
521.711821
 42
-0.020599
  0
VERTEX
  8
0
 10
431.036343
 20
521.545382
 42
-0.030046
  0
VERTEX
  8
0
 10
432.418582
 20
521.269310
 42
-0.018730
  0
VERTEX
  8
0
 10
434.000000
 20
520.789352
 42
0.020858
  0
VERTEX
  8
0
 10
438.677206
 20
519.391527
 42
0.060118
  0
VERTEX
  8
0
 10
442.028031
 20
518.958191
 42
0.077020
  0
VERTEX
  8
0
 10
444.892003
 20
519.377044
 42
0.053254
  0
VERTEX
  8
0
 10
447.907069
 20
520.670900
 42
-0.027227
  0
VERTEX
  8
0
 10
451.387048
 20
522.383503
 42
-0.107063
  0
VERTEX
  8
0
 10
453.721494
 20
522.831442
 42
-0.153520
  0
VERTEX
  8
0
 10
455.562574
 20
522.204121
 42
-0.077262
  0
VERTEX
  8
0
 10
457.312500
 20
520.447609
 42
-0.064276
  0
VERTEX
  8
0
 10
458.155059
 20
518.908706
 42
-0.043344
  0
VERTEX
  8
0
 10
458.720468
 20
516.985375
 42
-0.033077
  0
VERTEX
  8
0
 10
459.052399
 20
514.507334
 42
-0.014925
  0
VERTEX
  8
0
 10
459.174342
 20
511.229034
 42
0.007207
  0
VERTEX
  8
0
 10
459.228399
 20
508.743750
 42
0.017586
  0
VERTEX
  8
0
 10
459.358905
 20
506.917279
 42
0.042865
  0
VERTEX
  8
0
 10
459.536435
 20
506.004893
 42
0.735336
  0
VERTEX
  8
0
 10
459.733351
 20
506.000000
 42
-0.011384
  0
VERTEX
  8
0
 10
460.016537
 20
506.775052
 42
-0.003427
  0
VERTEX
  8
0
 10
460.481985
 20
507.940625
 42
-0.003432
  0
VERTEX
  8
0
 10
461.022233
 20
509.241417
 42
-0.003721
  0
VERTEX
  8
0
 10
461.566189
 20
510.500000
 42
0.018771
  0
VERTEX
  8
0
 10
463.238221
 20
514.712428
 42
0.002405
  0
VERTEX
  8
0
 10
466.441555
 20
523.899173
 42
0.002616
  0
VERTEX
  8
0
 10
469.547566
 20
533.103081
 42
0.015288
  0
VERTEX
  8
0
 10
471.007060
 20
538.000000
 42
0.026468
  0
VERTEX
  8
0
 10
471.408350
 20
539.918809
 42
0.006480
  0
VERTEX
  8
0
 10
471.859765
 20
543.115625
 42
0.006620
  0
VERTEX
  8
0
 10
472.281645
 20
546.797658
 42
0.006564
  0
VERTEX
  8
0
 10
472.607221
 20
550.500000
 42
-0.012673
  0
VERTEX
  8
0
 10
473.080740
 20
555.222775
 42
-0.027468
  0
VERTEX
  8
0
 10
473.734280
 20
558.810278
 42
-0.032011
  0
VERTEX
  8
0
 10
474.700138
 20
561.942425
 42
-0.025113
  0
VERTEX
  8
0
 10
476.128168
 20
565.198314
 42
0.027596
  0
VERTEX
  8
0
 10
477.443197
 20
568.237483
 42
0.020570
  0
VERTEX
  8
0
 10
478.565055
 20
571.715066
 42
0.018889
  0
VERTEX
  8
0
 10
479.485822
 20
575.592508
 42
0.015005
  0
VERTEX
  8
0
 10
480.194336
 20
579.837868
 42
-0.006956
  0
VERTEX
  8
0
 10
480.862195
 20
584.278743
 42
-0.033766
  0
VERTEX
  8
0
 10
481.444366
 20
586.757443
 42
-0.075248
  0
VERTEX
  8
0
 10
482.055103
 20
588.026921
 42
-0.347724
  0
VERTEX
  8
0
 10
482.781048
 20
588.253778
 42
0.083328
  0
VERTEX
  8
0
 10
483.307389
 20
588.147009
 42
0.167989
  0
VERTEX
  8
0
 10
483.707093
 20
588.270217
 42
0.177305
  0
VERTEX
  8
0
 10
483.931594
 20
588.607003
 42
0.094209
  0
VERTEX
  8
0
 10
483.956534
 20
589.114225
 42
-0.029641
  0
VERTEX
  8
0
 10
483.821196
 20
590.813617
 42
-0.107936
  0
VERTEX
  8
0
 10
484.029541
 20
591.869403
 42
-0.177223
  0
VERTEX
  8
0
 10
484.584666
 20
592.452677
 42
-0.115337
  0
VERTEX
  8
0
 10
485.500000
 20
592.666667
 42
-0.053595
  0
VERTEX
  8
0
 10
486.073861
 20
592.604977
 42
-0.073362
  0
VERTEX
  8
0
 10
486.559375
 20
592.421875
 42
-0.093122
  0
VERTEX
  8
0
 10
486.885312
 20
592.151326
 42
-0.174820
  0
VERTEX
  8
0
 10
487.000000
 20
591.833333
 42
-0.119248
  0
VERTEX
  8
0
 10
486.923102
 20
591.515489
 42
-0.100665
  0
VERTEX
  8
0
 10
486.706250
 20
591.244792
 42
-0.092192
  0
VERTEX
  8
0
 10
486.381933
 20
591.063010
 42
-0.081935
  0
VERTEX
  8
0
 10
486.000000
 20
591.000000
 42
0.105053
  0
VERTEX
  8
0
 10
485.618444
 20
590.918938
 42
0.099167
  0
VERTEX
  8
0
 10
485.293750
 20
590.688914
 42
0.096420
  0
VERTEX
  8
0
 10
485.076123
 20
590.345238
 42
0.093332
  0
VERTEX
  8
0
 10
485.000000
 20
589.940983
 42
0.430646
  0
VERTEX
  8
0
 10
485.480370
 20
589.486686
 42
0.200008
  0
VERTEX
  8
0
 10
486.342312
 20
589.903669
 42
0.047746
  0
VERTEX
  8
0
 10
487.797122
 20
591.899030
 42
0.016387
  0
VERTEX
  8
0
 10
489.519016
 20
595.037526
 42
0.011753
  0
VERTEX
  8
0
 10
491.144327
 20
598.441041
 42
0.049224
  0
VERTEX
  8
0
 10
491.864922
 20
600.589255
 42
0.237536
  0
VERTEX
  8
0
 10
491.666519
 20
601.395976
 42
0.369793
  0
VERTEX
  8
0
 10
491.000000
 20
601.500000
 42
0.095148
  0
VERTEX
  8
0
 10
490.616995
 20
601.147958
 42
0.052783
  0
VERTEX
  8
0
 10
490.293750
 20
600.599171
 42
0.049979
  0
VERTEX
  8
0
 10
490.074179
 20
599.951724
 42
0.056833
  0
VERTEX
  8
0
 10
490.000000
 20
599.301226
 42
-0.145796
  0
VERTEX
  8
0
 10
489.624771
 20
598.041754
 42
-0.054441
  0
VERTEX
  8
0
 10
488.441314
 20
596.601635
 42
-0.054329
  0
VERTEX
  8
0
 10
486.957845
 20
595.436960
 42
-0.130828
  0
VERTEX
  8
0
 10
485.633369
 20
595.031803
 42
-0.373464
  0
VERTEX
  8
0
 10
485.216704
 20
595.367481
 42
-0.087245
  0
VERTEX
  8
0
 10
485.213066
 20
596.340833
 42
-0.040947
  0
VERTEX
  8
0
 10
485.641372
 20
598.003221
 42
-0.011699
  0
VERTEX
  8
0
 10
486.573777
 20
600.500000
 42
0.007298
  0
VERTEX
  8
0
 10
487.050632
 20
601.743418
 42
0.389767
  0
VERTEX
  8
0
 10
486.961368
 20
601.959533
 42
0.279378
  0
VERTEX
  8
0
 10
486.686752
 20
601.929459
 42
0.005235
  0
VERTEX
  8
0
 10
485.500000
 20
601.000000
 42
-0.005383
  0
VERTEX
  8
0
 10
484.344956
 20
600.095926
 42
-0.201678
  0
VERTEX
  8
0
 10
484.030030
 20
600.013721
 42
-0.462694
  0
VERTEX
  8
0
 10
483.915448
 20
600.195920
 42
-0.013226
  0
VERTEX
  8
0
 10
484.254134
 20
601.178986
 42
0.021988
  0
VERTEX
  8
0
 10
484.540356
 20
602.059564
 42
0.006863
  0
VERTEX
  8
0
 10
484.892946
 20
603.403500
 42
0.006844
  0
VERTEX
  8
0
 10
485.246008
 20
604.917118
 42
0.007506
  0
VERTEX
  8
0
 10
485.546106
 20
606.394073
 42
-0.030711
  0
VERTEX
  8
0
 10
485.883530
 20
607.733121
 42
-0.047646
  0
VERTEX
  8
0
 10
486.351035
 20
608.828262
 42
-0.060759
  0
VERTEX
  8
0
 10
486.868445
 20
609.552927
 42
-0.259343
  0
VERTEX
  8
0
 10
487.354741
 20
609.715086
 42
0.180572
  0
VERTEX
  8
0
 10
488.013158
 20
609.829227
 42
0.255271
  0
VERTEX
  8
0
 10
488.313834
 20
610.328577
 42
0.074692
  0
VERTEX
  8
0
 10
488.191958
 20
611.463395
 42
0.009701
  0
VERTEX
  8
0
 10
487.527490
 20
613.813974
 42
-0.024973
  0
VERTEX
  8
0
 10
487.223437
 20
615.030285
 42
-0.179681
  0
VERTEX
  8
0
 10
487.318466
 20
615.617112
 42
-0.260049
  0
VERTEX
  8
0
 10
487.742765
 20
615.874840
 42
-0.051608
  0
VERTEX
  8
0
 10
488.662308
 20
615.813974
 42
0.085104
  0
VERTEX
  8
0
 10
489.502936
 20
615.814462
 42
0.142037
  0
VERTEX
  8
0
 10
490.134551
 20
616.121569
 42
0.121213
  0
VERTEX
  8
0
 10
490.568647
 20
616.763229
 42
0.053184
  0
VERTEX
  8
0
 10
490.821494
 20
617.764831
 42
-0.045926
  0
VERTEX
  8
0
 10
491.022173
 20
618.611236
 42
-0.096933
  0
VERTEX
  8
0
 10
491.354859
 20
619.195196
 42
-0.159332
  0
VERTEX
  8
0
 10
491.767487
 20
619.444604
 42
-0.197833
  0
VERTEX
  8
0
 10
492.206391
 20
619.372444
 42
0.595276
  0
VERTEX
  8
0
 10
492.785586
 20
619.704302
 42
0.015937
  0
VERTEX
  8
0
 10
492.581910
 20
623.386619
 42
0.019152
  0
VERTEX
  8
0
 10
492.096581
 20
627.235776
 42
0.097314
  0
VERTEX
  8
0
 10
491.343611
 20
629.250000
 42
0.194648
  0
VERTEX
  8
0
 10
490.446374
 20
629.910463
 42
0.138326
  0
VERTEX
  8
0
 10
489.183565
 20
629.879082
 42
0.098134
  0
VERTEX
  8
0
 10
487.766303
 20
629.113279
 42
0.063792
  0
VERTEX
  8
0
 10
486.490289
 20
627.750000
 42
-0.015646
  0
VERTEX
  8
0
 10
485.487984
 20
626.448430
 42
-0.585651
  0
VERTEX
  8
0
 10
485.192829
 20
626.501018
 42
-0.117201
  0
VERTEX
  8
0
 10
485.124376
 20
627.172901
 42
-0.002644
  0
VERTEX
  8
0
 10
485.569181
 20
630.397055
 42
-0.017045
  0
VERTEX
  8
0
 10
485.937554
 20
632.462798
 42
-0.014384
  0
VERTEX
  8
0
 10
486.463960
 20
634.620215
 42
-0.014625
  0
VERTEX
  8
0
 10
487.058735
 20
636.561261
 42
-0.038609
  0
VERTEX
  8
0
 10
487.629435
 20
637.897055
 42
0.040263
  0
VERTEX
  8
0
 10
488.150748
 20
639.128493
 42
0.022742
  0
VERTEX
  8
0
 10
488.590504
 20
640.690072
 42
0.022580
  0
VERTEX
  8
0
 10
488.892835
 20
642.315752
 42
0.034219
  0
VERTEX
  8
0
 10
488.993839
 20
643.750000
 42
-0.043450
  0
VERTEX
  8
0
 10
489.159359
 20
645.610295
 42
-0.149312
  0
VERTEX
  8
0
 10
489.704442
 20
646.678016
 42
-0.175984
  0
VERTEX
  8
0
 10
490.688754
 20
647.158288
 42
-0.065630
  0
VERTEX
  8
0
 10
492.250000
 20
647.118421
 42
0.102060
  0
VERTEX
  8
0
 10
492.523465
 20
647.131232
 42
0.143586
  0
VERTEX
  8
0
 10
492.732252
 20
647.255099
 42
0.142286
  0
VERTEX
  8
0
 10
492.842298
 20
647.473117
 42
0.099537
  0
VERTEX
  8
0
 10
492.838518
 20
647.750000
 42
-0.143025
  0
VERTEX
  8
0
 10
492.932288
 20
649.049156
 42
-0.018975
  0
VERTEX
  8
0
 10
494.001406
 20
651.619889
 42
-0.022576
  0
VERTEX
  8
0
 10
495.434800
 20
654.392032
 42
-0.028579
  0
VERTEX
  8
0
 10
497.014072
 20
656.805163
 42
0.044243
  0
VERTEX
  8
0
 10
498.059268
 20
658.516785
 42
0.074735
  0
VERTEX
  8
0
 10
498.571989
 20
660.114149
 42
0.054989
  0
VERTEX
  8
0
 10
498.675031
 20
662.111997
 42
0.014665
  0
VERTEX
  8
0
 10
498.395651
 20
665.290721
 42
0.012085
  0
VERTEX
  8
0
 10
498.084635
 20
667.479314
 42
0.019477
  0
VERTEX
  8
0
 10
497.702702
 20
669.322899
 42
0.014196
  0
VERTEX
  8
0
 10
497.301964
 20
670.761807
 42
0.328835
  0
VERTEX
  8
0
 10
496.978950
 20
671.000000
 42
-0.178505
  0
VERTEX
  8
0
 10
496.651493
 20
671.120753
 42
-0.053189
  0
VERTEX
  8
0
 10
496.279209
 20
671.514063
 42
-0.045926
  0
VERTEX
  8
0
 10
495.924390
 20
672.080161
 42
-0.035837
  0
VERTEX
  8
0
 10
495.643988
 20
672.750000
 42
0.041772
  0
VERTEX
  8
0
 10
494.393635
 20
675.640257
 42
0.029260
  0
VERTEX
  8
0
 10
492.537403
 20
678.665843
 42
0.029095
  0
VERTEX
  8
0
 10
490.504890
 20
681.247342
 42
0.089485
  0
VERTEX
  8
0
 10
488.764730
 20
682.617951
 42
-0.079147
  0
VERTEX
  8
0
 10
487.725426
 20
683.402514
 42
-0.024391
  0
VERTEX
  8
0
 10
486.430889
 20
684.886158
 42
-0.023725
  0
VERTEX
  8
0
 10
485.123556
 20
686.712670
 42
-0.023972
  0
VERTEX
  8
0
 10
484.000000
 20
688.648664
 42
0.023036
  0
VERTEX
  8
0
 10
482.888728
 20
690.571768
 42
0.023917
  0
VERTEX
  8
0
 10
481.618080
 20
692.359680
 42
0.024489
  0
VERTEX
  8
0
 10
480.375043
 20
693.792314
 42
0.088041
  0
VERTEX
  8
0
 10
479.401973
 20
694.504092
 42
-0.033767
  0
VERTEX
  8
0
 10
477.326878
 20
695.701654
 42
-0.010498
  0
VERTEX
  8
0
 10
474.378746
 20
697.770613
 42
-0.010865
  0
VERTEX
  8
0
 10
471.365526
 20
700.083458
 42
-0.018335
  0
VERTEX
  8
0
 10
468.956743
 20
702.166667
 42
0.022361
  0
VERTEX
  8
0
 10
468.241008
 20
702.775662
 42
0.035413
  0
VERTEX
  8
0
 10
467.571912
 20
703.223160
 42
0.039591
  0
VERTEX
  8
0
 10
467.024290
 20
703.480668
 42
0.294552
  0
VERTEX
  8
0
 10
466.756149
 20
703.422815
 42
-0.349704
  0
VERTEX
  8
0
 10
466.443423
 20
703.387461
 42
-0.010379
  0
VERTEX
  8
0
 10
465.264334
 20
704.161657
 42
-0.016468
  0
VERTEX
  8
0
 10
463.852284
 20
705.201392
 42
-0.010080
  0
VERTEX
  8
0
 10
462.254104
 20
706.514492
 42
0.022853
  0
VERTEX
  8
0
 10
460.303606
 20
708.035321
 42
0.012688
  0
VERTEX
  8
0
 10
457.798397
 20
709.716971
 42
0.012633
  0
VERTEX
  8
0
 10
455.170376
 20
711.294212
 42
0.019898
  0
VERTEX
  8
0
 10
452.831289
 20
712.498574
 42
0.070342
  0
VERTEX
  8
0
 10
446.364126
 20
714.465445
 42
0.039458
  0
VERTEX
  8
0
 10
438.157022
 20
715.089692
 42
0.038007
  0
VERTEX
  8
0
 10
429.468951
 20
714.402449
 42
0.045321
  0
SEQEND
  0
POLYLINE
  8
0
 66
1
 70
1
  0
VERTEX
  8
0
 10
455.000000
 20
710.000000
 42
-0.015397
  0
VERTEX
  8
0
 10
456.259041
 20
709.259437
 42
-0.041204
  0
VERTEX
  8
0
 10
457.090100
 20
708.634393
 42
-0.134409
  0
VERTEX
  8
0
 10
457.343444
 20
708.244630
 42
-0.497852
  0
VERTEX
  8
0
 10
457.200340
 20
708.041916
 42
-0.104297
  0
VERTEX
  8
0
 10
455.731620
 20
708.302512
 42
-0.016798
  0
VERTEX
  8
0
 10
453.058491
 20
709.486776
 42
-0.011221
  0
VERTEX
  8
0
 10
450.406273
 20
710.844275
 42
-0.275489
  0
VERTEX
  8
0
 10
450.000000
 20
711.525680
 42
-0.381510
  0
VERTEX
  8
0
 10
450.326274
 20
711.891051
 42
-0.102632
  0
VERTEX
  8
0
 10
451.169657
 20
711.813568
 42
-0.041167
  0
VERTEX
  8
0
 10
452.657494
 20
711.221980
 42
-0.010042
  0
SEQEND
  0
POLYLINE
  8
0
 66
1
 70
1
  0
VERTEX
  8
0
 10
435.643054
 20
701.309721
 42
0.327322
  0
VERTEX
  8
0
 10
435.587155
 20
700.946586
 42
0.080706
  0
VERTEX
  8
0
 10
435.970293
 20
700.433051
 42
0.052303
  0
VERTEX
  8
0
 10
436.712182
 20
699.852216
 42
0.028538
  0
VERTEX
  8
0
 10
437.726387
 20
699.294640
 42
-0.008128
  0
VERTEX
  8
0
 10
438.710081
 20
698.804990
 42
-0.048167
  0
VERTEX
  8
0
 10
439.192049
 20
698.493080
 42
-0.685938
  0
VERTEX
  8
0
 10
439.160625
 20
698.392314
 42
-0.083064
  0
VERTEX
  8
0
 10
438.821014
 20
698.426284
 42
0.009432
  0
VERTEX
  8
0
 10
437.926766
 20
698.651368
 42
0.002602
  0
VERTEX
  8
0
 10
436.512807
 20
698.971289
 42
0.002628
  0
VERTEX
  8
0
 10
434.907045
 20
699.316992
 42
0.002746
  0
VERTEX
  8
0
 10
433.321014
 20
699.640653
 42
0.000000
  0
VERTEX
  8
0
 10
429.500000
 20
700.398577
 42
0.000000
  0
VERTEX
  8
0
 10
432.500000
 20
701.080974
 42
0.000691
  0
VERTEX
  8
0
 10
433.679509
 20
701.350986
 42
0.000944
  0
VERTEX
  8
0
 10
434.741146
 20
701.597671
 42
0.000612
  0
VERTEX
  8
0
 10
435.632549
 20
701.807726
 42
0.011007
  0
VERTEX
  8
0
 10
435.916667
 20
701.881685
 42
-0.311038
  0
VERTEX
  8
0
 10
435.999239
 20
701.853731
 42
-0.278766
  0
VERTEX
  8
0
 10
436.008168
 20
701.762475
 42
-0.065147
  0
VERTEX
  8
0
 10
435.881961
 20
701.568283
 42
-0.019747
  0
SEQEND
  0
POLYLINE
  8
0
 66
1
 70
1
  0
VERTEX
  8
0
 10
412.000000
 20
694.606989
 42
-0.225200
  0
VERTEX
  8
0
 10
411.911231
 20
694.419896
 42
-0.029412
  0
VERTEX
  8
0
 10
411.544118
 20
694.154486
 42
-0.029555
  0
VERTEX
  8
0
 10
411.042538
 20
693.875192
 42
-0.020646
  0
VERTEX
  8
0
 10
410.448062
 20
693.618443
 42
-0.036408
  0
VERTEX
  8
0
 10
409.868281
 20
693.443138
 42
-0.155351
  0
VERTEX
  8
0
 10
409.512472
 20
693.474315
 42
-0.329480
  0
VERTEX
  8
0
 10
409.393111
 20
693.674071
 42
-0.114400
  0
VERTEX
  8
0
 10
409.507079
 20
694.011454
 42
-0.115814
  0
VERTEX
  8
0
 10
410.098109
 20
694.603931
 42
-0.080554
  0
VERTEX
  8
0
 10
410.973761
 20
694.969265
 42
-0.115534
  0
VERTEX
  8
0
 10
411.708846
 20
694.972535
 42
-0.349578
  0
SEQEND
  0
POLYLINE
  8
0
 66
1
 70
1
  0
VERTEX
  8
0
 10
383.789427
 20
674.600859
 42
-0.023968
  0
VERTEX
  8
0
 10
383.269923
 20
674.088723
 42
-0.038420
  0
VERTEX
  8
0
 10
382.775917
 20
673.710420
 42
-0.045304
  0
VERTEX
  8
0
 10
382.367062
 20
673.494344
 42
-0.297152
  0
VERTEX
  8
0
 10
382.149864
 20
673.534328
 42
-0.301864
  0
VERTEX
  8
0
 10
382.018937
 20
674.107085
 42
-0.076948
  0
VERTEX
  8
0
 10
382.512308
 20
674.978461
 42
-0.069007
  0
VERTEX
  8
0
 10
383.312518
 20
675.745464
 42
-0.157897
  0
VERTEX
  8
0
 10
384.098444
 20
676.000000
 42
-0.236389
  0
VERTEX
  8
0
 10
384.350678
 20
675.873691
 42
-0.218285
  0
VERTEX
  8
0
 10
384.412089
 20
675.589002
 42
-0.095760
  0
VERTEX
  8
0
 10
384.217338
 20
675.138842
 42
-0.036357
  0
SEQEND
  0
POLYLINE
  8
0
 66
1
 70
1
  0
VERTEX
  8
0
 10
444.595492
 20
672.845492
 42
-0.029117
  0
VERTEX
  8
0
 10
444.841108
 20
672.390889
 42
-0.305040
  0
VERTEX
  8
0
 10
444.810042
 20
672.192090
 42
-0.324046
  0
VERTEX
  8
0
 10
444.619069
 20
672.153994
 42
-0.030943
  0
VERTEX
  8
0
 10
444.175175
 20
672.391736
 42
0.121422
  0
VERTEX
  8
0
 10
443.580218
 20
672.583572
 42
0.046883
  0
VERTEX
  8
0
 10
442.707391
 20
672.563103
 42
0.042886
  0
VERTEX
  8
0
 10
441.723281
 20
672.360677
 42
0.040783
  0
VERTEX
  8
0
 10
440.770667
 20
671.991078
 42
-0.000925
  0
VERTEX
  8
0
 10
439.204031
 20
671.234741
 42
-0.362368
  0
VERTEX
  8
0
 10
439.091959
 20
671.263044
 42
-0.399297
  0
VERTEX
  8
0
 10
439.106278
 20
671.371154
 42
-0.000966
  0
VERTEX
  8
0
 10
440.441130
 20
672.444834
 42
-0.026054
  0
VERTEX
  8
0
 10
441.990758
 20
673.558997
 42
-0.119341
  0
VERTEX
  8
0
 10
443.030104
 20
673.919305
 42
-0.192037
  0
VERTEX
  8
0
 10
443.845844
 20
673.681810
 42
-0.088847
  0
SEQEND
  0
POLYLINE
  8
0
 66
1
 70
1
  0
VERTEX
  8
0
 10
461.729167
 20
663.395833
 42
-0.126455
  0
VERTEX
  8
0
 10
461.402231
 20
663.202593
 42
-0.060344
  0
VERTEX
  8
0
 10
460.916927
 20
663.123424
 42
-0.054150
  0
VERTEX
  8
0
 10
460.359369
 20
663.160852
 42
-0.051402
  0
VERTEX
  8
0
 10
459.812500
 20
663.316886
 42
-0.054073
  0
VERTEX
  8
0
 10
459.395823
 20
663.538436
 42
-0.470617
  0
VERTEX
  8
0
 10
459.378580
 20
663.720685
 42
-0.168741
  0
VERTEX
  8
0
 10
459.670344
 20
663.862007
 42
-0.018894
  0
VERTEX
  8
0
 10
460.416667
 20
663.921053
 42
-0.028489
  0
VERTEX
  8
0
 10
461.112848
 20
663.910055
 42
-0.077125
  0
VERTEX
  8
0
 10
461.592839
 20
663.799335
 42
-0.208169
  0
VERTEX
  8
0
 10
461.775380
 20
663.614691
 42
-0.296942
  0
SEQEND
  0
POLYLINE
  8
0
 66
1
 70
1
  0
VERTEX
  8
0
 10
433.766074
 20
660.567260
 42
-0.406265
  0
VERTEX
  8
0
 10
433.769069
 20
660.347149
 42
-0.120742
  0
VERTEX
  8
0
 10
433.456805
 20
660.145986
 42
-0.052972
  0
VERTEX
  8
0
 10
432.805954
 20
659.996250
 42
-0.022806
  0
VERTEX
  8
0
 10
431.916667
 20
659.929715
 42
0.003509
  0
VERTEX
  8
0
 10
430.377706
 20
659.874145
 42
0.277806
  0
VERTEX
  8
0
 10
430.183567
 20
659.745543
 42
0.426185
  0
VERTEX
  8
0
 10
430.249284
 20
659.571980
 42
0.004987
  0
VERTEX
  8
0
 10
431.500000
 20
659.053299
 42
0.048501
  0
VERTEX
  8
0
 10
432.341624
 20
658.805609
 42
0.048387
  0
VERTEX
  8
0
 10
433.215876
 20
658.724426
 42
0.052764
  0
VERTEX
  8
0
 10
433.992910
 20
658.809880
 42
0.114306
  0
VERTEX
  8
0
 10
434.532771
 20
659.065745
 42
-0.058557
  0
VERTEX
  8
0
 10
436.192671
 20
660.090835
 42
-0.030799
  0
VERTEX
  8
0
 10
438.452108
 20
660.979353
 42
-0.041910
  0
VERTEX
  8
0
 10
440.236059
 20
661.395778
 42
-0.637419
  0
VERTEX
  8
0
 10
440.498132
 20
660.996977
 42
0.210928
  0
VERTEX
  8
0
 10
440.445862
 20
660.620100
 42
0.178566
  0
VERTEX
  8
0
 10
440.685137
 20
660.292862
 42
0.100648
  0
VERTEX
  8
0
 10
441.231479
 20
660.071211
 42
0.046231
  0
VERTEX
  8
0
 10
442.000000
 20
660.000000
 42
-0.046386
  0
VERTEX
  8
0
 10
442.768372
 20
659.928563
 42
-0.100989
  0
VERTEX
  8
0
 10
443.314314
 20
659.706250
 42
-0.178861
  0
VERTEX
  8
0
 10
443.553029
 20
659.378029
 42
-0.210115
  0
VERTEX
  8
0
 10
443.500000
 20
659.000000
 42
0.088621
  0
VERTEX
  8
0
 10
443.348919
 20
658.618194
 42
0.167455
  0
VERTEX
  8
0
 10
443.391936
 20
658.293750
 42
0.177706
  0
VERTEX
  8
0
 10
443.621649
 20
658.077418
 42
0.101261
  0
VERTEX
  8
0
 10
444.000000
 20
658.000000
 42
-0.102866
  0
VERTEX
  8
0
 10
444.377591
 20
657.921486
 42
-0.178759
  0
VERTEX
  8
0
 10
444.605932
 20
657.702800
 42
-0.166143
  0
VERTEX
  8
0
 10
444.646815
 20
657.374612
 42
-0.087278
  0
VERTEX
  8
0
 10
444.492741
 20
656.988255
 42
0.288180
  0
VERTEX
  8
0
 10
444.496049
 20
656.551971
 42
0.104743
  0
VERTEX
  8
0
 10
444.949338
 20
656.091428
 42
0.063581
  0
VERTEX
  8
0
 10
445.805835
 20
655.669613
 42
0.033321
  0
VERTEX
  8
0
 10
446.954534
 20
655.359093
 42
-0.021850
  0
VERTEX
  8
0
 10
448.175855
 20
655.058806
 42
-0.026196
  0
VERTEX
  8
0
 10
449.292886
 20
654.667234
 42
-0.026371
  0
VERTEX
  8
0
 10
450.181649
 20
654.246351
 42
-0.131301
  0
VERTEX
  8
0
 10
450.579826
 20
653.870838
 42
0.168346
  0
VERTEX
  8
0
 10
450.994072
 20
653.533341
 42
0.032215
  0
VERTEX
  8
0
 10
451.938959
 20
653.255809
 42
0.031092
  0
VERTEX
  8
0
 10
453.135376
 20
653.063819
 42
0.024242
  0
VERTEX
  8
0
 10
454.450879
 20
653.000000
 42
-0.111675
  0
VERTEX
  8
0
 10
457.487613
 20
652.313182
 42
-0.037079
  0
VERTEX
  8
0
 10
461.475164
 20
650.035465
 42
-0.034307
  0
VERTEX
  8
0
 10
464.977303
 20
647.307938
 42
-0.202515
  0
VERTEX
  8
0
 10
465.948386
 20
645.250000
 42
0.077813
  0
VERTEX
  8
0
 10
466.043488
 20
644.772468
 42
0.087100
  0
VERTEX
  8
0
 10
466.278588
 20
644.367188
 42
0.096284
  0
VERTEX
  8
0
 10
466.614540
 20
644.095847
 42
0.122464
  0
VERTEX
  8
0
 10
467.000000
 20
644.000000
 42
-0.188314
  0
VERTEX
  8
0
 10
467.381825
 20
643.850907
 42
-0.089104
  0
VERTEX
  8
0
 10
467.706250
 20
643.422835
 42
-0.068922
  0
VERTEX
  8
0
 10
467.926253
 20
642.787094
 42
-0.048922
  0
VERTEX
  8
0
 10
468.000000
 20
642.035184
 42
0.088264
  0
VERTEX
  8
0
 10
468.147828
 20
641.204291
 42
0.057686
  0
VERTEX
  8
0
 10
468.587500
 20
640.333112
 42
0.055927
  0
VERTEX
  8
0
 10
469.235098
 20
639.555412
 42
0.068430
  0
VERTEX
  8
0
 10
470.000000
 20
639.000000
 42
-0.078097
  0
VERTEX
  8
0
 10
470.801817
 20
638.393896
 42
-0.064254
  0
VERTEX
  8
0
 10
471.442586
 20
637.532038
 42
-0.062447
  0
VERTEX
  8
0
 10
471.858374
 20
636.509635
 42
-0.065472
  0
VERTEX
  8
0
 10
472.000000
 20
635.432698
 42
0.042805
  0
VERTEX
  8
0
 10
472.103630
 20
634.224426
 42
0.017627
  0
VERTEX
  8
0
 10
472.440625
 20
632.614673
 42
0.017287
  0
VERTEX
  8
0
 10
472.925689
 20
630.903266
 42
0.021259
  0
VERTEX
  8
0
 10
473.500000
 20
629.345757
 42
-0.009872
  0
VERTEX
  8
0
 10
474.715084
 20
626.268217
 42
-0.114136
  0
VERTEX
  8
0
 10
474.880920
 20
624.989840
 42
-0.317332
  0
VERTEX
  8
0
 10
474.362176
 20
624.389784
 42
-0.079812
  0
VERTEX
  8
0
 10
473.000000
 20
624.274953
 42
-0.029441
  0
VERTEX
  8
0
 10
472.233867
 20
624.378274
 42
-0.044448
  0
VERTEX
  8
0
 10
471.587500
 20
624.565368
 42
-0.054268
  0
VERTEX
  8
0
 10
471.134685
 20
624.800545
 42
-0.250911
  0
VERTEX
  8
0
 10
471.000000
 20
625.052040
 42
0.353948
  0
VERTEX
  8
0
 10
470.818236
 20
625.276638
 42
0.031400
  0
VERTEX
  8
0
 10
470.045313
 20
625.391293
 42
0.030090
  0
VERTEX
  8
0
 10
468.996033
 20
625.416821
 42
0.017953
  0
VERTEX
  8
0
 10
467.750000
 20
625.327277
 42
-0.007463
  0
VERTEX
  8
0
 10
466.001994
 20
625.164742
 42
-0.001925
  0
VERTEX
  8
0
 10
463.177649
 20
624.955528
 42
-0.001959
  0
VERTEX
  8
0
 10
459.954468
 20
624.741934
 42
-0.001993
  0
VERTEX
  8
0
 10
456.748379
 20
624.554915
 42
0.008949
  0
VERTEX
  8
0
 10
450.492531
 20
624.102598
 42
0.052298
  0
VERTEX
  8
0
 10
447.259490
 20
623.465466
 42
0.126334
  0
VERTEX
  8
0
 10
445.617107
 20
622.457582
 42
0.194667
  0
VERTEX
  8
0
 10
445.000000
 20
620.932612
 42
-0.076059
  0
VERTEX
  8
0
 10
444.887028
 20
620.194251
 42
-0.089331
  0
VERTEX
  8
0
 10
444.559375
 20
619.567705
 42
-0.100741
  0
VERTEX
  8
0
 10
444.072043
 20
619.148860
 42
-0.127982
  0
VERTEX
  8
0
 10
443.500000
 20
619.000000
 42
0.131536
  0
VERTEX
  8
0
 10
442.893906
 20
618.837746
 42
0.123358
  0
VERTEX
  8
0
 10
442.432544
 20
618.391613
 42
0.096134
  0
VERTEX
  8
0
 10
442.159614
 20
617.677412
 42
0.054458
  0
VERTEX
  8
0
 10
442.099680
 20
616.750000
 42
0.038819
  0
VERTEX
  8
0
 10
442.357222
 20
614.647272
 42
0.020522
  0
VERTEX
  8
0
 10
442.983598
 20
612.093322
 42
0.037169
  0
VERTEX
  8
0
 10
443.586345
 20
610.471615
 42
0.765916
  0
VERTEX
  8
0
 10
443.900320
 20
610.524405
 42
-0.314075
  0
VERTEX
  8
0
 10
444.248612
 20
610.933212
 42
-0.025050
  0
VERTEX
  8
0
 10
445.715671
 20
611.240437
 42
-0.026151
  0
VERTEX
  8
0
 10
447.688232
 20
611.446434
 42
-0.015014
  0
VERTEX
  8
0
 10
450.079432
 20
611.498421
 42
0.009618
  0
VERTEX
  8
0
 10
452.437035
 20
611.524229
 42
0.014535
  0
VERTEX
  8
0
 10
454.486097
 20
611.645777
 42
0.009209
  0
VERTEX
  8
0
 10
456.161734
 20
611.825308
 42
0.226790
  0
VERTEX
  8
0
 10
456.543770
 20
612.070821
 42
-0.184474
  0
VERTEX
  8
0
 10
456.868503
 20
612.318904
 42
-0.022614
  0
VERTEX
  8
0
 10
457.752081
 20
612.537293
 42
-0.024336
  0
VERTEX
  8
0
 10
458.867581
 20
612.704087
 42
-0.017836
  0
VERTEX
  8
0
 10
460.116662
 20
612.784254
 42
0.032490
  0
VERTEX
  8
0
 10
461.388953
 20
612.903410
 42
0.037285
  0
VERTEX
  8
0
 10
462.576302
 20
613.185024
 42
0.040470
  0
VERTEX
  8
0
 10
463.525856
 20
613.573464
 42
0.137869
  0
VERTEX
  8
0
 10
464.013160
 20
614.021294
 42
-0.073426
  0
VERTEX
  8
0
 10
464.367837
 20
614.442242
 42
-0.267333
  0
VERTEX
  8
0
 10
464.697392
 20
614.509594
 42
-0.185068
  0
VERTEX
  8
0
 10
465.014132
 20
614.249853
 42
-0.037905
  0
VERTEX
  8
0
 10
465.329452
 20
613.583846
 42
-0.065796
  0
VERTEX
  8
0
 10
465.491483
 20
612.907107
 42
-0.158755
  0
VERTEX
  8
0
 10
465.384807
 20
612.409735
 42
-0.177386
  0
VERTEX
  8
0
 10
465.018553
 20
612.105282
 42
-0.085808
  0
VERTEX
  8
0
 10
464.409598
 20
612.000000
 42
0.065368
  0
VERTEX
  8
0
 10
463.868549
 20
611.928962
 42
0.137590
  0
VERTEX
  8
0
 10
463.506933
 20
611.714862
 42
0.191303
  0
VERTEX
  8
0
 10
463.378541
 20
611.397774
 42
0.140990
  0
VERTEX
  8
0
 10
463.481881
 20
611.029317
 42
-0.420955
  0
VERTEX
  8
0
 10
463.270780
 20
610.178861
 42
-0.067538
  0
VERTEX
  8
0
 10
461.515009
 20
609.445330
 42
-0.053200
  0
VERTEX
  8
0
 10
459.118389
 20
609.071907
 42
-0.076159
  0
VERTEX
  8
0
 10
456.982574
 20
609.294306
 42
0.031305
  0
VERTEX
  8
0
 10
456.199387
 20
609.447519
 42
0.121734
  0
VERTEX
  8
0
 10
455.712080
 20
609.392870
 42
0.295296
  0
VERTEX
  8
0
 10
455.537094
 20
609.159101
 42
0.156732
  0
VERTEX
  8
0
 10
455.627560
 20
608.793604
 42
0.264984
  0
VERTEX
  8
0
 10
457.290713
 20
607.886833
 42
0.026973
  0
VERTEX
  8
0
 10
461.945246
 20
608.226449
 42
0.029402
  0
VERTEX
  8
0
 10
466.576770
 20
609.095857
 42
0.175541
  0
VERTEX
  8
0
 10
468.583323
 20
610.444838
 42
-0.050585
  0
VERTEX
  8
0
 10
469.147004
 20
611.071603
 42
-0.067032
  0
VERTEX
  8
0
 10
469.778076
 20
611.506495
 42
-0.083442
  0
VERTEX
  8
0
 10
470.376666
 20
611.693651
 42
-0.174259
  0
VERTEX
  8
0
 10
470.848055
 20
611.593907
 42
0.101916
  0
VERTEX
  8
0
 10
471.250281
 20
611.446880
 42
0.124226
  0
VERTEX
  8
0
 10
471.647999
 20
611.486733
 42
0.124321
  0
VERTEX
  8
0
 10
471.978970
 20
611.710466
 42
0.102165
  0
VERTEX
  8
0
 10
472.193519
 20
612.080556
 42
-0.218974
  0
VERTEX
  8
0
 10
472.588650
 20
612.502247
 42
-0.072976
  0
VERTEX
  8
0
 10
473.430548
 20
612.709224
 42
-0.048876
  0
VERTEX
  8
0
 10
474.667674
 20
612.706375
 42
-0.021370
  0
VERTEX
  8
0
 10
476.293494
 20
612.472763
 42
0.000000
  0
VERTEX
  8
0
 10
480.029131
 20
611.771953
 42
0.000000
  0
VERTEX
  8
0
 10
479.485801
 20
606.177216
 42
-0.011015
  0
VERTEX
  8
0
 10
479.225184
 20
603.994558
 42
-0.015595
  0
VERTEX
  8
0
 10
478.890211
 20
602.066944
 42
-0.011642
  0
VERTEX
  8
0
 10
478.529956
 20
600.503909
 42
-0.170938
  0
VERTEX
  8
0
 10
478.221235
 20
600.041239
 42
0.091573
  0
VERTEX
  8
0
 10
477.226582
 20
598.961452
 42
0.027290
  0
VERTEX
  8
0
 10
476.133465
 20
596.994213
 42
0.027509
  0
VERTEX
  8
0
 10
475.258380
 20
594.910565
 42
0.085861
  0
VERTEX
  8
0
 10
475.000000
 20
593.417019
 42
-0.122974
  0
VERTEX
  8
0
 10
474.781572
 20
592.542339
 42
-0.019983
  0
VERTEX
  8
0
 10
473.890492
 20
591.019404
 42
-0.020999
  0
VERTEX
  8
0
 10
472.669079
 20
589.276837
 42
-0.017114
  0
VERTEX
  8
0
 10
471.222950
 20
587.515944
 42
0.031235
  0
VERTEX
  8
0
 10
469.529653
 20
585.331173
 42
0.024878
  0
VERTEX
  8
0
 10
467.977758
 20
582.783668
 42
0.024471
  0
VERTEX
  8
0
 10
466.659060
 20
580.043024
 42
0.027129
  0
VERTEX
  8
0
 10
465.664521
 20
577.278084
 42
0.000000
  0
VERTEX
  8
0
 10
463.883142
 20
571.331180
 42
0.000000
  0
VERTEX
  8
0
 10
459.272093
 20
573.665590
 42
0.018580
  0
VERTEX
  8
0
 10
457.331394
 20
574.559141
 42
0.018120
  0
VERTEX
  8
0
 10
455.313613
 20
575.314267
 42
0.018357
  0
VERTEX
  8
0
 10
453.495915
 20
575.847113
 42
0.062191
  0
VERTEX
  8
0
 10
452.271505
 20
576.000000
 42
-0.039835
  0
VERTEX
  8
0
 10
451.394899
 20
576.069950
 42
-0.087229
  0
VERTEX
  8
0
 10
450.760688
 20
576.289505
 42
-0.164721
  0
VERTEX
  8
0
 10
450.466086
 20
576.614100
 42
-0.245793
  0
VERTEX
  8
0
 10
450.492921
 20
576.988546
 42
0.114400
  0
VERTEX
  8
0
 10
450.606889
 20
577.325929
 42
0.329480
  0
VERTEX
  8
0
 10
450.487528
 20
577.525685
 42
0.155351
  0
VERTEX
  8
0
 10
450.131719
 20
577.556862
 42
0.036408
  0
VERTEX
  8
0
 10
449.551938
 20
577.381557
 42
-0.263647
  0
VERTEX
  8
0
 10
448.503817
 20
577.539059
 42
-0.225314
  0
VERTEX
  8
0
 10
447.998848
 20
578.551011
 42
-0.112464
  0
VERTEX
  8
0
 10
448.356842
 20
580.278313
 42
-0.076955
  0
VERTEX
  8
0
 10
449.462113
 20
581.958136
 42
0.071008
  0
VERTEX
  8
0
 10
450.012018
 20
582.772746
 42
0.058911
  0
VERTEX
  8
0
 10
450.355561
 20
583.761761
 42
0.057504
  0
VERTEX
  8
0
 10
450.464468
 20
584.828364
 42
0.060737
  0
VERTEX
  8
0
 10
450.323376
 20
585.871411
 42
0.032396
  0
VERTEX
  8
0
 10
450.049796
 20
586.695456
 42
0.077479
  0
VERTEX
  8
0
 10
449.719466
 20
587.246573
 42
0.172907
  0
VERTEX
  8
0
 10
449.395001
 20
587.438323
 42
0.291512
  0
VERTEX
  8
0
 10
449.111262
 20
587.326316
 42
-0.144575
  0
VERTEX
  8
0
 10
447.814787
 20
586.328149
 42
-0.009892
  0
VERTEX
  8
0
 10
443.409717
 20
584.724277
 42
-0.013552
  0
VERTEX
  8
0
 10
438.983571
 20
583.343991
 42
-0.069509
  0
VERTEX
  8
0
 10
436.441130
 20
582.995054
 42
-0.056439
  0
VERTEX
  8
0
 10
435.512121
 20
583.102515
 42
-0.031248
  0
VERTEX
  8
0
 10
434.416846
 20
583.429830
 42
-0.030753
  0
VERTEX
  8
0
 10
433.335059
 20
583.905624
 42
-0.042955
  0
VERTEX
  8
0
 10
432.441130
 20
584.468197
 42
0.076327
  0
VERTEX
  8
0
 10
430.364423
 20
585.589802
 42
0.084604
  0
VERTEX
  8
0
 10
428.119987
 20
585.984409
 42
0.155150
  0
VERTEX
  8
0
 10
426.678123
 20
585.534256
 42
0.344410
  0
VERTEX
  8
0
 10
426.361626
 20
584.500000
 42
-0.027721
  0
VERTEX
  8
0
 10
426.546544
 20
583.924666
 42
-0.051483
  0
VERTEX
  8
0
 10
426.621025
 20
583.440625
 42
-0.080408
  0
VERTEX
  8
0
 10
426.584575
 20
583.112610
 42
-0.336852
  0
VERTEX
  8
0
 10
426.436391
 20
583.000000
 42
-0.232978
  0
VERTEX
  8
0
 10
426.192272
 20
583.120277
 42
-0.024240
  0
VERTEX
  8
0
 10
425.817009
 20
583.660938
 42
-0.026110
  0
VERTEX
  8
0
 10
425.414057
 20
584.388019
 42
-0.017920
  0
VERTEX
  8
0
 10
425.031162
 20
585.250000
 42
0.010489
  0
VERTEX
  8
0
 10
424.585114
 20
586.295764
 42
0.154533
  0
VERTEX
  8
0
 10
424.321641
 20
586.589711
 42
0.522663
  0
VERTEX
  8
0
 10
424.137337
 20
586.505218
 42
0.035007
  0
VERTEX
  8
0
 10
424.063386
 20
585.821429
 42
0.127685
  0
VERTEX
  8
0
 10
424.377292
 20
584.392553
 42
0.054912
  0
VERTEX
  8
0
 10
425.454830
 20
582.747739
 42
0.055185
  0
VERTEX
  8
0
 10
426.825379
 20
581.416463
 42
0.166669
  0
VERTEX
  8
0
 10
428.040044
 20
581.000000
 42
0.217706
  0
VERTEX
  8
0
 10
428.329638
 20
581.132366
 42
0.136758
  0
VERTEX
  8
0
 10
428.491485
 20
581.474798
 42
0.086911
  0
VERTEX
  8
0
 10
428.489555
 20
581.997001
 42
0.047366
  0
VERTEX
  8
0
 10
428.316985
 20
582.616334
 42
-0.028718
  0
VERTEX
  8
0
 10
428.050942
 20
583.449770
 42
-0.362899
  0
VERTEX
  8
0
 10
428.182668
 20
583.726216
 42
-0.219316
  0
VERTEX
  8
0
 10
428.573697
 20
583.725470
 42
-0.014424
  0
VERTEX
  8
0
 10
429.609558
 20
583.208958
 42
-0.032815
  0
VERTEX
  8
0
 10
430.477552
 20
582.668386
 42
-0.015853
  0
VERTEX
  8
0
 10
431.516790
 20
581.871255
 42
-0.015646
  0
VERTEX
  8
0
 10
432.551356
 20
580.968789
 42
-0.021663
  0
VERTEX
  8
0
 10
433.416176
 20
580.092624
 42
-0.009086
  0
VERTEX
  8
0
 10
434.496666
 20
578.854190
 42
-0.147453
  0
VERTEX
  8
0
 10
434.712724
 20
578.352183
 42
-0.395509
  0
VERTEX
  8
0
 10
434.507264
 20
578.076015
 42
-0.044507
  0
VERTEX
  8
0
 10
433.654988
 20
578.000000
 42
-0.045352
  0
VERTEX
  8
0
 10
433.021502
 20
578.057579
 42
-0.065251
  0
VERTEX
  8
0
 10
432.486153
 20
578.230013
 42
-0.085238
  0
VERTEX
  8
0
 10
432.124512
 20
578.483840
 42
-0.199783
  0
VERTEX
  8
0
 10
432.000000
 20
578.783022
 42
0.391460
  0
VERTEX
  8
0
 10
431.386070
 20
579.447011
 42
0.058011
  0
VERTEX
  8
0
 10
429.391233
 20
579.371995
 42
0.045416
  0
VERTEX
  8
0
 10
426.758941
 20
578.715966
 42
0.036525
  0
VERTEX
  8
0
 10
424.079860
 20
577.557810
 42
-0.031189
  0
VERTEX
  8
0
 10
422.509909
 20
576.859171
 42
-0.019979
  0
VERTEX
  8
0
 10
420.612802
 20
576.238096
 42
-0.020073
  0
VERTEX
  8
0
 10
418.698192
 20
575.777080
 42
-0.035049
  0
VERTEX
  8
0
 10
417.079860
 20
575.571952
 42
0.043347
  0
VERTEX
  8
0
 10
415.017619
 20
575.275759
 42
0.116247
  0
VERTEX
  8
0
 10
413.697600
 20
574.620527
 42
0.086231
  0
VERTEX
  8
0
 10
412.586663
 20
573.318992
 42
0.017204
  0
VERTEX
  8
0
 10
411.115932
 20
570.627571
 42
0.015280
  0
VERTEX
  8
0
 10
409.917349
 20
568.049260
 42
0.056661
  0
VERTEX
  8
0
 10
409.403103
 20
566.334709
 42
0.084478
  0
VERTEX
  8
0
 10
409.389571
 20
564.930509
 42
0.067253
  0
VERTEX
  8
0
 10
409.828222
 20
563.477667
 42
-0.026446
  0
VERTEX
  8
0
 10
410.301043
 20
562.275230
 42
-0.090022
  0
VERTEX
  8
0
 10
410.419867
 20
561.445305
 42
-0.142429
  0
VERTEX
  8
0
 10
410.220118
 20
560.843159
 42
-0.112050
  0
VERTEX
  8
0
 10
409.712290
 20
560.375386
 42
-0.017535
  0
VERTEX
  8
0
 10
409.274751
 20
560.144179
 42
-0.186148
  0
VERTEX
  8
0
 10
409.077453
 20
560.127769
 42
-0.503805
  0
VERTEX
  8
0
 10
409.038876
 20
560.232695
 42
-0.038964
  0
VERTEX
  8
0
 10
409.253508
 20
560.509849
 42
0.190483
  0
VERTEX
  8
0
 10
409.435628
 20
560.993145
 42
0.056873
  0
VERTEX
  8
0
 10
409.331809
 20
561.789073
 42
0.048024
  0
VERTEX
  8
0
 10
408.998034
 20
562.734735
 42
0.036207
  0
VERTEX
  8
0
 10
408.461947
 20
563.698420
 42
-0.034134
  0
VERTEX
  8
0
 10
407.914792
 20
564.672485
 42
-0.041817
  0
VERTEX
  8
0
 10
407.547163
 20
565.649261
 42
-0.046873
  0
VERTEX
  8
0
 10
407.391083
 20
566.493991
 42
-0.162047
  0
VERTEX
  8
0
 10
407.517457
 20
567.028246
 42
0.114325
  0
VERTEX
  8
0
 10
407.642872
 20
567.399335
 42
0.182169
  0
VERTEX
  8
0
 10
407.557091
 20
567.719045
 42
0.155727
  0
VERTEX
  8
0
 10
407.264366
 20
567.936674
 42
0.079827
  0
VERTEX
  8
0
 10
406.809017
 20
568.015313
 42
-0.044036
  0
VERTEX
  8
0
 10
406.259321
 20
568.070307
 42
-0.415341
  0
VERTEX
  8
0
 10
406.139075
 20
568.247683
 42
-0.187072
  0
VERTEX
  8
0
 10
406.311987
 20
568.522598
 42
-0.016439
  0
VERTEX
  8
0
 10
407.000000
 20
569.000000
 42
0.010016
  0
VERTEX
  8
0
 10
407.845481
 20
569.570720
 42
0.291857
  0
VERTEX
  8
0
 10
407.939991
 20
569.801258
 42
0.346509
  0
VERTEX
  8
0
 10
407.768576
 20
569.953061
 42
0.012137
  0
VERTEX
  8
0
 10
406.821956
 20
569.984687
 42
-0.184665
  0
VERTEX
  8
0
 10
405.977562
 20
570.316421
 42
-0.110553
  0
VERTEX
  8
0
 10
405.351004
 20
571.210931
 42
-0.054787
  0
VERTEX
  8
0
 10
404.870344
 20
572.874015
 42
-0.012802
  0
VERTEX
  8
0
 10
404.446607
 20
575.750000
 42
0.012616
  0
VERTEX
  8
0
 10
404.101546
 20
578.098034
 42
0.013063
  0
VERTEX
  8
0
 10
403.641770
 20
580.398438
 42
0.012862
  0
VERTEX
  8
0
 10
403.141314
 20
582.365653
 42
0.053510
  0
VERTEX
  8
0
 10
402.685933
 20
583.500000
 42
0.011363
  0
VERTEX
  8
0
 10
401.986161
 20
584.746931
 42
0.340083
  0
VERTEX
  8
0
 10
401.671581
 20
584.872960
 42
0.252383
  0
VERTEX
  8
0
 10
401.393682
 20
584.604018
 42
0.007508
  0
VERTEX
  8
0
 10
400.910963
 20
583.000000
 42
0.000000
  0
VERTEX
  8
0
 10
400.199360
 20
580.500000
 42
0.000000
  0
VERTEX
  8
0
 10
400.077444
 20
583.000000
 42
0.056893
  0
VERTEX
  8
0
 10
399.891073
 20
584.137571
 42
0.029442
  0
VERTEX
  8
0
 10
399.416905
 20
585.500000
 42
0.028839
  0
VERTEX
  8
0
 10
398.757682
 20
586.859660
 42
0.038691
  0
VERTEX
  8
0
 10
398.000000
 20
588.000000
 42
-0.029140
  0
VERTEX
  8
0
 10
397.249925
 20
589.083459
 42
-0.027249
  0
VERTEX
  8
0
 10
396.612376
 20
590.270753
 42
-0.028306
  0
VERTEX
  8
0
 10
396.164310
 20
591.387027
 42
-0.078204
  0
VERTEX
  8
0
 10
396.022236
 20
592.219584
 42
0.072626
  0
VERTEX
  8
0
 10
395.878192
 20
593.124077
 42
0.017957
  0
VERTEX
  8
0
 10
395.377584
 20
594.544537
 42
0.017993
  0
VERTEX
  8
0
 10
394.680110
 20
596.146096
 42
0.017154
  0
VERTEX
  8
0
 10
393.858902
 20
597.719584
 42
-0.035852
  0
VERTEX
  8
0
 10
392.985437
 20
599.557514
 42
-0.029339
  0
VERTEX
  8
0
 10
392.314671
 20
601.627874
 42
-0.029459
  0
VERTEX
  8
0
 10
391.893511
 20
603.751804
 42
-0.037215
  0
VERTEX
  8
0
 10
391.768547
 20
605.750000
 42
0.015538
  0
VERTEX
  8
0
 10
391.724823
 20
608.034824
 42
0.090776
  0
VERTEX
  8
0
 10
391.450393
 20
609.200256
 42
0.183120
  0
VERTEX
  8
0
 10
390.876402
 20
609.786845
 42
0.108934
  0
VERTEX
  8
0
 10
389.909644
 20
610.000000
 42
-0.037490
  0
VERTEX
  8
0
 10
389.180683
 20
610.054735
 42
-0.057654
  0
VERTEX
  8
0
 10
388.570731
 20
610.220312
 42
-0.077350
  0
VERTEX
  8
0
 10
388.161024
 20
610.462930
 42
-0.235750
  0
VERTEX
  8
0
 10
388.033269
 20
610.750000
 42
-0.152901
  0
VERTEX
  8
0
 10
388.467626
 20
611.948170
 42
-0.025559
  0
VERTEX
  8
0
 10
390.067204
 20
613.838258
 42
-0.028952
  0
VERTEX
  8
0
 10
391.995254
 20
615.668798
 42
-0.052592
  0
VERTEX
  8
0
 10
393.791404
 20
616.888363
 42
0.049516
  0
VERTEX
  8
0
 10
394.636232
 20
617.454448
 42
0.049842
  0
VERTEX
  8
0
 10
395.351225
 20
618.174466
 42
0.054565
  0
VERTEX
  8
0
 10
395.840619
 20
618.932514
 42
0.116587
  0
VERTEX
  8
0
 10
396.000000
 20
619.606749
 42
-0.119912
  0
VERTEX
  8
0
 10
396.154805
 20
620.242961
 42
-0.142438
  0
VERTEX
  8
0
 10
396.579400
 20
620.689385
 42
-0.107423
  0
VERTEX
  8
0
 10
397.283826
 20
620.917721
 42
-0.049890
  0
VERTEX
  8
0
 10
398.250000
 20
620.917467
 42
0.031439
  0
VERTEX
  8
0
 10
399.291571
 20
620.878804
 42
0.016972
  0
VERTEX
  8
0
 10
400.573438
 20
620.955418
 42
0.016844
  0
VERTEX
  8
0
 10
401.878835
 20
621.122529
 42
0.025379
  0
VERTEX
  8
0
 10
403.000000
 20
621.363553
 42
-0.054288
  0
VERTEX
  8
0
 10
404.268383
 20
621.560482
 42
-0.019830
  0
VERTEX
  8
0
 10
406.087500
 20
621.571226
 42
-0.019387
  0
VERTEX
  8
0
 10
408.093729
 20
621.425480
 42
-0.021962
  0
VERTEX
  8
0
 10
410.000000
 20
621.127217
 42
-0.007623
  0
VERTEX
  8
0
 10
411.882200
 20
620.717435
 42
-0.064700
  0
VERTEX
  8
0
 10
412.690959
 20
620.414091
 42
-0.654061
  0
VERTEX
  8
0
 10
412.674836
 20
620.201541
 42
-0.068918
  0
VERTEX
  8
0
 10
412.000000
 20
620.065433
 42
0.024282
  0
VERTEX
  8
0
 10
410.729048
 20
619.925117
 42
0.008014
  0
VERTEX
  8
0
 10
408.878368
 20
619.598779
 42
0.007960
  0
VERTEX
  8
0
 10
406.834496
 20
619.170644
 42
0.008947
  0
VERTEX
  8
0
 10
404.883805
 20
618.692658
 42
0.016802
  0
VERTEX
  8
0
 10
401.737573
 20
617.747636
 42
0.382359
  0
VERTEX
  8
0
 10
401.309035
 20
616.990404
 42
0.175473
  0
VERTEX
  8
0
 10
401.948694
 20
615.976528
 42
0.004776
  0
VERTEX
  8
0
 10
406.184176
 20
612.750000
 42
0.007184
  0
VERTEX
  8
0
 10
408.993465
 20
610.714233
 42
0.089931
  0
VERTEX
  8
0
 10
410.180249
 20
610.165149
 42
0.363799
  0
VERTEX
  8
0
 10
410.770270
 20
610.445715
 42
0.107687
  0
VERTEX
  8
0
 10
411.000000
 20
611.500000
 42
0.112571
  0
VERTEX
  8
0
 10
410.869518
 20
612.072208
 42
0.100188
  0
VERTEX
  8
0
 10
410.500625
 20
612.559375
 42
0.094267
  0
VERTEX
  8
0
 10
409.949123
 20
612.886225
 42
0.086974
  0
VERTEX
  8
0
 10
409.300000
 20
613.000000
 42
-0.028651
  0
VERTEX
  8
0
 10
408.479669
 20
613.047045
 42
-0.269024
  0
VERTEX
  8
0
 10
408.207180
 20
613.250000
 42
-0.274676
  0
VERTEX
  8
0
 10
408.251147
 20
613.583415
 42
-0.029547
  0
VERTEX
  8
0
 10
408.789877
 20
614.189877
 42
-0.078143
  0
VERTEX
  8
0
 10
409.992462
 20
615.065649
 42
-0.069710
  0
VERTEX
  8
0
 10
411.453374
 20
615.573022
 42
-0.172203
  0
VERTEX
  8
0
 10
412.300155
 20
615.448514
 42
-0.433835
  0
VERTEX
  8
0
 10
412.445746
 20
614.912215
 42
0.334359
  0
VERTEX
  8
0
 10
412.477555
 20
614.566584
 42
0.117744
  0
VERTEX
  8
0
 10
412.914735
 20
614.267963
 42
0.061791
  0
VERTEX
  8
0
 10
413.740687
 20
614.064584
 42
0.029510
  0
VERTEX
  8
0
 10
414.833994
 20
614.000000
 42
0.043968
  0
VERTEX
  8
0
 10
416.066839
 20
614.108622
 42
0.059789
  0
VERTEX
  8
0
 10
417.134267
 20
614.433205
 42
0.071306
  0
VERTEX
  8
0
 10
417.937068
 20
614.933174
 42
0.126929
  0
VERTEX
  8
0
 10
418.385948
 20
615.563382
 42
-0.074338
  0
VERTEX
  8
0
 10
418.695744
 20
616.111021
 42
-0.103740
  0
VERTEX
  8
0
 10
419.124606
 20
616.472864
 42
-0.124144
  0
VERTEX
  8
0
 10
419.602704
 20
616.593455
 42
-0.139297
  0
VERTEX
  8
0
 10
420.058080
 20
616.464105
 42
-0.149353
  0
VERTEX
  8
0
 10
420.413735
 20
616.059178
 42
-0.158326
  0
VERTEX
  8
0
 10
420.471742
 20
615.534684
 42
-0.097777
  0
VERTEX
  8
0
 10
420.193318
 20
614.873999
 42
-0.035464
  0
VERTEX
  8
0
 10
419.562961
 20
614.069571
 42
0.066192
  0
VERTEX
  8
0
 10
418.666035
 20
612.767977
 42
0.246735
  0
VERTEX
  8
0
 10
418.678194
 20
611.805032
 42
0.218212
  0
VERTEX
  8
0
 10
419.501472
 20
611.186060
 42
0.053799
  0
VERTEX
  8
0
 10
421.225684
 20
611.000000
 42
0.048241
  0
VERTEX
  8
0
 10
421.975531
 20
611.072515
 42
0.147112
  0
VERTEX
  8
0
 10
422.423227
 20
611.308411
 42
0.223394
  0
VERTEX
  8
0
 10
422.560622
 20
611.680006
 42
0.117577
  0
VERTEX
  8
0
 10
422.402645
 20
612.157524
 42
-0.100476
  0
VERTEX
  8
0
 10
422.228864
 20
612.628774
 42
-0.340679
  0
VERTEX
  8
0
 10
422.377022
 20
612.897621
 42
-0.143300
  0
VERTEX
  8
0
 10
422.865436
 20
612.959370
 42
-0.024224
  0
VERTEX
  8
0
 10
423.795681
 20
612.763682
 42
0.047408
  0
VERTEX
  8
0
 10
424.627798
 20
612.628514
 42
0.064656
  0
VERTEX
  8
0
 10
425.385392
 20
612.676187
 42
0.081665
  0
VERTEX
  8
0
 10
425.958051
 20
612.888439
 42
0.184846
  0
VERTEX
  8
0
 10
426.246696
 20
613.240087
 42
-0.258489
  0
VERTEX
  8
0
 10
426.518911
 20
613.490216
 42
-0.140096
  0
VERTEX
  8
0
 10
426.986626
 20
613.470962
 42
-0.078488
  0
VERTEX
  8
0
 10
427.611375
 20
613.148739
 42
-0.038160
  0
VERTEX
  8
0
 10
428.294643
 20
612.562500
 42
0.008757
  0
VERTEX
  8
0
 10
429.382201
 20
611.512385
 42
0.245199
  0
VERTEX
  8
0
 10
429.750000
 20
611.410808
 42
0.338061
  0
VERTEX
  8
0
 10
429.964947
 20
611.662230
 42
0.013837
  0
VERTEX
  8
0
 10
430.000000
 20
612.928571
 42
-0.046310
  0
VERTEX
  8
0
 10
430.073591
 20
613.721412
 42
-0.066260
  0
VERTEX
  8
0
 10
430.293750
 20
614.391518
 42
-0.086348
  0
VERTEX
  8
0
 10
430.617992
 20
614.843755
 42
-0.196601
  0
VERTEX
  8
0
 10
431.000000
 20
615.000000
 42
0.375051
  0
VERTEX
  8
0
 10
431.806458
 20
615.703946
 42
0.042712
  0
VERTEX
  8
0
 10
431.937849
 20
618.321129
 42
0.043373
  0
VERTEX
  8
0
 10
431.587839
 20
621.178098
 42
0.118931
  0
VERTEX
  8
0
 10
430.718197
 20
623.000000
 42
0.163163
  0
VERTEX
  8
0
 10
429.088246
 20
624.033805
 42
0.035940
  0
VERTEX
  8
0
 10
425.777709
 20
624.601748
 42
0.017323
  0
VERTEX
  8
0
 10
419.969182
 20
624.970561
 42
0.002297
  0
VERTEX
  8
0
 10
407.660276
 20
625.268164
 42
0.000000
  0
VERTEX
  8
0
 10
395.820551
 20
625.500000
 42
0.000000
  0
VERTEX
  8
0
 10
396.489870
 20
631.750000
 42
0.010685
  0
VERTEX
  8
0
 10
396.729141
 20
634.547753
 42
0.032385
  0
VERTEX
  8
0
 10
396.727609
 20
636.457690
 42
0.049923
  0
VERTEX
  8
0
 10
396.527435
 20
637.657524
 42
0.338541
  0
VERTEX
  8
0
 10
396.079594
 20
638.000000
 42
-0.097089
  0
VERTEX
  8
0
 10
395.667548
 20
638.080772
 42
-0.097465
  0
VERTEX
  8
0
 10
395.317131
 20
638.311086
 42
-0.098390
  0
VERTEX
  8
0
 10
395.082494
 20
638.654886
 42
-0.101022
  0
VERTEX
  8
0
 10
395.000000
 20
639.059017
 42
-0.108972
  0
VERTEX
  8
0
 10
395.078288
 20
639.413961
 42
-0.182303
  0
VERTEX
  8
0
 10
395.293750
 20
639.625400
 42
-0.161196
  0
VERTEX
  8
0
 10
395.617900
 20
639.656512
 42
-0.082592
  0
VERTEX
  8
0
 10
396.000000
 20
639.500000
 42
0.177037
  0
VERTEX
  8
0
 10
396.378577
 20
639.422023
 42
0.188488
  0
VERTEX
  8
0
 10
396.706250
 20
639.609600
 42
0.116412
  0
VERTEX
  8
0
 10
396.927986
 20
640.072766
 42
0.053730
  0
VERTEX
  8
0
 10
397.000000
 20
640.740983
 42
-0.044088
  0
VERTEX
  8
0
 10
397.069041
 20
641.522454
 42
-0.036437
  0
VERTEX
  8
0
 10
397.275205
 20
642.332976
 42
-0.037849
  0
VERTEX
  8
0
 10
397.577469
 20
643.052744
 42
-0.076447
  0
VERTEX
  8
0
 10
397.936868
 20
643.550000
 42
0.118247
  0
VERTEX
  8
0
 10
398.319469
 20
644.183899
 42
0.020548
  0
VERTEX
  8
0
 10
398.690514
 20
645.542812
 42
0.021324
  0
VERTEX
  8
0
 10
398.998280
 20
647.207488
 42
0.017677
  0
VERTEX
  8
0
 10
399.186868
 20
649.000000
 42
-0.014753
  0
VERTEX
  8
0
 10
399.465819
 20
651.809147
 42
-0.137052
  0
VERTEX
  8
0
 10
399.937154
 20
652.921209
 42
-0.177578
  0
VERTEX
  8
0
 10
400.866476
 20
653.485893
 42
-0.028638
  0
VERTEX
  8
0
 10
403.000000
 20
653.780590
 42
0.031246
  0
VERTEX
  8
0
 10
405.616361
 20
654.155884
 42
0.035534
  0
VERTEX
  8
0
 10
408.052324
 20
654.845763
 42
0.025072
  0
VERTEX
  8
0
 10
410.968995
 20
656.069127
 42
0.007320
  0
VERTEX
  8
0
 10
415.326373
 20
658.238440
 42
-0.010630
  0
VERTEX
  8
0
 10
416.987160
 20
659.051590
 42
-0.008427
  0
VERTEX
  8
0
 10
418.814126
 20
659.861324
 42
-0.008534
  0
VERTEX
  8
0
 10
420.534713
 20
660.555089
 42
-0.020986
  0
VERTEX
  8
0
 10
421.826373
 20
660.989218
 42
-0.059807
  0
VERTEX
  8
0
 10
424.502905
 20
661.428855
 42
-0.019667
  0
VERTEX
  8
0
 10
428.500481
 20
661.444853
 42
-0.014186
  0
VERTEX
  8
0
 10
432.429927
 20
661.194223
 42
-0.175090
  0
SEQEND
  0
POLYLINE
  8
0
 66
1
 70
1
  0
VERTEX
  8
0
 10
488.106165
 20
621.988390
 42
-0.008345
  0
VERTEX
  8
0
 10
486.597753
 20
618.764607
 42
-0.075731
  0
VERTEX
  8
0
 10
485.716094
 20
617.490987
 42
-0.543285
  0
VERTEX
  8
0
 10
485.223100
 20
617.581322
 42
-0.098876
  0
VERTEX
  8
0
 10
485.000000
 20
618.698475
 42
-0.115139
  0
VERTEX
  8
0
 10
485.388910
 20
620.364961
 42
-0.024039
  0
VERTEX
  8
0
 10
486.854682
 20
623.006424
 42
-0.019299
  0
VERTEX
  8
0
 10
488.535069
 20
625.498478
 42
-0.239142
  0
VERTEX
  8
0
 10
489.523688
 20
626.000000
 42
-0.508430
  0
VERTEX
  8
0
 10
489.617395
 20
625.871494
 42
-0.007245
  0
VERTEX
  8
0
 10
489.263433
 20
624.821590
 42
-0.012942
  0
VERTEX
  8
0
 10
488.767978
 20
623.527110
 42
-0.007381
  0
SEQEND
  0
POLYLINE
  8
0
 66
1
 70
1
  0
VERTEX
  8
0
 10
399.000000
 20
623.000000
 42
-0.148195
  0
VERTEX
  8
0
 10
398.884432
 20
622.618646
 42
-0.098894
  0
VERTEX
  8
0
 10
398.559375
 20
622.293750
 42
-0.082425
  0
VERTEX
  8
0
 10
398.073457
 20
622.074694
 42
-0.064853
  0
VERTEX
  8
0
 10
397.500000
 20
622.000000
 42
-0.064853
  0
VERTEX
  8
0
 10
396.926543
 20
622.074694
 42
-0.082425
  0
VERTEX
  8
0
 10
396.440625
 20
622.293750
 42
-0.098894
  0
VERTEX
  8
0
 10
396.115568
 20
622.618646
 42
-0.148195
  0
VERTEX
  8
0
 10
396.000000
 20
623.000000
 42
-0.148195
  0
VERTEX
  8
0
 10
396.115568
 20
623.381354
 42
-0.098894
  0
VERTEX
  8
0
 10
396.440625
 20
623.706250
 42
-0.082425
  0
VERTEX
  8
0
 10
396.926543
 20
623.925306
 42
-0.064853
  0
VERTEX
  8
0
 10
397.500000
 20
624.000000
 42
-0.064853
  0
VERTEX
  8
0
 10
398.073457
 20
623.925306
 42
-0.082425
  0
VERTEX
  8
0
 10
398.559375
 20
623.706250
 42
-0.098894
  0
VERTEX
  8
0
 10
398.884432
 20
623.381354
 42
-0.148195
  0
SEQEND
  0
POLYLINE
  8
0
 66
1
 70
1
  0
VERTEX
  8
0
 10
390.533699
 20
616.417386
 42
-0.015740
  0
VERTEX
  8
0
 10
389.946974
 20
615.373774
 42
-0.046075
  0
VERTEX
  8
0
 10
389.457416
 20
614.710348
 42
-0.185334
  0
VERTEX
  8
0
 10
389.166415
 20
614.560151
 42
-0.445266
  0
VERTEX
  8
0
 10
389.006161
 20
614.702947
 42
-0.087217
  0
VERTEX
  8
0
 10
389.282775
 20
616.325364
 42
-0.028210
  0
VERTEX
  8
0
 10
390.233446
 20
618.578494
 42
-0.033325
  0
VERTEX
  8
0
 10
391.251132
 20
620.346469
 42
-0.623790
  0
VERTEX
  8
0
 10
391.739731
 20
620.280807
 42
-0.132727
  0
VERTEX
  8
0
 10
391.771113
 20
619.738831
 42
-0.024132
  0
VERTEX
  8
0
 10
391.515539
 20
618.755688
 42
-0.024478
  0
VERTEX
  8
0
 10
391.093033
 20
617.603695
 42
-0.020056
  0
SEQEND
  0
POLYLINE
  8
0
 66
1
 70
1
  0
VERTEX
  8
0
 10
456.324110
 20
614.597766
 42
-0.082586
  0
VERTEX
  8
0
 10
456.545735
 20
613.513423
 42
-0.168008
  0
VERTEX
  8
0
 10
456.295046
 20
612.691662
 42
-0.233756
  0
VERTEX
  8
0
 10
455.672694
 20
612.365657
 42
-0.145217
  0
VERTEX
  8
0
 10
454.860520
 20
612.586203
 42
-0.166742
  0
VERTEX
  8
0
 10
454.233457
 20
613.350977
 42
-0.091719
  0
VERTEX
  8
0
 10
454.022312
 20
614.556368
 42
-0.109940
  0
VERTEX
  8
0
 10
454.266365
 20
615.605693
 42
-0.288442
  0
VERTEX
  8
0
 10
454.893011
 20
616.000000
 42
-0.131830
  0
VERTEX
  8
0
 10
455.274298
 20
615.897692
 42
-0.062811
  0
VERTEX
  8
0
 10
455.681764
 20
615.588094
 42
-0.055794
  0
VERTEX
  8
0
 10
456.051993
 20
615.134097
 42
-0.051604
  0
SEQEND
  0
POLYLINE
  8
0
 66
1
 70
1
  0
VERTEX
  8
0
 10
440.828741
 20
573.000000
 42
-0.093420
  0
VERTEX
  8
0
 10
441.275840
 20
572.915728
 42
-0.096446
  0
VERTEX
  8
0
 10
441.655943
 20
572.674822
 42
-0.099150
  0
VERTEX
  8
0
 10
441.910350
 20
572.315391
 42
-0.104956
  0
VERTEX
  8
0
 10
442.000000
 20
571.893011
 42
0.156595
  0
VERTEX
  8
0
 10
442.120194
 20
571.518648
 42
0.152088
  0
VERTEX
  8
0
 10
442.437101
 20
571.278932
 42
0.112989
  0
VERTEX
  8
0
 10
442.918727
 20
571.220509
 42
0.065618
  0
VERTEX
  8
0
 10
443.488004
 20
571.357023
 42
-0.199158
  0
VERTEX
  8
0
 10
444.391238
 20
571.332843
 42
-0.348377
  0
VERTEX
  8
0
 10
444.718003
 20
570.705806
 42
-0.146498
  0
VERTEX
  8
0
 10
444.158565
 20
569.633790
 42
-0.093629
  0
VERTEX
  8
0
 10
443.000000
 20
568.820285
 42
-0.074969
  0
VERTEX
  8
0
 10
440.769810
 20
568.189096
 42
-0.044958
  0
VERTEX
  8
0
 10
438.013135
 20
568.088998
 42
-0.044718
  0
VERTEX
  8
0
 10
435.641244
 20
568.430356
 42
-0.344267
  0
VERTEX
  8
0
 10
434.984687
 20
569.250000
 42
0.052305
  0
VERTEX
  8
0
 10
434.927367
 20
569.738674
 42
0.409488
  0
VERTEX
  8
0
 10
434.753019
 20
569.850967
 42
0.183172
  0
VERTEX
  8
0
 10
434.485123
 20
569.680219
 42
0.019230
  0
VERTEX
  8
0
 10
434.056301
 20
569.056856
 42
-0.079220
  0
VERTEX
  8
0
 10
433.478167
 20
568.400641
 42
-0.149352
  0
VERTEX
  8
0
 10
432.832376
 20
568.132200
 42
-0.104189
  0
VERTEX
  8
0
 10
431.980804
 20
568.226419
 42
-0.027433
  0
VERTEX
  8
0
 10
430.696610
 20
568.728465
 42
0.057947
  0
VERTEX
  8
0
 10
429.482106
 20
569.119865
 42
0.025913
  0
VERTEX
  8
0
 10
427.818219
 20
569.361449
 42
0.025230
  0
VERTEX
  8
0
 10
426.012423
 20
569.437194
 42
0.031211
  0
VERTEX
  8
0
 10
424.333506
 20
569.317907
 42
-0.023927
  0
VERTEX
  8
0
 10
422.317085
 20
569.145107
 42
-0.070458
  0
VERTEX
  8
0
 10
420.935685
 20
569.287954
 42
-0.095477
  0
VERTEX
  8
0
 10
419.895056
 20
569.770383
 42
-0.072817
  0
VERTEX
  8
0
 10
418.991477
 20
570.646298
 42
-0.008818
  0
VERTEX
  8
0
 10
418.492210
 20
571.319772
 42
-0.040205
  0
VERTEX
  8
0
 10
418.241726
 20
571.737711
 42
-0.549888
  0
VERTEX
  8
0
 10
418.287607
 20
571.813228
 42
-0.182537
  0
VERTEX
  8
0
 10
418.440958
 20
571.758676
 42
0.141285
  0
VERTEX
  8
0
 10
418.879369
 20
571.561758
 42
0.080155
  0
VERTEX
  8
0
 10
419.465608
 20
571.572618
 42
0.069072
  0
VERTEX
  8
0
 10
420.105805
 20
571.782227
 42
0.059667
  0
VERTEX
  8
0
 10
420.700372
 20
572.166294
 42
-0.050555
  0
VERTEX
  8
0
 10
421.404052
 20
572.639182
 42
-0.116823
  0
VERTEX
  8
0
 10
422.016058
 20
572.800735
 42
-0.131266
  0
VERTEX
  8
0
 10
422.589129
 20
572.663198
 42
-0.072329
  0
VERTEX
  8
0
 10
423.170712
 20
572.229288
 42
0.083681
  0
VERTEX
  8
0
 10
423.777823
 20
571.797308
 42
0.117534
  0
VERTEX
  8
0
 10
424.424666
 20
571.654388
 42
0.095065
  0
VERTEX
  8
0
 10
425.167517
 20
571.809694
 42
0.040670
  0
VERTEX
  8
0
 10
426.072391
 20
572.277282
 42
-0.059766
  0
VERTEX
  8
0
 10
427.081538
 20
572.750962
 42
-0.126924
  0
VERTEX
  8
0
 10
427.936485
 20
572.808304
 42
-0.104812
  0
VERTEX
  8
0
 10
428.818648
 20
572.441152
 42
-0.033090
  0
VERTEX
  8
0
 10
429.944061
 20
571.550624
 42
0.007108
  0
VERTEX
  8
0
 10
431.244295
 20
570.407125
 42
0.166308
  0
VERTEX
  8
0
 10
431.694297
 20
570.228674
 42
0.396124
  0
VERTEX
  8
0
 10
431.944351
 20
570.442037
 42
0.027529
  0
VERTEX
  8
0
 10
432.000000
 20
571.452001
 42
-0.064787
  0
VERTEX
  8
0
 10
432.092961
 20
572.166425
 42
-0.155693
  0
VERTEX
  8
0
 10
432.376683
 20
572.611326
 42
-0.177911
  0
VERTEX
  8
0
 10
432.835792
 20
572.774795
 42
-0.089319
  0
VERTEX
  8
0
 10
433.448808
 20
572.658018
 42
0.119860
  0
VERTEX
  8
0
 10
434.087290
 20
572.575956
 42
0.125863
  0
VERTEX
  8
0
 10
434.679257
 20
572.799562
 42
0.102990
  0
VERTEX
  8
0
 10
435.176866
 20
573.329479
 42
0.060418
  0
VERTEX
  8
0
 10
435.539374
 20
574.124056
 42
-0.024500
  0
VERTEX
  8
0
 10
435.968019
 20
575.275680
 42
-0.249764
  0
VERTEX
  8
0
 10
436.352528
 20
575.584063
 42
-0.215325
  0
VERTEX
  8
0
 10
436.863113
 20
575.460350
 42
-0.018421
  0
VERTEX
  8
0
 10
437.919306
 20
574.573027
 42
0.030105
  0
VERTEX
  8
0
 10
438.670840
 20
573.971021
 42
0.029893
  0
VERTEX
  8
0
 10
439.490950
 20
573.462077
 42
0.031312
  0
VERTEX
  8
0
 10
440.259907
 20
573.106581
 42
0.092875
  0
SEQEND
  0
POLYLINE
  8
0
 66
1
 70
1
  0
VERTEX
  8
0
 10
423.418213
 20
565.393011
 42
-0.070559
  0
VERTEX
  8
0
 10
424.022934
 20
565.056902
 42
-0.063449
  0
VERTEX
  8
0
 10
424.535350
 20
564.555128
 42
-0.066819
  0
VERTEX
  8
0
 10
424.882170
 20
563.970895
 42
-0.100912
  0
VERTEX
  8
0
 10
425.000000
 20
563.393011
 42
0.074425
  0
VERTEX
  8
0
 10
425.079668
 20
562.860757
 42
0.088446
  0
VERTEX
  8
0
 10
425.311086
 20
562.409197
 42
0.100652
  0
VERTEX
  8
0
 10
425.655159
 20
562.107332
 42
0.130616
  0
VERTEX
  8
0
 10
426.059017
 20
562.000000
 42
-0.108972
  0
VERTEX
  8
0
 10
426.413961
 20
561.921712
 42
-0.182303
  0
VERTEX
  8
0
 10
426.625400
 20
561.706250
 42
-0.161196
  0
VERTEX
  8
0
 10
426.656512
 20
561.382100
 42
-0.082592
  0
VERTEX
  8
0
 10
426.500000
 20
561.000000
 42
0.093667
  0
VERTEX
  8
0
 10
426.353415
 20
560.618437
 42
0.171987
  0
VERTEX
  8
0
 10
426.406028
 20
560.293750
 42
0.173661
  0
VERTEX
  8
0
 10
426.650630
 20
560.076773
 42
0.095723
  0
VERTEX
  8
0
 10
427.047972
 20
560.000000
 42
-0.156134
  0
VERTEX
  8
0
 10
427.461783
 20
559.867551
 42
-0.167795
  0
VERTEX
  8
0
 10
427.707267
 20
559.522797
 42
-0.112248
  0
VERTEX
  8
0
 10
427.741654
 20
558.975232
 42
-0.051437
  0
VERTEX
  8
0
 10
427.554136
 20
558.280481
 42
0.019204
  0
VERTEX
  8
0
 10
427.342471
 20
557.658478
 42
0.082770
  0
VERTEX
  8
0
 10
427.294139
 20
557.272086
 42
0.419736
  0
VERTEX
  8
0
 10
427.401470
 20
557.175012
 42
0.183481
  0
VERTEX
  8
0
 10
427.595626
 20
557.262293
 42
-0.223819
  0
VERTEX
  8
0
 10
427.983062
 20
557.401534
 42
-0.081529
  0
VERTEX
  8
0
 10
428.561388
 20
557.248888
 42
-0.060834
  0
VERTEX
  8
0
 10
429.233908
 20
556.843677
 42
-0.040189
  0
VERTEX
  8
0
 10
429.898479
 20
556.231812
 42
0.078499
  0
VERTEX
  8
0
 10
431.866355
 20
554.679823
 42
0.040720
  0
VERTEX
  8
0
 10
434.718650
 20
553.372677
 42
0.037327
  0
VERTEX
  8
0
 10
437.444778
 20
552.607320
 42
0.313808
  0
VERTEX
  8
0
 10
438.554694
 20
553.088496
 42
-0.138560
  0
VERTEX
  8
0
 10
438.937601
 20
553.439430
 42
-0.043006
  0
VERTEX
  8
0
 10
439.669591
 20
553.732246
 42
-0.039277
  0
VERTEX
  8
0
 10
440.583332
 20
553.932795
 42
-0.034399
  0
VERTEX
  8
0
 10
441.559017
 20
554.000000
 42
0.039649
  0
VERTEX
  8
0
 10
442.493688
 20
554.074234
 42
0.058877
  0
VERTEX
  8
0
 10
443.282961
 20
554.297891
 42
0.077433
  0
VERTEX
  8
0
 10
443.820140
 20
554.625988
 42
0.220453
  0
VERTEX
  8
0
 10
444.000000
 20
555.014096
 42
-0.153856
  0
VERTEX
  8
0
 10
444.175079
 20
555.569600
 42
-0.018823
  0
VERTEX
  8
0
 10
444.954687
 20
556.598800
 42
-0.020869
  0
VERTEX
  8
0
 10
446.005373
 20
557.778423
 42
-0.015815
  0
VERTEX
  8
0
 10
447.250000
 20
558.984783
 42
0.018493
  0
VERTEX
  8
0
 10
448.411921
 20
560.123110
 42
0.042148
  0
VERTEX
  8
0
 10
449.178125
 20
561.081486
 42
0.091092
  0
VERTEX
  8
0
 10
449.450982
 20
561.711867
 42
0.475114
  0
VERTEX
  8
0
 10
449.250000
 20
561.970687
 42
-0.150177
  0
VERTEX
  8
0
 10
448.281871
 20
562.293204
 42
-0.363413
  0
VERTEX
  8
0
 10
448.105712
 20
562.971904
 42
-0.135161
  0
VERTEX
  8
0
 10
448.932797
 20
563.930485
 42
-0.040694
  0
VERTEX
  8
0
 10
450.629666
 20
564.877126
 42
-0.031702
  0
VERTEX
  8
0
 10
452.099967
 20
565.437516
 42
-0.104791
  0
VERTEX
  8
0
 10
453.126545
 20
565.532166
 42
-0.114018
  0
VERTEX
  8
0
 10
454.053921
 20
565.200008
 42
-0.041167
  0
VERTEX
  8
0
 10
455.172701
 20
564.343708
 42
0.003417
  0
VERTEX
  8
0
 10
456.441209
 20
563.211395
 42
0.227689
  0
VERTEX
  8
0
 10
456.714241
 20
563.134610
 42
0.457706
  0
VERTEX
  8
0
 10
456.816514
 20
563.305725
 42
0.006736
  0
VERTEX
  8
0
 10
456.383705
 20
564.556067
 42
-0.021105
  0
VERTEX
  8
0
 10
456.161595
 20
565.262777
 42
-0.077468
  0
VERTEX
  8
0
 10
456.111347
 20
565.727607
 42
-0.339384
  0
VERTEX
  8
0
 10
456.231918
 20
565.870370
 42
-0.241547
  0
VERTEX
  8
0
 10
456.442828
 20
565.814509
 42
-0.133597
  0
VERTEX
  8
0
 10
456.762325
 20
565.318508
 42
-0.017698
  0
VERTEX
  8
0
 10
457.099951
 20
564.104406
 42
-0.019484
  0
VERTEX
  8
0
 10
457.399268
 20
562.603789
 42
-0.015224
  0
VERTEX
  8
0
 10
457.610522
 20
560.955484
 42
0.011949
  0
VERTEX
  8
0
 10
457.814134
 20
559.279841
 42
0.013834
  0
VERTEX
  8
0
 10
458.090011
 20
557.696282
 42
0.012925
  0
VERTEX
  8
0
 10
458.393783
 20
556.375104
 42
0.075576
  0
VERTEX
  8
0
 10
458.672409
 20
555.721036
 42
-0.086459
  0
VERTEX
  8
0
 10
458.830176
 20
555.327282
 42
-0.346443
  0
VERTEX
  8
0
 10
458.722911
 20
555.109913
 42
-0.172912
  0
VERTEX
  8
0
 10
458.369246
 20
555.073375
 42
-0.031740
  0
VERTEX
  8
0
 10
457.732571
 20
555.272381
 42
0.055696
  0
VERTEX
  8
0
 10
456.993669
 20
555.465097
 42
0.240784
  0
VERTEX
  8
0
 10
456.577473
 20
555.323135
 42
0.202472
  0
VERTEX
  8
0
 10
456.403488
 20
554.874517
 42
0.040191
  0
VERTEX
  8
0
 10
456.500000
 20
554.000000
 42
-0.041736
  0
VERTEX
  8
0
 10
456.589198
 20
553.168223
 42
-0.176361
  0
VERTEX
  8
0
 10
456.431326
 20
552.700812
 42
-0.242513
  0
VERTEX
  8
0
 10
456.052515
 20
552.531602
 42
-0.077823
  0
VERTEX
  8
0
 10
455.431474
 20
552.664669
 42
0.092713
  0
VERTEX
  8
0
 10
454.828909
 20
552.775259
 42
0.177887
  0
VERTEX
  8
0
 10
454.374343
 20
552.606502
 42
0.152862
  0
VERTEX
  8
0
 10
454.092361
 20
552.156589
 42
0.064208
  0
VERTEX
  8
0
 10
454.000000
 20
551.440322
 42
-0.029819
  0
VERTEX
  8
0
 10
453.961571
 20
550.796530
 42
-0.077839
  0
VERTEX
  8
0
 10
453.836192
 20
550.351486
 42
-0.197561
  0
VERTEX
  8
0
 10
453.651530
 20
550.179206
 42
-0.294612
  0
VERTEX
  8
0
 10
453.442355
 20
550.224312
 42
0.321243
  0
VERTEX
  8
0
 10
453.055847
 20
550.288169
 42
0.026315
  0
VERTEX
  8
0
 10
452.110764
 20
549.758856
 42
0.027550
  0
VERTEX
  8
0
 10
450.956279
 20
548.937709
 42
0.017109
  0
VERTEX
  8
0
 10
449.692355
 20
547.856705
 42
-0.016443
  0
VERTEX
  8
0
 10
448.229153
 20
546.601883
 42
-0.063172
  0
VERTEX
  8
0
 10
447.208922
 20
545.976623
 42
-0.167073
  0
VERTEX
  8
0
 10
446.570224
 20
545.917335
 42
-0.288172
  0
VERTEX
  8
0
 10
446.211128
 20
546.286829
 42
0.158620
  0
VERTEX
  8
0
 10
445.892275
 20
546.837815
 42
0.111734
  0
VERTEX
  8
0
 10
445.262552
 20
547.189251
 42
0.074942
  0
VERTEX
  8
0
 10
444.310759
 20
547.320347
 42
0.033262
  0
VERTEX
  8
0
 10
443.044107
 20
547.219781
 42
0.048874
  0
VERTEX
  8
0
 10
441.673644
 20
546.879465
 42
0.090136
  0
VERTEX
  8
0
 10
440.680784
 20
546.309864
 42
0.095645
  0
VERTEX
  8
0
 10
439.989248
 20
545.453733
 42
0.060783
  0
VERTEX
  8
0
 10
439.527623
 20
544.254035
 42
-0.026977
  0
VERTEX
  8
0
 10
439.175730
 20
543.115837
 42
-0.126456
  0
VERTEX
  8
0
 10
438.788922
 20
542.556896
 42
-0.259083
  0
VERTEX
  8
0
 10
438.343100
 20
542.463345
 42
-0.121903
  0
VERTEX
  8
0
 10
437.822789
 20
542.777211
 42
0.080343
  0
VERTEX
  8
0
 10
437.312270
 20
543.145586
 42
0.062137
  0
VERTEX
  8
0
 10
436.664744
 20
543.375078
 42
0.062469
  0
VERTEX
  8
0
 10
435.984579
 20
543.437631
 42
0.083529
  0
VERTEX
  8
0
 10
435.378145
 20
543.314866
 42
-0.093797
  0
VERTEX
  8
0
 10
434.843289
 20
543.217892
 42
-0.145169
  0
VERTEX
  8
0
 10
434.397415
 20
543.353870
 42
-0.148440
  0
VERTEX
  8
0
 10
434.104318
 20
543.707742
 42
-0.099579
  0
VERTEX
  8
0
 10
434.000000
 20
544.226345
 42
0.099331
  0
VERTEX
  8
0
 10
433.889712
 20
544.776020
 42
0.098013
  0
VERTEX
  8
0
 10
433.575694
 20
545.243572
 42
0.097876
  0
VERTEX
  8
0
 10
433.106817
 20
545.556724
 42
0.098747
  0
VERTEX
  8
0
 10
432.555556
 20
545.666667
 42
0.038689
  0
VERTEX
  8
0
 10
432.006867
 20
545.624147
 42
0.061286
  0
VERTEX
  8
0
 10
431.553883
 20
545.495312
 42
0.085084
  0
VERTEX
  8
0
 10
431.258443
 20
545.306247
 42
0.239190
  0
VERTEX
  8
0
 10
431.173977
 20
545.083333
 42
-0.032321
  0
VERTEX
  8
0
 10
431.224809
 20
543.894595
 42
-0.200377
  0
VERTEX
  8
0
 10
430.982404
 20
543.347968
 42
-0.392028
  0
VERTEX
  8
0
 10
430.571821
 20
543.343595
 42
-0.067719
  0
VERTEX
  8
0
 10
430.024172
 20
543.995129
 42
0.051114
  0
VERTEX
  8
0
 10
429.454521
 20
544.720257
 42
0.256368
  0
VERTEX
  8
0
 10
428.978672
 20
544.867892
 42
0.162341
  0
VERTEX
  8
0
 10
428.443456
 20
544.559340
 42
0.019711
  0
VERTEX
  8
0
 10
427.571288
 20
543.495129
 42
-0.031307
  0
VERTEX
  8
0
 10
426.503259
 20
542.251850
 42
-0.555746
  0
VERTEX
  8
0
 10
426.078692
 20
542.345013
 42
-0.191938
  0
VERTEX
  8
0
 10
426.111172
 20
543.178278
 42
-0.018295
  0
VERTEX
  8
0
 10
427.023139
 20
545.043236
 42
0.014356
  0
VERTEX
  8
0
 10
427.545977
 20
546.091427
 42
0.233510
  0
VERTEX
  8
0
 10
427.536489
 20
546.473627
 42
0.351914
  0
VERTEX
  8
0
 10
427.248789
 20
546.598815
 42
0.025022
  0
VERTEX
  8
0
 10
426.359094
 20
546.307556
 42
-0.025444
  0
VERTEX
  8
0
 10
425.622821
 20
546.067209
 42
-0.192656
  0
VERTEX
  8
0
 10
425.266812
 20
546.108690
 42
-0.361459
  0
VERTEX
  8
0
 10
425.171471
 20
546.347074
 42
-0.060158
  0
VERTEX
  8
0
 10
425.394972
 20
546.830061
 42
0.035198
  0
VERTEX
  8
0
 10
425.630596
 20
547.279131
 42
0.075302
  0
VERTEX
  8
0
 10
425.731957
 20
547.656330
 42
0.145201
  0
VERTEX
  8
0
 10
425.688553
 20
547.900130
 42
0.283829
  0
VERTEX
  8
0
 10
425.526793
 20
548.000000
 42
0.219371
  0
VERTEX
  8
0
 10
425.244416
 20
547.869846
 42
0.030094
  0
VERTEX
  8
0
 10
424.843564
 20
547.339062
 42
0.029981
  0
VERTEX
  8
0
 10
424.420669
 20
546.611827
 42
0.021149
  0
VERTEX
  8
0
 10
424.031162
 20
545.750000
 42
0.000000
  0
VERTEX
  8
0
 10
423.126773
 20
543.500000
 42
0.000000
  0
VERTEX
  8
0
 10
423.063386
 20
545.775000
 42
0.073701
  0
VERTEX
  8
0
 10
422.866393
 20
546.889214
 42
0.124381
  0
VERTEX
  8
0
 10
422.357639
 20
547.683607
 42
0.101316
  0
VERTEX
  8
0
 10
421.447560
 20
548.243764
 42
0.038119
  0
VERTEX
  8
0
 10
420.000000
 20
548.650000
 42
-0.056913
  0
VERTEX
  8
0
 10
418.264980
 20
549.207879
 42
-0.144704
  0
VERTEX
  8
0
 10
417.273564
 20
550.063855
 42
-0.119480
  0
VERTEX
  8
0
 10
416.798074
 20
551.437089
 42
-0.032887
  0
VERTEX
  8
0
 10
416.729561
 20
553.739238
 42
0.049737
  0
VERTEX
  8
0
 10
416.701129
 20
554.187129
 42
0.111257
  0
VERTEX
  8
0
 10
416.573934
 20
554.501568
 42
0.191471
  0
VERTEX
  8
0
 10
416.374229
 20
554.634254
 42
0.189942
  0
VERTEX
  8
0
 10
416.137095
 20
554.594198
 42
-0.199803
  0
VERTEX
  8
0
 10
415.802109
 20
554.544140
 42
-0.059345
  0
VERTEX
  8
0
 10
415.308378
 20
554.732595
 42
-0.049269
  0
VERTEX
  8
0
 10
414.750964
 20
555.099100
 42
-0.036172
  0
VERTEX
  8
0
 10
414.210573
 20
555.604960
 42
-0.037461
  0
VERTEX
  8
0
 10
413.784560
 20
556.141371
 42
-0.099645
  0
VERTEX
  8
0
 10
413.596028
 20
556.590207
 42
-0.223720
  0
VERTEX
  8
0
 10
413.665962
 20
556.874556
 42
-0.226100
  0
VERTEX
  8
0
 10
413.929189
 20
557.000000
 42
0.198175
  0
VERTEX
  8
0
 10
414.259375
 20
557.136219
 42
0.143406
  0
VERTEX
  8
0
 10
414.453543
 20
557.488813
 42
0.094436
  0
VERTEX
  8
0
 10
414.469783
 20
558.026662
 42
0.052117
  0
VERTEX
  8
0
 10
414.298676
 20
558.664045
 42
-0.026179
  0
VERTEX
  8
0
 10
414.063986
 20
559.386586
 42
-0.196415
  0
VERTEX
  8
0
 10
414.108364
 20
559.736436
 42
-0.357523
  0
VERTEX
  8
0
 10
414.347692
 20
559.829264
 42
-0.059284
  0
VERTEX
  8
0
 10
414.830061
 20
559.605028
 42
0.123606
  0
VERTEX
  8
0
 10
415.320712
 20
559.449150
 42
0.232351
  0
VERTEX
  8
0
 10
415.695741
 20
559.605484
 42
0.139243
  0
VERTEX
  8
0
 10
415.930115
 20
560.100064
 42
0.041481
  0
VERTEX
  8
0
 10
416.000000
 20
560.940983
 42
0.046600
  0
VERTEX
  8
0
 10
415.926392
 20
561.729059
 42
0.066561
  0
VERTEX
  8
0
 10
415.706250
 20
562.395164
 42
0.086673
  0
VERTEX
  8
0
 10
415.381985
 20
562.844577
 42
0.195654
  0
VERTEX
  8
0
 10
415.000000
 20
563.000000
 42
-0.148195
  0
VERTEX
  8
0
 10
414.618646
 20
563.115568
 42
-0.098894
  0
VERTEX
  8
0
 10
414.293750
 20
563.440625
 42
-0.082425
  0
VERTEX
  8
0
 10
414.074694
 20
563.926543
 42
-0.064853
  0
VERTEX
  8
0
 10
414.000000
 20
564.500000
 42
-0.174578
  0
VERTEX
  8
0
 10
414.245820
 20
565.182583
 42
-0.129170
  0
VERTEX
  8
0
 10
414.903035
 20
565.654293
 42
-0.070529
  0
VERTEX
  8
0
 10
416.076633
 20
565.922641
 42
-0.020994
  0
VERTEX
  8
0
 10
417.918213
 20
566.000000
 42
-0.013799
  0
VERTEX
  8
0
 10
419.534316
 20
565.955391
 42
-0.013682
  0
VERTEX
  8
0
 10
421.150100
 20
565.821697
 42
-0.013659
  0
VERTEX
  8
0
 10
422.555263
 20
565.627643
 42
-0.050508
  0
SEQEND
  0
POLYLINE
  8
0
 66
1
 70
1
  0
VERTEX
  8
0
 10
443.998428
 20
564.298146
 42
-0.323409
  0
VERTEX
  8
0
 10
444.054331
 20
564.019624
 42
-0.057561
  0
VERTEX
  8
0
 10
443.763404
 20
563.537021
 42
-0.043456
  0
VERTEX
  8
0
 10
443.228646
 20
562.956457
 42
-0.025452
  0
VERTEX
  8
0
 10
442.498428
 20
562.355383
 42
-0.069333
  0
VERTEX
  8
0
 10
441.313855
 20
561.709238
 42
-0.058797
  0
VERTEX
  8
0
 10
439.929220
 20
561.365323
 42
-0.046212
  0
VERTEX
  8
0
 10
438.216061
 20
561.307679
 42
-0.021815
  0
VERTEX
  8
0
 10
436.013175
 20
561.533931
 42
-0.032557
  0
VERTEX
  8
0
 10
432.952172
 20
562.189766
 42
-0.021914
  0
VERTEX
  8
0
 10
429.557784
 20
563.314545
 42
-0.013528
  0
VERTEX
  8
0
 10
426.502474
 20
564.573495
 42
-0.296478
  0
VERTEX
  8
0
 10
426.000000
 20
565.346415
 42
-0.430390
  0
VERTEX
  8
0
 10
426.341191
 20
565.669366
 42
-0.000816
  0
VERTEX
  8
0
 10
434.793766
 20
565.190907
 42
-0.001263
  0
VERTEX
  8
0
 10
443.092986
 20
564.686501
 42
-0.172661
  0
SEQEND
  0
POLYLINE
  8
0
 66
1
 70
1
  0
VERTEX
  8
0
 10
442.457295
 20
545.069098
 42
-0.108373
  0
VERTEX
  8
0
 10
442.598899
 20
544.665803
 42
-0.099685
  0
VERTEX
  8
0
 10
442.565079
 20
544.227140
 42
-0.095498
  0
VERTEX
  8
0
 10
442.360589
 20
543.820631
 42
-0.090427
  0
VERTEX
  8
0
 10
442.016312
 20
543.510081
 42
-0.136093
  0
VERTEX
  8
0
 10
441.630360
 20
543.397824
 42
-0.190788
  0
VERTEX
  8
0
 10
441.298542
 20
543.524436
 42
-0.140899
  0
VERTEX
  8
0
 10
441.074611
 20
543.890269
 42
-0.067432
  0
VERTEX
  8
0
 10
441.000000
 20
544.440983
 42
-0.039415
  0
VERTEX
  8
0
 10
441.085158
 20
545.519563
 42
-0.257010
  0
VERTEX
  8
0
 10
441.407182
 20
545.933879
 42
-0.315493
  0
VERTEX
  8
0
 10
441.866860
 20
545.838655
 42
-0.050477
  0
SEQEND
  0
POLYLINE
  8
0
 66
1
 70
1
  0
VERTEX
  8
0
 10
381.000000
 20
685.000000
 42
0.018363
  0
VERTEX
  8
0
 10
380.624831
 20
684.232522
 42
0.035050
  0
VERTEX
  8
0
 10
380.390928
 20
683.587500
 42
0.048507
  0
VERTEX
  8
0
 10
380.307737
 20
683.132581
 42
0.439016
  0
VERTEX
  8
0
 10
380.429632
 20
683.000000
 42
0.205392
  0
VERTEX
  8
0
 10
380.683068
 20
683.108693
 42
0.023718
  0
VERTEX
  8
0
 10
381.097178
 20
683.587500
 42
0.025446
  0
VERTEX
  8
0
 10
381.553569
 20
684.233921
 42
0.018122
  0
VERTEX
  8
0
 10
382.000000
 20
685.000000
 42
0.018363
  0
VERTEX
  8
0
 10
382.375169
 20
685.767478
 42
0.035050
  0
VERTEX
  8
0
 10
382.609072
 20
686.412500
 42
0.048507
  0
VERTEX
  8
0
 10
382.692263
 20
686.867419
 42
0.439016
  0
VERTEX
  8
0
 10
382.570368
 20
687.000000
 42
0.205392
  0
VERTEX
  8
0
 10
382.316932
 20
686.891307
 42
0.023718
  0
VERTEX
  8
0
 10
381.902822
 20
686.412500
 42
0.025446
  0
VERTEX
  8
0
 10
381.446431
 20
685.766079
 42
0.018122
  0
SEQEND
  0
POLYLINE
  8
0
 66
1
 70
1
  0
VERTEX
  8
0
 10
382.564293
 20
680.293128
 42
0.008399
  0
VERTEX
  8
0
 10
382.218210
 20
679.336218
 42
0.286372
  0
VERTEX
  8
0
 10
382.270328
 20
679.111181
 42
0.400052
  0
VERTEX
  8
0
 10
382.463552
 20
679.106486
 42
0.011214
  0
VERTEX
  8
0
 10
383.124088
 20
679.733333
 42
0.043285
  0
VERTEX
  8
0
 10
383.558688
 20
680.246577
 42
0.063152
  0
VERTEX
  8
0
 10
383.837219
 20
680.768815
 42
0.082976
  0
VERTEX
  8
0
 10
383.927901
 20
681.220211
 42
0.207420
  0
VERTEX
  8
0
 10
383.806872
 20
681.526461
 42
0.278911
  0
VERTEX
  8
0
 10
383.538684
 20
681.592490
 42
0.120343
  0
VERTEX
  8
0
 10
383.210949
 20
681.395085
 42
0.070189
  0
VERTEX
  8
0
 10
382.866277
 20
680.940734
 42
0.036269
  0
SEQEND
  0
POLYLINE
  8
0
 66
1
 70
1
  0
VERTEX
  8
0
 10
377.780087
 20
630.629931
 42
0.023511
  0
VERTEX
  8
0
 10
377.643670
 20
629.674828
 42
0.054436
  0
VERTEX
  8
0
 10
377.653731
 20
628.951586
 42
0.123209
  0
VERTEX
  8
0
 10
377.799346
 20
628.573759
 42
0.396902
  0
VERTEX
  8
0
 10
378.039672
 20
628.524519
 42
-0.364809
  0
VERTEX
  8
0
 10
378.754944
 20
628.419313
 42
-0.071804
  0
VERTEX
  8
0
 10
379.525338
 20
627.248002
 42
-0.059287
  0
VERTEX
  8
0
 10
380.063772
 20
625.623144
 42
-0.091849
  0
VERTEX
  8
0
 10
380.090838
 20
624.149648
 42
0.066516
  0
VERTEX
  8
0
 10
380.075681
 20
623.675915
 42
0.175075
  0
VERTEX
  8
0
 10
380.220520
 20
623.374145
 42
0.227686
  0
VERTEX
  8
0
 10
380.491867
 20
623.281527
 42
0.109121
  0
VERTEX
  8
0
 10
380.847708
 20
623.405878
 42
-0.123393
  0
VERTEX
  8
0
 10
381.267679
 20
623.539495
 42
-0.114035
  0
VERTEX
  8
0
 10
381.714594
 20
623.465260
 42
-0.102483
  0
VERTEX
  8
0
 10
382.120405
 20
623.190038
 42
-0.082841
  0
VERTEX
  8
0
 10
382.420572
 20
622.756231
 42
0.272420
  0
VERTEX
  8
0
 10
382.567056
 20
622.656257
 42
0.431750
  0
VERTEX
  8
0
 10
382.668334
 20
622.750268
 42
0.039685
  0
VERTEX
  8
0
 10
382.620271
 20
623.417706
 42
0.009813
  0
VERTEX
  8
0
 10
382.433551
 20
624.500000
 42
0.031230
  0
VERTEX
  8
0
 10
382.083456
 20
625.854637
 42
0.017412
  0
VERTEX
  8
0
 10
381.498664
 20
627.455840
 42
0.017315
  0
VERTEX
  8
0
 10
380.791800
 20
629.040333
 42
0.026781
  0
VERTEX
  8
0
 10
380.063199
 20
630.349669
 42
0.000000
  0
VERTEX
  8
0
 10
378.271260
 20
633.199338
 42
0.000000
  0
SEQEND
  0
POLYLINE
  8
0
 66
1
 70
1
  0
VERTEX
  8
0
 10
376.000000
 20
605.059017
 42
0.088797
  0
VERTEX
  8
0
 10
376.072509
 20
604.653950
 42
0.053277
  0
VERTEX
  8
0
 10
376.290385
 20
604.214980
 42
0.051183
  0
VERTEX
  8
0
 10
376.610411
 20
603.810572
 42
0.061454
  0
VERTEX
  8
0
 10
376.988546
 20
603.507079
 42
0.114400
  0
VERTEX
  8
0
 10
377.325929
 20
603.393111
 42
0.329480
  0
VERTEX
  8
0
 10
377.525685
 20
603.512472
 42
0.155351
  0
VERTEX
  8
0
 10
377.556862
 20
603.868281
 42
0.036408
  0
VERTEX
  8
0
 10
377.381557
 20
604.448062
 42
0.029964
  0
VERTEX
  8
0
 10
376.894727
 20
605.519970
 42
0.168622
  0
VERTEX
  8
0
 10
376.441482
 20
605.942608
 42
0.444011
  0
VERTEX
  8
0
 10
376.117673
 20
605.798253
 42
0.079093
  0
SEQEND
  0
POLYLINE
  8
0
 66
1
 70
1
  0
VERTEX
  8
0
 10
380.000000
 20
599.622445
 42
0.184603
  0
VERTEX
  8
0
 10
380.081150
 20
599.410139
 42
0.013803
  0
VERTEX
  8
0
 10
380.514063
 20
598.952641
 42
0.017649
  0
VERTEX
  8
0
 10
381.079598
 20
598.425681
 42
0.012436
  0
VERTEX
  8
0
 10
381.750000
 20
597.872445
 42
0.001576
  0
VERTEX
  8
0
 10
382.879507
 20
596.992360
 42
0.377591
  0
VERTEX
  8
0
 10
383.000000
 20
597.000000
 42
0.377591
  0
VERTEX
  8
0
 10
383.007640
 20
597.120493
 42
0.001576
  0
VERTEX
  8
0
 10
382.127555
 20
598.250000
 42
0.017685
  0
VERTEX
  8
0
 10
381.236680
 20
599.306759
 42
0.065617
  0
VERTEX
  8
0
 10
380.573889
 20
599.869516
 42
0.241985
  0
VERTEX
  8
0
 10
380.193395
 20
599.906950
 42
0.307699
  0
SEQEND
  0
POLYLINE
  8
0
 66
1
 70
1
  0
VERTEX
  8
0
 10
474.500000
 20
533.655451
 42
-0.009780
  0
VERTEX
  8
0
 10
474.085530
 20
512.467310
 42
-0.017948
  0
VERTEX
  8
0
 10
472.792005
 20
495.255176
 42
-0.016425
  0
VERTEX
  8
0
 10
470.178432
 20
477.199431
 42
-0.006825
  0
VERTEX
  8
0
 10
465.518130
 20
453.000000
 42
-0.002302
  0
VERTEX
  8
0
 10
462.213905
 20
437.383084
 42
-0.005926
  0
VERTEX
  8
0
 10
459.640824
 20
426.138797
 42
-0.007216
  0
VERTEX
  8
0
 10
457.123828
 20
416.332413
 42
-0.005391
  0
VERTEX
  8
0
 10
454.077348
 20
405.595020
 42
0.003636
  0
VERTEX
  8
0
 10
452.335613
 20
399.537312
 42
0.001989
  0
VERTEX
  8
0
 10
450.283999
 20
392.087287
 42
0.001982
  0
VERTEX
  8
0
 10
448.260058
 20
384.502969
 42
0.003158
  0
VERTEX
  8
0
 10
446.596093
 20
378.000000
 42
-0.003718
  0
VERTEX
  8
0
 10
444.974028
 20
371.690250
 42
-0.002725
  0
VERTEX
  8
0
 10
443.084173
 20
364.712951
 42
-0.002753
  0
VERTEX
  8
0
 10
441.222232
 20
358.125575
 42
-0.006103
  0
VERTEX
  8
0
 10
439.713938
 20
353.129193
 42
0.000000
  0
VERTEX
  8
0
 10
436.444600
 20
342.758387
 42
0.000000
  0
VERTEX
  8
0
 10
429.775336
 20
361.129193
 42
-0.001724
  0
VERTEX
  8
0
 10
426.972913
 20
368.932370
 42
-0.001466
  0
VERTEX
  8
0
 10
424.067342
 20
377.187951
 42
-0.001477
  0
VERTEX
  8
0
 10
421.466428
 20
384.719176
 42
-0.004172
  0
VERTEX
  8
0
 10
419.709219
 20
390.000000
 42
0.002537
  0
VERTEX
  8
0
 10
418.147501
 20
394.745065
 42
0.001532
  0
VERTEX
  8
0
 10
416.251030
 20
400.353125
 42
0.001534
  0
VERTEX
  8
0
 10
414.332776
 20
405.913030
 42
0.002690
  0
VERTEX
  8
0
 10
412.706707
 20
410.500000
 42
-0.008571
  0
VERTEX
  8
0
 10
411.106221
 20
415.189216
 42
-0.004463
  0
VERTEX
  8
0
 10
409.263262
 20
421.087500
 42
-0.004436
  0
VERTEX
  8
0
 10
407.478780
 20
427.177334
 42
-0.006752
  0
VERTEX
  8
0
 10
406.047609
 20
432.500000
 42
-0.015896
  0
VERTEX
  8
0
 10
403.149794
 20
445.620205
 42
-0.004114
  0
VERTEX
  8
0
 10
399.329618
 20
466.932854
 42
-0.003771
  0
VERTEX
  8
0
 10
395.869781
 20
488.157165
 42
-0.021563
  0
VERTEX
  8
0
 10
394.606328
 20
499.500000
 42
0.022400
  0
VERTEX
  8
0
 10
394.181093
 20
503.260370
 42
0.027657
  0
VERTEX
  8
0
 10
393.436632
 20
506.707506
 42
0.025370
  0
VERTEX
  8
0
 10
392.257738
 20
510.280138
 42
0.014755
  0
VERTEX
  8
0
 10
390.503128
 20
514.442175
 42
-0.011976
  0
VERTEX
  8
0
 10
389.044916
 20
517.848132
 42
-0.010128
  0
VERTEX
  8
0
 10
387.663488
 20
521.514668
 42
-0.010255
  0
VERTEX
  8
0
 10
386.540165
 20
524.909464
 42
-0.027914
  0
VERTEX
  8
0
 10
385.930608
 20
527.365904
 42
0.006243
  0
VERTEX
  8
0
 10
385.537612
 20
529.305550
 42
0.009007
  0
VERTEX
  8
0
 10
385.137883
 20
531.009634
 42
0.005371
  0
VERTEX
  8
0
 10
384.762821
 20
532.424310
 42
0.129593
  0
VERTEX
  8
0
 10
384.558617
 20
532.774716
 42
0.367743
  0
VERTEX
  8
0
 10
383.736567
 20
532.841127
 42
0.009516
  0
VERTEX
  8
0
 10
380.553612
 20
530.455381
 42
0.011229
  0
VERTEX
  8
0
 10
377.497005
 20
527.959810
 42
0.219331
  0
VERTEX
  8
0
 10
377.000000
 20
526.881311
 42
-0.127226
  0
VERTEX
  8
0
 10
376.913071
 20
526.545210
 42
-0.100757
  0
VERTEX
  8
0
 10
376.668447
 20
526.258885
 42
-0.089583
  0
VERTEX
  8
0
 10
376.302519
 20
526.066398
 42
-0.076539
  0
VERTEX
  8
0
 10
375.871310
 20
526.000000
 42
0.120550
  0
VERTEX
  8
0
 10
375.175415
 20
525.829745
 42
0.008726
  0
VERTEX
  8
0
 10
373.422912
 20
524.878403
 42
0.011817
  0
VERTEX
  8
0
 10
371.356747
 20
523.644318
 42
0.008651
  0
VERTEX
  8
0
 10
369.121310
 20
522.181796
 42
-0.014829
  0
VERTEX
  8
0
 10
363.386754
 20
518.530359
 42
-0.019481
  0
VERTEX
  8
0
 10
357.936340
 20
515.564200
 42
-0.020130
  0
VERTEX
  8
0
 10
352.422340
 20
513.107265
 42
-0.017803
  0
VERTEX
  8
0
 10
346.500000
 20
510.990201
 42
0.014501
  0
VERTEX
  8
0
 10
342.804467
 20
509.696610
 42
0.003877
  0
VERTEX
  8
0
 10
337.003125
 20
507.423322
 42
0.003926
  0
VERTEX
  8
0
 10
330.447656
 20
504.735784
 42
0.004044
  0
VERTEX
  8
0
 10
324.000000
 20
501.971599
 42
-0.001895
  0
VERTEX
  8
0
 10
317.880797
 20
499.317036
 42
-0.002550
  0
VERTEX
  8
0
 10
312.318750
 20
496.962709
 42
-0.001745
  0
VERTEX
  8
0
 10
307.637254
 20
495.028352
 42
-0.027253
  0
VERTEX
  8
0
 10
306.000000
 20
494.460509
 42
0.046602
  0
VERTEX
  8
0
 10
300.125150
 20
492.165042
 42
0.118224
  0
VERTEX
  8
0
 10
296.646493
 20
489.229183
 42
0.098004
  0
VERTEX
  8
0
 10
294.507215
 20
484.674179
 42
0.026058
  0
VERTEX
  8
0
 10
292.971813
 20
476.758477
 42
-0.018452
  0
VERTEX
  8
0
 10
291.962852
 20
471.097773
 42
-0.008698
  0
VERTEX
  8
0
 10
290.264834
 20
463.867979
 42
-0.008468
  0
VERTEX
  8
0
 10
288.177518
 20
456.177010
 42
-0.010086
  0
VERTEX
  8
0
 10
285.940708
 20
449.000000
 42
0.010166
  0
VERTEX
  8
0
 10
285.129089
 20
446.394372
 42
0.005043
  0
VERTEX
  8
0
 10
284.200559
 20
443.059375
 42
0.005003
  0
VERTEX
  8
0
 10
283.307077
 20
439.581290
 42
0.007311
  0
VERTEX
  8
0
 10
282.595925
 20
436.500000
 42
-0.002052
  0
VERTEX
  8
0
 10
281.838531
 20
433.053299
 42
-0.000814
  0
VERTEX
  8
0
 10
280.771073
 20
428.325000
 42
-0.000805
  0
VERTEX
  8
0
 10
279.602151
 20
423.224197
 42
-0.001010
  0
VERTEX
  8
0
 10
278.501463
 20
418.500000
 42
0.007734
  0
VERTEX
  8
0
 10
277.467519
 20
413.775667
 42
0.006254
  0
VERTEX
  8
0
 10
276.499877
 20
408.675000
 42
0.006326
  0
VERTEX
  8
0
 10
275.725407
 20
403.945721
 42
0.016194
  0
VERTEX
  8
0
 10
275.319422
 20
400.500000
 42
-0.012660
  0
VERTEX
  8
0
 10
274.869084
 20
396.430583
 42
-0.058545
  0
VERTEX
  8
0
 10
274.278512
 20
394.141516
 42
-0.078610
  0
VERTEX
  8
0
 10
273.258834
 20
392.386530
 42
-0.034249
  0
VERTEX
  8
0
 10
271.413096
 20
390.412063
 42
0.023150
  0
VERTEX
  8
0
 10
269.859274
 20
388.822074
 42
0.062391
  0
VERTEX
  8
0
 10
268.964979
 20
387.523216
 42
0.088592
  0
VERTEX
  8
0
 10
268.596517
 20
386.338959
 42
0.095462
  0
VERTEX
  8
0
 10
268.675560
 20
385.132660
 42
-0.095302
  0
VERTEX
  8
0
 10
268.873940
 20
382.119764
 42
-0.018729
  0
VERTEX
  8
0
 10
267.996386
 20
376.741235
 42
-0.019759
  0
VERTEX
  8
0
 10
266.697694
 20
371.404275
 42
-0.075600
  0
VERTEX
  8
0
 10
265.277962
 20
368.301471
 42
0.042195
  0
VERTEX
  8
0
 10
264.593672
 20
367.035982
 42
0.014261
  0
VERTEX
  8
0
 10
263.810335
 20
365.090809
 42
0.014069
  0
VERTEX
  8
0
 10
263.062906
 20
362.881206
 42
0.015691
  0
VERTEX
  8
0
 10
262.470208
 20
360.711510
 42
-0.002998
  0
VERTEX
  8
0
 10
261.849321
 20
358.188355
 42
-0.001288
  0
VERTEX
  8
0
 10
260.991743
 20
354.827756
 42
-0.001274
  0
VERTEX
  8
0
 10
260.059928
 20
351.252790
 42
-0.001682
  0
VERTEX
  8
0
 10
259.191519
 20
348.000000
 42
0.005857
  0
VERTEX
  8
0
 10
258.328379
 20
344.655137
 42
0.003872
  0
VERTEX
  8
0
 10
257.411695
 20
340.793750
 42
0.003897
  0
VERTEX
  8
0
 10
256.578945
 20
337.026393
 42
0.007547
  0
VERTEX
  8
0
 10
255.982276
 20
334.000000
 42
-0.010836
  0
VERTEX
  8
0
 10
255.400160
 20
331.146464
 42
-0.007471
  0
VERTEX
  8
0
 10
254.622938
 20
327.940625
 42
-0.007536
  0
VERTEX
  8
0
 10
253.782458
 20
324.878333
 42
-0.015247
  0
VERTEX
  8
0
 10
253.011608
 20
322.500000
 42
0.025682
  0
VERTEX
  8
0
 10
249.649688
 20
311.338732
 42
0.035371
  0
VERTEX
  8
0
 10
247.873290
 20
301.021330
 42
0.037036
  0
VERTEX
  8
0
 10
247.613641
 20
290.940608
 42
0.032746
  0
VERTEX
  8
0
 10
248.806465
 20
280.500000
 42
0.061664
  0
VERTEX
  8
0
 10
251.373056
 20
272.272792
 42
0.067881
  0
VERTEX
  8
0
 10
255.812589
 20
265.209263
 42
0.047091
  0
VERTEX
  8
0
 10
263.313618
 20
257.788672
 42
0.014265
  0
VERTEX
  8
0
 10
276.000000
 20
247.996094
 42
-0.002304
  0
VERTEX
  8
0
 10
280.586415
 20
244.627775
 42
-0.002791
  0
VERTEX
  8
0
 10
284.856250
 20
241.424463
 42
-0.002364
  0
VERTEX
  8
0
 10
288.421337
 20
238.691969
 42
-0.019159
  0
VERTEX
  8
0
 10
290.000000
 20
237.370373
 42
0.052418
  0
VERTEX
  8
0
 10
291.735076
 20
236.103800
 42
0.004616
  0
VERTEX
  8
0
 10
296.465625
 20
233.416630
 42
0.006005
  0
VERTEX
  8
0
 10
302.189828
 20
230.323949
 42
0.004639
  0
VERTEX
  8
0
 10
308.500000
 20
227.086259
 42
-0.002852
  0
VERTEX
  8
0
 10
314.961092
 20
223.800240
 42
-0.003195
  0
VERTEX
  8
0
 10
321.143794
 20
220.561103
 42
-0.002939
  0
VERTEX
  8
0
 10
326.374437
 20
217.738446
 42
-0.017017
  0
VERTEX
  8
0
 10
329.074617
 20
216.139046
 42
0.000000
  0
VERTEX
  8
0
 10
333.649234
 20
213.214649
 42
0.000000
  0
VERTEX
  8
0
 10
331.879563
 20
201.519283
 42
-0.002973
  0
VERTEX
  8
0
 10
331.087731
 20
196.488612
 42
-0.002330
  0
VERTEX
  8
0
 10
330.170997
 20
191.041219
 42
-0.002356
  0
VERTEX
  8
0
 10
329.270657
 20
185.981479
 42
-0.005780
  0
VERTEX
  8
0
 10
328.548238
 20
182.272559
 42
0.016846
  0
VERTEX
  8
0
 10
326.870148
 20
172.510867
 42
0.008741
  0
VERTEX
  8
0
 10
325.400791
 20
160.229278
 42
0.008243
  0
VERTEX
  8
0
 10
324.245982
 20
146.693052
 42
0.008017
  0
VERTEX
  8
0
 10
323.525239
 20
133.000000
 42
-0.002196
  0
VERTEX
  8
0
 10
323.256500
 20
126.440266
 42
-0.002777
  0
VERTEX
  8
0
 10
322.947731
 20
120.378075
 42
-0.002197
  0
VERTEX
  8
0
 10
322.638288
 20
115.297837
 42
-0.022440
  0
VERTEX
  8
0
 10
322.406591
 20
113.201958
 42
0.041644
  0
VERTEX
  8
0
 10
322.275821
 20
111.382106
 42
0.091553
  0
VERTEX
  8
0
 10
322.543938
 20
110.018191
 42
0.082052
  0
VERTEX
  8
0
 10
323.305694
 20
108.748650
 42
0.028665
  0
VERTEX
  8
0
 10
324.780142
 20
107.201958
 42
-0.051007
  0
VERTEX
  8
0
 10
326.431796
 20
105.306904
 42
-0.085936
  0
VERTEX
  8
0
 10
327.334350
 20
103.407051
 42
-0.045650
  0
VERTEX
  8
0
 10
327.851886
 20
100.576058
 42
-0.006052
  0
VERTEX
  8
0
 10
328.323565
 20
94.500000
 42
0.003037
  0
VERTEX
  8
0
 10
328.649344
 20
89.947777
 42
0.001778
  0
VERTEX
  8
0
 10
329.091975
 20
84.500000
 42
0.001778
  0
VERTEX
  8
0
 10
329.573605
 20
79.052410
 42
0.003021
  0
VERTEX
  8
0
 10
330.020162
 20
74.500000
 42
-0.003464
  0
VERTEX
  8
0
 10
330.572787
 20
68.814517
 42
-0.000662
  0
VERTEX
  8
0
 10
331.491447
 20
58.478125
 42
-0.000706
  0
VERTEX
  8
0
 10
332.530724
 20
46.410255
 42
-0.000650
  0
VERTEX
  8
0
 10
333.565602
 20
34.000000
 42
0.001183
  0
VERTEX
  8
0
 10
334.563618
 20
22.184110
 42
0.001811
  0
VERTEX
  8
0
 10
335.490204
 20
11.945313
 42
0.000611
  0
VERTEX
  8
0
 10
336.333833
 20
3.100660
 42
0.049854
  0
VERTEX
  8
0
 10
336.601924
 20
1.750000
 42
0.304017
  0
VERTEX
  8
0
 10
337.932251
 20
0.663273
 42
0.014337
  0
VERTEX
  8
0
 10
343.997793
 20
0.262322
 42
0.008613
  0
VERTEX
  8
0
 10
354.998105
 20
0.041064
 42
0.000722
  0
VERTEX
  8
0
 10
383.452164
 20
0.000000
 42
0.000000
  0
VERTEX
  8
0
 10
429.769553
 20
0.000000
 42
0.000000
  0
VERTEX
  8
0
 10
430.443034
 20
5.750000
 42
-0.017030
  0
VERTEX
  8
0
 10
430.840361
 20
8.367390
 42
-0.009706
  0
VERTEX
  8
0
 10
431.489067
 20
11.501170
 42
-0.009685
  0
VERTEX
  8
0
 10
432.265319
 20
14.633809
 42
-0.015799
  0
VERTEX
  8
0
 10
433.058257
 20
17.253982
 42
0.026712
  0
VERTEX
  8
0
 10
433.910319
 20
20.308351
 42
0.019745
  0
VERTEX
  8
0
 10
434.535584
 20
23.761083
 42
0.018053
  0
VERTEX
  8
0
 10
434.932871
 20
27.583493
 42
0.014103
  0
VERTEX
  8
0
 10
435.096684
 20
31.753982
 42
0.000000
  0
VERTEX
  8
0
 10
435.193367
 20
40.500000
 42
0.000000
  0
VERTEX
  8
0
 10
437.480757
 20
27.393742
 42
-0.003403
  0
VERTEX
  8
0
 10
438.409107
 20
21.852091
 42
-0.002966
  0
VERTEX
  8
0
 10
439.306967
 20
16.038974
 42
-0.002984
  0
VERTEX
  8
0
 10
440.056395
 20
10.772151
 42
-0.008822
  0
VERTEX
  8
0
 10
440.485565
 20
7.143742
 42
0.000000
  0
VERTEX
  8
0
 10
441.202983
 20
0.000000
 42
0.000000
  0
VERTEX
  8
0
 10
490.082439
 20
0.000000
 42
0.000000
  0
VERTEX
  8
0
 10
538.961896
 20
-0.000000
 42
0.000000
  0
VERTEX
  8
0
 10
539.423859
 20
2.250000
 42
0.033937
  0
VERTEX
  8
0
 10
539.651098
 20
3.927358
 42
0.000655
  0
VERTEX
  8
0
 10
540.223321
 20
12.651562
 42
0.001578
  0
VERTEX
  8
0
 10
540.845936
 20
22.840760
 42
0.001057
  0
VERTEX
  8
0
 10
541.496716
 20
34.500000
 42
-0.003354
  0
VERTEX
  8
0
 10
543.484948
 20
67.403152
 42
-0.008802
  0
VERTEX
  8
0
 10
545.485137
 20
90.971315
 42
-0.010568
  0
VERTEX
  8
0
 10
547.579097
 20
107.853324
 42
-0.057280
  0
VERTEX
  8
0
 10
549.938889
 20
116.760727
 42
0.014242
  0
VERTEX
  8
0
 10
550.727860
 20
118.956637
 42
0.014043
  0
VERTEX
  8
0
 10
551.394549
 20
121.204188
 42
0.014049
  0
VERTEX
  8
0
 10
551.867213
 20
123.203228
 42
0.051066
  0
VERTEX
  8
0
 10
552.000000
 20
124.500000
 42
-0.073111
  0
VERTEX
  8
0
 10
552.507566
 20
127.952655
 42
-0.028142
  0
VERTEX
  8
0
 10
554.164998
 20
132.518814
 42
-0.028040
  0
VERTEX
  8
0
 10
556.315126
 20
136.852844
 42
-0.076850
  0
VERTEX
  8
0
 10
558.431076
 20
139.523704
 42
0.043421
  0
VERTEX
  8
0
 10
559.589517
 20
140.801107
 42
0.057949
  0
VERTEX
  8
0
 10
560.385892
 20
142.147793
 42
0.058658
  0
VERTEX
  8
0
 10
560.845537
 20
143.627980
 42
0.046009
  0
VERTEX
  8
0
 10
561.000000
 20
145.303028
 42
0.043641
  0
VERTEX
  8
0
 10
560.726202
 20
148.433954
 42
0.031376
  0
VERTEX
  8
0
 10
559.901082
 20
151.847251
 42
0.031937
  0
VERTEX
  8
0
 10
558.719456
 20
154.950952
 42
0.070841
  0
VERTEX
  8
0
 10
557.358396
 20
157.078741
 42
-0.029138
  0
VERTEX
  8
0
 10
556.243881
 20
158.537960
 42
-0.188875
  0
VERTEX
  8
0
 10
556.045147
 20
159.423980
 42
-0.513343
  0
VERTEX
  8
0
 10
556.488081
 20
159.648732
 42
-0.053491
  0
VERTEX
  8
0
 10
557.636629
 20
158.886608
 42
-0.115646
  0
VERTEX
  8
0
 10
560.535727
 20
155.055589
 42
-0.056058
  0
VERTEX
  8
0
 10
562.394330
 20
149.162958
 42
-0.057287
  0
VERTEX
  8
0
 10
562.846946
 20
143.451890
 42
-0.229944
  0
VERTEX
  8
0
 10
561.251572
 20
140.442004
 42
0.038561
  0
VERTEX
  8
0
 10
560.627088
 20
139.906916
 42
0.062770
  0
VERTEX
  8
0
 10
560.199710
 20
139.356111
 42
0.089454
  0
VERTEX
  8
0
 10
560.020982
 20
138.875564
 42
0.245522
  0
VERTEX
  8
0
 10
560.126004
 20
138.540663
 42
0.295613
  0
VERTEX
  8
0
 10
560.549319
 20
138.450196
 42
0.032493
  0
VERTEX
  8
0
 10
561.496360
 20
138.883699
 42
0.031385
  0
VERTEX
  8
0
 10
562.657390
 20
139.606746
 42
0.019945
  0
VERTEX
  8
0
 10
563.916392
 20
140.583102
 42
0.000000
  0
VERTEX
  8
0
 10
567.083919
 20
143.248401
 42
0.000000
  0
VERTEX
  8
0
 10
566.791960
 20
137.980783
 42
0.022683
  0
VERTEX
  8
0
 10
566.746981
 20
133.487457
 42
0.344652
  0
VERTEX
  8
0
 10
567.685638
 20
132.371130
 42
0.358376
  0
VERTEX
  8
0
 10
568.950023
 20
133.030020
 42
0.023249
  0
VERTEX
  8
0
 10
570.498727
 20
137.199092
 42
-0.034871
  0
VERTEX
  8
0
 10
572.449787
 20
142.099540
 42
-0.017801
  0
VERTEX
  8
0
 10
575.534695
 20
147.964636
 42
-0.016162
  0
VERTEX
  8
0
 10
578.835800
 20
153.323189
 42
-0.075742
  0
VERTEX
  8
0
 10
581.258702
 20
156.000000
 42
0.105613
  0
VERTEX
  8
0
 10
582.628827
 20
157.706842
 42
0.038859
  0
VERTEX
  8
0
 10
583.804712
 20
160.581579
 42
0.024163
  0
VERTEX
  8
0
 10
584.998295
 20
165.027527
 42
0.006443
  0
VERTEX
  8
0
 10
586.463096
 20
172.213792
 42
-0.010717
  0
VERTEX
  8
0
 10
587.135672
 20
175.375131
 42
-0.005191
  0
VERTEX
  8
0
 10
588.124179
 20
179.389482
 42
-0.005145
  0
VERTEX
  8
0
 10
589.240732
 20
183.551302
 42
-0.007379
  0
VERTEX
  8
0
 10
590.322347
 20
187.213792
 42
0.009987
  0
VERTEX
  8
0
 10
591.467792
 20
191.168232
 42
0.004766
  0
VERTEX
  8
0
 10
592.790012
 20
196.294256
 42
0.004722
  0
VERTEX
  8
0
 10
594.070087
 20
201.677229
 42
0.006699
  0
VERTEX
  8
0
 10
595.099037
 20
206.490059
 42
-0.010299
  0
VERTEX
  8
0
 10
596.071066
 20
210.881774
 42
-0.012177
  0
VERTEX
  8
0
 10
597.175894
 20
214.989083
 42
-0.011075
  0
VERTEX
  8
0
 10
598.264351
 20
218.395556
 42
-0.072164
  0
VERTEX
  8
0
 10
599.085368
 20
219.990059
 42
0.072021
  0
VERTEX
  8
0
 10
601.061504
 20
223.825235
 42
0.013054
  0
VERTEX
  8
0
 10
603.479798
 20
231.483023
 42
0.014197
  0
VERTEX
  8
0
 10
605.781433
 20
240.445174
 42
0.014434
  0
VERTEX
  8
0
 10
607.556621
 20
249.474478
 42
-0.004951
  0
VERTEX
  8
0
 10
608.265243
 20
253.478520
 42
-0.005802
  0
VERTEX
  8
0
 10
609.018839
 20
257.260825
 42
-0.005154
  0
VERTEX
  8
0
 10
609.725098
 20
260.440354
 42
-0.035168
  0
VERTEX
  8
0
 10
610.198303
 20
261.974478
 42
0.020084
  0
VERTEX
  8
0
 10
610.663331
 20
263.335059
 42
0.005464
  0
VERTEX
  8
0
 10
611.287656
 20
265.520628
 42
0.005519
  0
VERTEX
  8
0
 10
611.941990
 20
268.017657
 42
0.005713
  0
VERTEX
  8
0
 10
612.533226
 20
270.500000
 42
-0.003186
  0
VERTEX
  8
0
 10
613.198351
 20
273.356523
 42
-0.001486
  0
VERTEX
  8
0
 10
614.095127
 20
277.051260
 42
-0.001472
  0
VERTEX
  8
0
 10
615.059068
 20
280.922658
 42
-0.002059
  0
VERTEX
  8
0
 10
615.945021
 20
284.376630
 42
0.010157
  0
VERTEX
  8
0
 10
617.491390
 20
290.838400
 42
0.058199
  0
VERTEX
  8
0
 10
617.836692
 20
294.339342
 42
0.070263
  0
VERTEX
  8
0
 10
617.326893
 20
297.533900
 42
0.018629
  0
VERTEX
  8
0
 10
615.621025
 20
302.421539
 42
-0.026692
  0
VERTEX
  8
0
 10
614.456569
 20
305.939172
 42
-0.023843
  0
VERTEX
  8
0
 10
613.621997
 20
309.695396
 42
-0.019341
  0
VERTEX
  8
0
 10
613.025142
 20
314.181185
 42
-0.009159
  0
VERTEX
  8
0
 10
612.586265
 20
320.000000
 42
0.010043
  0
VERTEX
  8
0
 10
611.970729
 20
327.973220
 42
0.012120
  0
VERTEX
  8
0
 10
611.061434
 20
335.428247
 42
0.012421
  0
VERTEX
  8
0
 10
609.815009
 20
342.669793
 42
0.011640
  0
VERTEX
  8
0
 10
608.186818
 20
350.000000
 42
-0.014952
  0
VERTEX
  8
0
 10
607.628387
 20
352.595164
 42
-0.002723
  0
VERTEX
  8
0
 10
606.764228
 20
357.437500
 42
-0.002929
  0
VERTEX
  8
0
 10
605.816506
 20
363.118672
 42
-0.002654
  0
VERTEX
  8
0
 10
604.902770
 20
369.000000
 42
0.005679
  0
VERTEX
  8
0
 10
603.964376
 20
374.808212
 42
0.006745
  0
VERTEX
  8
0
 10
602.942347
 20
380.268750
 42
0.005929
  0
VERTEX
  8
0
 10
601.964921
 20
384.846191
 42
0.042473
  0
VERTEX
  8
0
 10
601.281819
 20
387.000000
 42
-0.027724
  0
VERTEX
  8
0
 10
598.504892
 20
394.936294
 42
-0.014420
  0
VERTEX
  8
0
 10
595.885304
 20
405.097174
 42
-0.012060
  0
VERTEX
  8
0
 10
593.375354
 20
417.520038
 42
-0.007064
  0
VERTEX
  8
0
 10
590.940810
 20
432.500000
 42
0.011105
  0
VERTEX
  8
0
 10
590.307177
 20
436.209212
 42
0.005827
  0
VERTEX
  8
0
 10
589.363245
 20
440.793750
 42
0.005793
  0
VERTEX
  8
0
 10
588.286157
 20
445.471878
 42
0.008855
  0
VERTEX
  8
0
 10
587.233592
 20
449.500000
 42
-0.002885
  0
VERTEX
  8
0
 10
586.208721
 20
453.239061
 42
-0.002791
  0
VERTEX
  8
0
 10
585.215428
 20
457.031250
 42
-0.002756
  0
VERTEX
  8
0
 10
584.378207
 20
460.378668
 42
-0.010251
  0
VERTEX
  8
0
 10
583.905911
 20
462.500000
 42
0.008167
  0
VERTEX
  8
0
 10
583.460542
 20
464.540437
 42
0.002684
  0
VERTEX
  8
0
 10
582.740151
 20
467.528125
 42
0.002673
  0
VERTEX
  8
0
 10
581.905145
 20
470.835244
 42
0.003023
  0
VERTEX
  8
0
 10
581.067617
 20
474.000000
 42
-0.011017
  0
VERTEX
  8
0
 10
580.287942
 20
477.148843
 42
-0.010227
  0
VERTEX
  8
0
 10
579.626492
 20
480.407872
 42
-0.010268
  0
VERTEX
  8
0
 10
579.157136
 20
483.330160
 42
-0.033562
  0
VERTEX
  8
0
 10
579.017099
 20
485.282119
 42
0.051122
  0
VERTEX
  8
0
 10
578.631257
 20
488.885328
 42
0.046022
  0
VERTEX
  8
0
 10
577.518935
 20
492.470862
 42
0.048857
  0
VERTEX
  8
0
 10
575.976377
 20
495.359892
 42
0.160073
  0
VERTEX
  8
0
 10
574.295153
 20
496.678979
 42
-0.020640
  0
VERTEX
  8
0
 10
573.095670
 20
497.170769
 42
-0.001121
  0
VERTEX
  8
0
 10
569.385581
 20
498.884054
 42
-0.001745
  0
VERTEX
  8
0
 10
564.982239
 20
500.948189
 42
-0.001273
  0
VERTEX
  8
0
 10
560.102568
 20
503.271643
 42
0.007223
  0
VERTEX
  8
0
 10
550.591035
 20
507.662492
 42
0.011867
  0
VERTEX
  8
0
 10
542.406752
 20
511.067973
 42
0.011433
  0
VERTEX
  8
0
 10
535.825080
 20
513.453412
 42
0.081391
  0
VERTEX
  8
0
 10
532.489523
 20
514.000000
 42
-0.067561
  0
VERTEX
  8
0
 10
531.450463
 20
514.141044
 42
-0.019169
  0
VERTEX
  8
0
 10
529.892855
 20
514.636847
 42
-0.018940
  0
VERTEX
  8
0
 10
528.159096
 20
515.338149
 42
-0.018998
  0
VERTEX
  8
0
 10
526.485191
 20
516.167990
 42
0.016160
  0
VERTEX
  8
0
 10
521.403137
 20
518.723442
 42
0.002928
  0
VERTEX
  8
0
 10
511.791423
 20
523.105337
 42
0.003021
  0
VERTEX
  8
0
 10
502.115277
 20
527.378295
 42
0.014643
  0
VERTEX
  8
0
 10
496.540819
 20
529.608145
 42
-0.011407
  0
VERTEX
  8
0
 10
494.985125
 20
530.218791
 42
-0.014659
  0
VERTEX
  8
0
 10
493.585782
 20
530.854089
 42
-0.012485
  0
VERTEX
  8
0
 10
492.456836
 20
531.442487
 42
-0.111172
  0
VERTEX
  8
0
 10
492.040819
 20
531.812441
 42
0.066528
  0
VERTEX
  8
0
 10
491.616516
 20
532.263031
 42
0.003884
  0
VERTEX
  8
0
 10
490.139933
 20
533.444455
 42
0.005830
  0
VERTEX
  8
0
 10
488.349266
 20
534.820988
 42
0.004255
  0
VERTEX
  8
0
 10
486.329166
 20
536.310052
 42
-0.026929
  0
VERTEX
  8
0
 10
484.159711
 20
538.066366
 42
-0.019085
  0
VERTEX
  8
0
 10
481.916150
 20
540.253039
 42
-0.019334
  0
VERTEX
  8
0
 10
479.928514
 20
542.512838
 42
-0.038182
  0
VERTEX
  8
0
 10
478.567301
 20
544.475371
 42
0.007327
  0
VERTEX
  8
0
 10
477.521056
 20
546.202141
 42
0.009860
  0
VERTEX
  8
0
 10
476.520558
 20
547.732170
 42
0.007280
  0
VERTEX
  8
0
 10
475.645287
 20
548.975477
 42
0.097392
  0
VERTEX
  8
0
 10
475.238135
 20
549.353767
 42
0.568527
  0
VERTEX
  8
0
 10
474.939929
 20
549.198740
 42
0.002621
  0
VERTEX
  8
0
 10
474.716827
 20
544.930956
 42
0.007459
  0
VERTEX
  8
0
 10
474.552852
 20
539.819215
 42
0.004287
  0
SEQEND
  0
POLYLINE
  8
0
 66
1
 70
1
  0
VERTEX
  8
0
 10
545.812657
 20
346.000000
 42
-0.023763
  0
VERTEX
  8
0
 10
548.246934
 20
337.094839
 42
-0.007581
  0
VERTEX
  8
0
 10
551.032779
 20
323.639449
 42
-0.007706
  0
VERTEX
  8
0
 10
553.426439
 20
309.988722
 42
-0.020882
  0
VERTEX
  8
0
 10
554.567875
 20
300.228249
 42
0.008537
  0
VERTEX
  8
0
 10
554.898400
 20
296.635204
 42
0.012848
  0
VERTEX
  8
0
 10
555.320243
 20
293.517787
 42
0.007667
  0
VERTEX
  8
0
 10
555.774665
 20
290.955580
 42
0.209580
  0
VERTEX
  8
0
 10
556.155283
 20
290.404030
 42
-0.217811
  0
VERTEX
  8
0
 10
556.471114
 20
289.930587
 42
-0.025714
  0
VERTEX
  8
0
 10
556.610951
 20
288.640339
 42
-0.026987
  0
VERTEX
  8
0
 10
556.615167
 20
287.007108
 42
-0.018957
  0
VERTEX
  8
0
 10
556.451214
 20
285.175781
 42
0.006412
  0
VERTEX
  8
0
 10
555.860596
 20
280.034452
 42
0.005539
  0
VERTEX
  8
0
 10
555.369645
 20
274.622802
 42
0.004623
  0
VERTEX
  8
0
 10
554.928576
 20
268.345417
 42
0.002399
  0
VERTEX
  8
0
 10
554.487962
 20
260.500000
 42
-0.012817
  0
VERTEX
  8
0
 10
554.084043
 20
255.260478
 42
-0.020613
  0
VERTEX
  8
0
 10
553.442233
 20
250.827817
 42
-0.021508
  0
VERTEX
  8
0
 10
552.461272
 20
246.600572
 42
-0.015726
  0
VERTEX
  8
0
 10
551.025645
 20
242.000000
 42
0.011560
  0
VERTEX
  8
0
 10
549.810454
 20
238.216938
 42
0.007893
  0
VERTEX
  8
0
 10
548.597709
 20
233.867188
 42
0.007958
  0
VERTEX
  8
0
 10
547.560871
 20
229.633985
 42
0.015884
  0
VERTEX
  8
0
 10
546.901217
 20
226.250000
 42
-0.013326
  0
VERTEX
  8
0
 10
545.953045
 20
221.249897
 42
-0.121950
  0
VERTEX
  8
0
 10
544.984379
 20
219.278725
 42
-0.643634
  0
VERTEX
  8
0
 10
544.227975
 20
219.490051
 42
-0.035758
  0
VERTEX
  8
0
 10
543.956449
 20
222.750000
 42
0.016370
  0
VERTEX
  8
0
 10
543.878453
 20
224.507454
 42
0.008228
  0
VERTEX
  8
0
 10
543.670955
 20
226.719182
 42
0.008161
  0
VERTEX
  8
0
 10
543.381144
 20
229.001244
 42
0.011974
  0
VERTEX
  8
0
 10
543.045711
 20
230.996150
 42
-0.022531
  0
VERTEX
  8
0
 10
542.632158
 20
233.818754
 42
-0.113169
  0
VERTEX
  8
0
 10
542.829796
 20
235.392196
 42
-0.161411
  0
VERTEX
  8
0
 10
543.651410
 20
236.428411
 42
-0.060367
  0
VERTEX
  8
0
 10
545.335367
 20
237.262200
 42
0.372973
  0
VERTEX
  8
0
 10
545.549412
 20
237.638081
 42
0.018881
  0
VERTEX
  8
0
 10
545.196313
 20
239.118812
 42
0.022610
  0
VERTEX
  8
0
 10
544.580393
 20
240.995861
 42
0.013529
  0
VERTEX
  8
0
 10
543.688923
 20
243.168729
 42
-0.009839
  0
VERTEX
  8
0
 10
542.685654
 20
245.563609
 42
-0.008461
  0
VERTEX
  8
0
 10
541.723470
 20
248.118995
 42
-0.008548
  0
VERTEX
  8
0
 10
540.929031
 20
250.468238
 42
-0.024193
  0
VERTEX
  8
0
 10
540.483117
 20
252.140274
 42
0.017961
  0
VERTEX
  8
0
 10
540.108857
 20
253.617303
 42
0.011966
  0
VERTEX
  8
0
 10
539.579472
 20
255.281319
 42
0.012055
  0
VERTEX
  8
0
 10
538.987549
 20
256.872931
 42
0.023003
  0
VERTEX
  8
0
 10
538.423549
 20
258.115279
 42
-0.020725
  0
VERTEX
  8
0
 10
537.878277
 20
259.301986
 42
-0.013553
  0
VERTEX
  8
0
 10
537.344627
 20
260.710504
 42
-0.013639
  0
VERTEX
  8
0
 10
536.898504
 20
262.113926
 42
-0.025285
  0
VERTEX
  8
0
 10
536.626113
 20
263.277566
 42
0.020661
  0
VERTEX
  8
0
 10
536.376890
 20
264.388402
 42
0.014311
  0
VERTEX
  8
0
 10
536.007900
 20
265.622042
 42
0.014457
  0
VERTEX
  8
0
 10
535.584452
 20
266.788714
 42
0.028587
  0
VERTEX
  8
0
 10
535.170130
 20
267.682109
 42
-0.066603
  0
VERTEX
  8
0
 10
534.038705
 20
270.702763
 42
-0.008656
  0
VERTEX
  8
0
 10
532.613896
 20
277.451485
 42
-0.010808
  0
VERTEX
  8
0
 10
531.346438
 20
284.873370
 42
-0.015504
  0
VERTEX
  8
0
 10
530.570784
 20
291.500000
 42
-0.026195
  0
VERTEX
  8
0
 10
530.438554
 20
295.488893
 42
-0.008046
  0
VERTEX
  8
0
 10
530.651415
 20
301.510890
 42
-0.007510
  0
VERTEX
  8
0
 10
531.128318
 20
308.677746
 42
-0.005744
  0
VERTEX
  8
0
 10
531.857527
 20
316.500000
 42
-0.004115
  0
VERTEX
  8
0
 10
533.098457
 20
327.466978
 42
-0.023589
  0
VERTEX
  8
0
 10
534.077280
 20
333.235859
 42
-0.033982
  0
VERTEX
  8
0
 10
535.445200
 20
337.936635
 42
-0.014644
  0
VERTEX
  8
0
 10
537.869807
 20
344.000000
 42
0.004771
  0
VERTEX
  8
0
 10
539.455197
 20
347.748291
 42
0.006556
  0
VERTEX
  8
0
 10
540.803992
 20
351.150000
 42
0.004373
  0
VERTEX
  8
0
 10
541.869909
 20
354.019800
 42
0.075198
  0
VERTEX
  8
0
 10
542.065316
 20
355.000000
 42
-0.584057
  0
VERTEX
  8
0
 10
542.383646
 20
355.160464
 42
-0.147541
  0
VERTEX
  8
0
 10
542.863014
 20
354.576690
 42
-0.017876
  0
VERTEX
  8
0
 10
543.859661
 20
351.919135
 42
-0.002173
  0
SEQEND
  0
POLYLINE
  8
0
 66
1
 70
1
  0
VERTEX
  8
0
 10
331.398323
 20
345.750000
 42
0.038090
  0
VERTEX
  8
0
 10
331.949929
 20
343.716745
 42
0.003459
  0
VERTEX
  8
0
 10
333.743388
 20
338.772511
 42
0.004468
  0
VERTEX
  8
0
 10
335.978663
 20
332.902320
 42
0.003481
  0
VERTEX
  8
0
 10
338.509614
 20
326.560675
 42
-0.008353
  0
VERTEX
  8
0
 10
342.926192
 20
315.173235
 42
-0.049204
  0
VERTEX
  8
0
 10
344.539491
 20
308.983029
 42
-0.047165
  0
VERTEX
  8
0
 10
344.944752
 20
302.492687
 42
-0.007302
  0
VERTEX
  8
0
 10
344.345078
 20
289.607265
 42
0.000000
  0
VERTEX
  8
0
 10
343.690157
 20
278.903405
 42
0.000000
  0
VERTEX
  8
0
 10
336.794583
 20
279.104751
 42
-0.011964
  0
VERTEX
  8
0
 10
333.400622
 20
279.285202
 42
-0.037826
  0
VERTEX
  8
0
 10
331.151877
 20
279.631187
 42
-0.059314
  0
VERTEX
  8
0
 10
329.645967
 20
280.175371
 42
-0.121925
  0
VERTEX
  8
0
 10
328.699504
 20
280.985441
 42
0.065499
  0
VERTEX
  8
0
 10
327.126188
 20
282.670726
 42
0.008262
  0
VERTEX
  8
0
 10
323.219957
 20
285.780813
 42
0.010159
  0
VERTEX
  8
0
 10
318.682484
 20
289.128020
 42
0.011499
  0
VERTEX
  8
0
 10
314.193669
 20
292.148220
 42
-0.026503
  0
VERTEX
  8
0
 10
312.726049
 20
293.200967
 42
-0.068502
  0
VERTEX
  8
0
 10
311.831376
 20
294.144623
 42
-0.104902
  0
VERTEX
  8
0
 10
311.445231
 20
295.025999
 42
-0.144749
  0
VERTEX
  8
0
 10
311.516974
 20
295.882012
 42
0.012982
  0
VERTEX
  8
0
 10
313.401812
 20
301.124304
 42
0.000867
  0
VERTEX
  8
0
 10
318.386037
 20
316.293857
 42
0.000180
  0
VERTEX
  8
0
 10
323.815519
 20
332.935954
 42
0.078914
  0
VERTEX
  8
0
 10
324.000000
 20
334.097552
 42
-0.092521
  0
VERTEX
  8
0
 10
324.375646
 20
336.110232
 42
-0.004938
  0
VERTEX
  8
0
 10
326.793009
 20
342.181734
 42
-0.002257
  0
VERTEX
  8
0
 10
329.438338
 20
348.557290
 42
-0.301951
  0
VERTEX
  8
0
 10
330.104583
 20
349.000000
 42
-0.276703
  0
VERTEX
  8
0
 10
330.401212
 20
348.822233
 42
-0.028046
  0
VERTEX
  8
0
 10
330.762164
 20
348.045313
 42
-0.028778
  0
VERTEX
  8
0
 10
331.111621
 20
346.995384
 42
-0.018751
  0
SEQEND
  0
POLYLINE
  8
0
 66
1
 70
1
  0
VERTEX
  8
0
 10
438.845067
 20
300.637383
 42
-0.052353
  0
VERTEX
  8
0
 10
439.414672
 20
299.038993
 42
-0.038640
  0
VERTEX
  8
0
 10
439.715010
 20
297.183568
 42
-0.032584
  0
VERTEX
  8
0
 10
439.754490
 20
295.001450
 42
-0.019313
  0
VERTEX
  8
0
 10
439.531689
 20
292.407333
 42
-0.025467
  0
VERTEX
  8
0
 10
439.015374
 20
289.490888
 42
-0.053256
  0
VERTEX
  8
0
 10
438.263748
 20
287.314665
 42
-0.053721
  0
VERTEX
  8
0
 10
437.074085
 20
285.358078
 42
-0.026343
  0
VERTEX
  8
0
 10
435.179008
 20
283.136782
 42
-0.022587
  0
VERTEX
  8
0
 10
432.034936
 20
280.108489
 42
-0.056374
  0
VERTEX
  8
0
 10
429.422087
 20
278.286800
 42
-0.069832
  0
VERTEX
  8
0
 10
426.829794
 20
277.320570
 42
-0.053232
  0
VERTEX
  8
0
 10
423.815741
 20
276.984687
 42
0.025643
  0
VERTEX
  8
0
 10
422.436256
 20
276.907504
 42
0.023636
  0
VERTEX
  8
0
 10
421.033374
 20
276.689119
 42
0.024356
  0
VERTEX
  8
0
 10
419.802556
 20
276.374321
 42
0.068767
  0
VERTEX
  8
0
 10
419.000000
 20
276.000000
 42
0.023197
  0
VERTEX
  8
0
 10
418.271114
 20
275.479509
 42
0.409657
  0
VERTEX
  8
0
 10
418.237851
 20
275.218347
 42
0.220444
  0
VERTEX
  8
0
 10
418.555791
 20
275.050422
 42
0.011293
  0
VERTEX
  8
0
 10
419.750000
 20
275.015313
 42
-0.038970
  0
VERTEX
  8
0
 10
420.611564
 20
274.942158
 42
-0.057861
  0
VERTEX
  8
0
 10
421.339063
 20
274.734379
 42
-0.075834
  0
VERTEX
  8
0
 10
421.834972
 20
274.433619
 42
-0.222110
  0
VERTEX
  8
0
 10
422.000000
 20
274.080445
 42
0.417500
  0
VERTEX
  8
0
 10
422.257974
 20
273.825347
 42
0.040140
  0
VERTEX
  8
0
 10
423.231044
 20
273.914577
 42
0.032717
  0
VERTEX
  8
0
 10
424.583155
 20
274.241296
 42
0.017950
  0
VERTEX
  8
0
 10
426.190787
 20
274.807078
 42
0.075794
  0
VERTEX
  8
0
 10
430.124815
 20
277.088856
 42
0.024936
  0
VERTEX
  8
0
 10
435.138398
 20
281.546354
 42
0.024665
  0
VERTEX
  8
0
 10
440.173299
 20
287.006918
 42
0.029295
  0
VERTEX
  8
0
 10
444.343864
 20
292.643985
 42
-0.049894
  0
VERTEX
  8
0
 10
446.943180
 20
295.870829
 42
-0.097477
  0
VERTEX
  8
0
 10
449.660863
 20
297.724708
 42
-0.174370
  0
VERTEX
  8
0
 10
451.893108
 20
297.856650
 42
-0.233658
  0
VERTEX
  8
0
 10
453.360798
 20
296.502158
 42
-0.031664
  0
VERTEX
  8
0
 10
453.560305
 20
295.864218
 42
-0.168096
  0
VERTEX
  8
0
 10
453.526737
 20
295.505421
 42
-0.346914
  0
VERTEX
  8
0
 10
453.312356
 20
295.394741
 42
-0.090827
  0
VERTEX
  8
0
 10
452.926284
 20
295.545559
 42
0.359467
  0
VERTEX
  8
0
 10
452.507991
 20
295.488065
 42
0.137588
  0
VERTEX
  8
0
 10
452.221787
 20
294.925438
 42
0.052225
  0
VERTEX
  8
0
 10
452.109690
 20
293.720484
 42
0.015029
  0
VERTEX
  8
0
 10
452.187738
 20
291.847497
 42
-0.023737
  0
VERTEX
  8
0
 10
452.236356
 20
289.841962
 42
-0.045934
  0
VERTEX
  8
0
 10
452.052369
 20
288.249569
 42
-0.059487
  0
VERTEX
  8
0
 10
451.642328
 20
287.035330
 42
-0.102189
  0
VERTEX
  8
0
 10
451.000000
 20
286.187179
 42
0.027893
  0
VERTEX
  8
0
 10
450.310157
 20
285.511909
 42
0.152356
  0
VERTEX
  8
0
 10
450.091417
 20
285.044752
 42
0.253366
  0
VERTEX
  8
0
 10
450.230876
 20
284.675102
 42
0.079964
  0
VERTEX
  8
0
 10
450.750000
 20
284.353845
 42
-0.196203
  0
VERTEX
  8
0
 10
451.753207
 20
283.357322
 42
-0.152197
  0
VERTEX
  8
0
 10
451.907042
 20
281.811348
 42
-0.112777
  0
VERTEX
  8
0
 10
451.115903
 20
280.074858
 42
-0.084866
  0
VERTEX
  8
0
 10
449.574702
 20
278.640904
 42
-0.021956
  0
VERTEX
  8
0
 10
448.354936
 20
277.916135
 42
-0.093116
  0
VERTEX
  8
0
 10
447.548866
 20
277.661007
 42
-0.178458
  0
VERTEX
  8
0
 10
446.986232
 20
277.794146
 42
-0.136412
  0
VERTEX
  8
0
 10
446.568720
 20
278.275894
 42
0.194261
  0
VERTEX
  8
0
 10
446.413947
 20
278.418388
 42
0.509126
  0
VERTEX
  8
0
 10
446.308677
 20
278.349197
 42
0.048053
  0
VERTEX
  8
0
 10
446.336557
 20
277.775371
 42
0.010714
  0
VERTEX
  8
0
 10
446.498895
 20
276.806478
 42
-0.021983
  0
VERTEX
  8
0
 10
446.710894
 20
275.339046
 42
-0.170145
  0
VERTEX
  8
0
 10
446.550234
 20
274.675476
 42
-0.252283
  0
VERTEX
  8
0
 10
446.053836
 20
274.403041
 42
-0.049525
  0
VERTEX
  8
0
 10
445.004877
 20
274.499061
 42
0.056328
  0
VERTEX
  8
0
 10
444.058118
 20
274.572789
 42
0.163260
  0
VERTEX
  8
0
 10
443.450889
 20
274.345276
 42
0.165471
  0
VERTEX
  8
0
 10
443.108649
 20
273.800214
 42
0.058243
  0
VERTEX
  8
0
 10
443.000000
 20
272.870652
 42
-0.107096
  0
VERTEX
  8
0
 10
442.581472
 20
270.939084
 42
-0.011336
  0
VERTEX
  8
0
 10
440.567537
 20
266.763838
 42
-0.006944
  0
VERTEX
  8
0
 10
438.325715
 20
262.519934
 42
-0.274316
  0
VERTEX
  8
0
 10
437.449337
 20
262.000000
 42
-0.483240
  0
VERTEX
  8
0
 10
437.349527
 20
262.125855
 42
-0.006976
  0
VERTEX
  8
0
 10
437.613402
 20
263.186872
 42
-0.012918
  0
VERTEX
  8
0
 10
437.993349
 20
264.490767
 42
-0.007452
  0
VERTEX
  8
0
 10
438.514259
 20
266.040414
 42
0.021275
  0
VERTEX
  8
0
 10
439.428956
 20
269.032949
 42
0.662039
  0
VERTEX
  8
0
 10
438.974966
 20
269.381893
 42
0.138381
  0
VERTEX
  8
0
 10
437.882107
 20
268.280491
 42
0.010826
  0
VERTEX
  8
0
 10
435.934213
 20
264.582725
 42
-0.016906
  0
VERTEX
  8
0
 10
434.924559
 20
262.721296
 42
-0.012705
  0
VERTEX
  8
0
 10
433.694373
 20
260.742511
 42
-0.012882
  0
VERTEX
  8
0
 10
432.440583
 20
258.938585
 42
-0.028638
  0
VERTEX
  8
0
 10
431.375372
 20
257.649020
 42
0.011526
  0
VERTEX
  8
0
 10
429.689523
 20
255.744687
 42
0.096894
  0
VERTEX
  8
0
 10
429.133590
 20
254.747024
 42
0.359034
  0
VERTEX
  8
0
 10
429.340993
 20
254.218888
 42
0.127482
  0
VERTEX
  8
0
 10
430.185549
 20
254.000000
 42
0.160458
  0
VERTEX
  8
0
 10
431.665729
 20
254.487566
 42
0.035507
  0
VERTEX
  8
0
 10
433.722294
 20
256.245928
 42
0.035386
  0
VERTEX
  8
0
 10
435.507788
 20
258.274794
 42
0.164186
  0
VERTEX
  8
0
 10
436.000000
 20
259.733331
 42
-0.070027
  0
VERTEX
  8
0
 10
436.068616
 20
260.220854
 42
-0.144867
  0
VERTEX
  8
0
 10
436.273452
 20
260.542275
 42
-0.189850
  0
VERTEX
  8
0
 10
436.577191
 20
260.649870
 42
-0.130428
  0
VERTEX
  8
0
 10
436.930902
 20
260.542705
 42
0.110019
  0
VERTEX
  8
0
 10
437.334926
 20
260.402319
 42
0.099902
  0
VERTEX
  8
0
 10
437.775611
 20
260.439371
 42
0.095023
  0
VERTEX
  8
0
 10
438.185198
 20
260.648719
 42
0.089045
  0
VERTEX
  8
0
 10
438.499283
 20
260.998840
 42
-0.100197
  0
VERTEX
  8
0
 10
438.957418
 20
261.487369
 42
-0.019006
  0
VERTEX
  8
0
 10
439.983799
 20
262.159467
 42
-0.019604
  0
VERTEX
  8
0
 10
441.263040
 20
262.862560
 42
-0.016893
  0
VERTEX
  8
0
 10
442.657771
 20
263.501474
 42
0.037536
  0
VERTEX
  8
0
 10
446.399261
 20
265.405863
 42
0.061429
  0
VERTEX
  8
0
 10
449.187138
 20
267.608024
 42
0.076328
  0
VERTEX
  8
0
 10
450.925313
 20
270.006180
 42
0.114922
  0
VERTEX
  8
0
 10
451.551406
 20
272.500000
 42
-0.031981
  0
VERTEX
  8
0
 10
451.652976
 20
273.750051
 42
-0.076984
  0
VERTEX
  8
0
 10
451.925453
 20
274.635029
 42
-0.130275
  0
VERTEX
  8
0
 10
452.344292
 20
275.120902
 42
-0.206061
  0
VERTEX
  8
0
 10
452.875736
 20
275.225223
 42
0.072450
  0
VERTEX
  8
0
 10
453.316806
 20
275.195205
 42
0.201669
  0
VERTEX
  8
0
 10
453.587410
 20
275.334265
 42
0.227457
  0
VERTEX
  8
0
 10
453.657837
 20
275.609161
 42
0.089505
  0
VERTEX
  8
0
 10
453.510948
 20
275.982286
 42
-0.309324
  0
VERTEX
  8
0
 10
453.557675
 20
276.988545
 42
-0.198052
  0
VERTEX
  8
0
 10
454.604113
 20
277.606420
 42
-0.099099
  0
VERTEX
  8
0
 10
456.507631
 20
277.501192
 42
-0.081999
  0
VERTEX
  8
0
 10
458.368202
 20
276.678314
 42
-0.052172
  0
VERTEX
  8
0
 10
459.485929
 20
275.766494
 42
-0.016241
  0
VERTEX
  8
0
 10
460.964130
 20
274.179048
 42
-0.016040
  0
VERTEX
  8
0
 10
462.511122
 20
272.286321
 42
-0.017032
  0
VERTEX
  8
0
 10
463.901523
 20
270.334957
 42
-0.009145
  0
VERTEX
  8
0
 10
465.658019
 20
267.574774
 42
-0.069773
  0
VERTEX
  8
0
 10
466.268749
 20
266.166225
 42
-0.173607
  0
VERTEX
  8
0
 10
466.198763
 20
265.222032
 42
-0.131157
  0
VERTEX
  8
0
 10
465.541041
 20
264.406352
 42
0.044549
  0
VERTEX
  8
0
 10
464.451134
 20
263.449637
 42
0.150798
  0
VERTEX
  8
0
 10
464.033907
 20
262.611746
 42
0.512942
  0
VERTEX
  8
0
 10
464.344754
 20
262.300795
 42
0.094950
  0
VERTEX
  8
0
 10
465.250000
 20
262.632941
 42
-0.037782
  0
VERTEX
  8
0
 10
465.736664
 20
262.877380
 42
-0.575929
  0
VERTEX
  8
0
 10
465.856995
 20
262.784926
 42
-0.129017
  0
VERTEX
  8
0
 10
465.723592
 20
262.456672
 42
-0.009720
  0
VERTEX
  8
0
 10
465.127555
 20
261.691958
 42
-0.040308
  0
VERTEX
  8
0
 10
464.509674
 20
261.044568
 42
-0.039032
  0
VERTEX
  8
0
 10
463.789577
 20
260.497013
 42
-0.041702
  0
VERTEX
  8
0
 10
463.078521
 20
260.118894
 42
-0.101694
  0
VERTEX
  8
0
 10
462.500000
 20
260.000000
 42
0.092812
  0
VERTEX
  8
0
 10
461.929773
 20
259.893232
 42
0.042584
  0
VERTEX
  8
0
 10
461.247892
 20
259.559375
 42
0.040219
  0
VERTEX
  8
0
 10
460.569085
 20
259.073934
 42
0.044245
  0
VERTEX
  8
0
 10
460.000000
 20
258.500000
 42
-0.061948
  0
VERTEX
  8
0
 10
459.389034
 20
257.925860
 42
-0.044145
  0
VERTEX
  8
0
 10
458.583861
 20
257.440625
 42
-0.044578
  0
VERTEX
  8
0
 10
457.718289
 20
257.109837
 42
-0.069094
  0
VERTEX
  8
0
 10
456.927245
 20
257.000000
 42
0.064543
  0
VERTEX
  8
0
 10
456.168743
 20
256.901679
 42
0.052390
  0
VERTEX
  8
0
 10
455.401407
 20
256.610660
 42
0.054125
  0
VERTEX
  8
0
 10
454.740260
 20
256.181900
 42
0.086325
  0
VERTEX
  8
0
 10
454.299690
 20
255.674589
 42
-0.096195
  0
VERTEX
  8
0
 10
453.424072
 20
254.705321
 42
-0.040318
  0
VERTEX
  8
0
 10
451.931128
 20
253.761557
 42
-0.037006
  0
VERTEX
  8
0
 10
450.080158
 20
252.958929
 42
-0.034199
  0
VERTEX
  8
0
 10
448.081959
 20
252.412780
 42
0.089875
  0
VERTEX
  8
0
 10
446.365679
 20
251.731844
 42
0.016619
  0
VERTEX
  8
0
 10
443.529177
 20
249.831797
 42
0.014191
  0
VERTEX
  8
0
 10
439.820220
 20
247.001549
 42
0.006004
  0
VERTEX
  8
0
 10
435.000000
 20
243.005293
 42
0.011314
  0
VERTEX
  8
0
 10
433.369522
 20
241.555380
 42
0.073053
  0
VERTEX
  8
0
 10
432.682743
 20
240.698196
 42
0.331795
  0
VERTEX
  8
0
 10
432.733533
 20
240.242934
 42
0.205271
  0
VERTEX
  8
0
 10
433.250000
 20
240.015973
 42
-0.052870
  0
VERTEX
  8
0
 10
433.919524
 20
239.938793
 42
-0.072250
  0
VERTEX
  8
0
 10
434.485937
 20
239.722575
 42
-0.091653
  0
VERTEX
  8
0
 10
434.866524
 20
239.407371
 42
-0.175854
  0
VERTEX
  8
0
 10
435.000000
 20
239.039600
 42
0.570246
  0
VERTEX
  8
0
 10
435.236765
 20
238.899509
 42
0.032016
  0
VERTEX
  8
0
 10
436.125246
 20
239.464284
 42
0.024263
  0
VERTEX
  8
0
 10
437.359824
 20
240.460107
 42
0.012032
  0
VERTEX
  8
0
 10
438.830626
 20
241.833979
 42
-0.038767
  0
VERTEX
  8
0
 10
440.932578
 20
243.596910
 42
-0.012483
  0
VERTEX
  8
0
 10
444.302946
 20
245.880227
 42
-0.012366
  0
VERTEX
  8
0
 10
448.193460
 20
248.242817
 42
-0.013552
  0
VERTEX
  8
0
 10
452.080626
 20
250.335770
 42
0.000000
  0
VERTEX
  8
0
 10
461.500000
 20
255.082782
 42
0.000000
  0
VERTEX
  8
0
 10
463.667024
 20
252.582092
 42
-0.086345
  0
VERTEX
  8
0
 10
464.891766
 20
250.547103
 42
-0.095200
  0
VERTEX
  8
0
 10
465.302268
 20
248.287139
 42
-0.106411
  0
VERTEX
  8
0
 10
464.838431
 20
246.233839
 42
-0.136476
  0
VERTEX
  8
0
 10
463.587716
 20
244.765313
 42
-0.043256
  0
VERTEX
  8
0
 10
462.451494
 20
244.133341
 42
-0.166240
  0
VERTEX
  8
0
 10
461.657664
 20
244.060367
 42
-0.363006
  0
VERTEX
  8
0
 10
461.356970
 20
244.467136
 42
-0.114073
  0
VERTEX
  8
0
 10
461.588051
 20
245.250000
 42
0.231918
  0
VERTEX
  8
0
 10
461.599970
 20
245.453850
 42
0.468767
  0
VERTEX
  8
0
 10
461.465959
 20
245.494824
 42
0.044340
  0
VERTEX
  8
0
 10
460.955472
 20
245.091552
 42
0.010466
  0
VERTEX
  8
0
 10
460.180897
 20
244.328125
 42
-0.031343
  0
VERTEX
  8
0
 10
459.205068
 20
243.443498
 42
-0.022758
  0
VERTEX
  8
0
 10
458.018675
 20
242.581668
 42
-0.023127
  0
VERTEX
  8
0
 10
456.812768
 20
241.864551
 42
-0.045761
  0
VERTEX
  8
0
 10
455.787667
 20
241.432608
 42
0.032077
  0
VERTEX
  8
0
 10
454.841138
 20
241.063890
 42
0.026317
  0
VERTEX
  8
0
 10
453.882547
 20
240.554781
 42
0.027089
  0
VERTEX
  8
0
 10
453.049271
 20
239.990798
 42
0.061187
  0
VERTEX
  8
0
 10
452.503838
 20
239.460437
 42
-0.088571
  0
VERTEX
  8
0
 10
451.912506
 20
238.945001
 42
-0.031568
  0
VERTEX
  8
0
 10
450.913628
 20
238.428609
 42
-0.030146
  0
VERTEX
  8
0
 10
449.722101
 20
237.988606
 42
-0.031214
  0
VERTEX
  8
0
 10
448.500000
 20
237.701089
 42
0.008478
  0
VERTEX
  8
0
 10
444.339705
 20
236.919904
 42
0.017599
  0
VERTEX
  8
0
 10
441.130005
 20
236.142050
 42
0.020143
  0
VERTEX
  8
0
 10
438.273749
 20
235.216912
 42
0.015711
  0
VERTEX
  8
0
 10
435.250000
 20
233.991849
 42
0.016120
  0
VERTEX
  8
0
 10
432.592301
 20
232.712640
 42
0.066547
  0
VERTEX
  8
0
 10
431.137021
 20
231.687418
 42
0.721625
  0
VERTEX
  8
0
 10
431.290459
 20
231.349304
 42
0.058303
  0
VERTEX
  8
0
 10
432.750000
 20
231.678563
 42
-0.010783
  0
VERTEX
  8
0
 10
433.684893
 20
231.985045
 42
-0.314511
  0
VERTEX
  8
0
 10
433.911560
 20
231.911384
 42
-0.349933
  0
VERTEX
  8
0
 10
433.905680
 20
231.685947
 42
-0.011952
  0
VERTEX
  8
0
 10
433.280030
 20
230.977208
 42
-0.092586
  0
VERTEX
  8
0
 10
432.472793
 20
230.377394
 42
-0.111394
  0
VERTEX
  8
0
 10
431.554760
 20
230.160003
 42
-0.066744
  0
VERTEX
  8
0
 10
430.286063
 20
230.316389
 42
-0.015711
  0
VERTEX
  8
0
 10
428.231879
 20
230.923473
 42
-0.021171
  0
VERTEX
  8
0
 10
426.586839
 20
231.544755
 42
-0.015298
  0
VERTEX
  8
0
 10
424.807996
 20
232.369278
 42
-0.015499
  0
VERTEX
  8
0
 10
423.163056
 20
233.258591
 42
-0.032170
  0
VERTEX
  8
0
 10
421.951850
 20
234.071207
 42
0.000000
  0
VERTEX
  8
0
 10
419.500000
 20
235.955528
 42
0.000000
  0
VERTEX
  8
0
 10
425.500000
 20
235.993077
 42
0.013369
  0
VERTEX
  8
0
 10
427.899603
 20
236.072279
 42
0.016071
  0
VERTEX
  8
0
 10
430.147824
 20
236.279406
 42
0.014837
  0
VERTEX
  8
0
 10
432.013142
 20
236.568350
 42
0.095566
  0
VERTEX
  8
0
 10
432.896846
 20
236.915086
 42
0.755685
  0
VERTEX
  8
0
 10
432.701007
 20
237.576358
 42
0.005232
  0
VERTEX
  8
0
 10
423.651143
 20
237.378568
 42
0.009131
  0
VERTEX
  8
0
 10
413.231125
 20
236.851104
 42
0.009571
  0
VERTEX
  8
0
 10
403.000000
 20
235.948628
 42
-0.004195
  0
VERTEX
  8
0
 10
398.892831
 20
235.541791
 42
-0.003230
  0
VERTEX
  8
0
 10
394.404565
 20
235.164413
 42
-0.003266
  0
VERTEX
  8
0
 10
390.204440
 20
234.866156
 42
-0.007780
  0
VERTEX
  8
0
 10
387.079369
 20
234.713523
 42
0.012988
  0
VERTEX
  8
0
 10
384.159669
 20
234.540423
 42
0.035220
  0
VERTEX
  8
0
 10
382.112110
 20
234.219220
 42
0.051166
  0
VERTEX
  8
0
 10
380.769370
 20
233.761914
 42
0.208224
  0
VERTEX
  8
0
 10
380.207138
 20
233.133308
 42
0.201880
  0
VERTEX
  8
0
 10
380.255879
 20
232.519708
 42
0.211333
  0
VERTEX
  8
0
 10
380.727391
 20
232.141068
 42
0.075242
  0
VERTEX
  8
0
 10
381.823490
 20
232.020178
 42
0.013682
  0
VERTEX
  8
0
 10
383.869232
 20
232.158920
 42
-0.016666
  0
VERTEX
  8
0
 10
385.464331
 20
232.257539
 42
-0.025437
  0
VERTEX
  8
0
 10
386.850473
 20
232.226422
 42
-0.022905
  0
VERTEX
  8
0
 10
387.929667
 20
232.097267
 42
-0.270901
  0
VERTEX
  8
0
 10
388.241463
 20
231.837820
 42
0.286461
  0
VERTEX
  8
0
 10
388.621122
 20
231.540026
 42
0.003305
  0
VERTEX
  8
0
 10
391.949055
 20
231.204269
 42
0.008807
  0
VERTEX
  8
0
 10
395.881103
 20
230.903561
 42
0.005484
  0
VERTEX
  8
0
 10
400.500000
 20
230.682851
 42
-0.005108
  0
VERTEX
  8
0
 10
405.223946
 20
230.460676
 42
-0.006904
  0
VERTEX
  8
0
 10
409.489063
 20
230.157254
 42
-0.004845
  0
VERTEX
  8
0
 10
413.045459
 20
229.820103
 42
-0.072586
  0
VERTEX
  8
0
 10
414.250000
 20
229.513654
 42
0.045641
  0
VERTEX
  8
0
 10
414.942543
 20
229.297280
 42
0.096481
  0
VERTEX
  8
0
 10
415.502732
 20
229.286500
 42
0.157477
  0
VERTEX
  8
0
 10
415.859679
 20
229.474840
 42
0.195665
  0
VERTEX
  8
0
 10
416.000000
 20
229.819687
 42
0.147005
  0
VERTEX
  8
0
 10
415.870995
 20
230.248982
 42
0.070443
  0
VERTEX
  8
0
 10
415.485937
 20
230.684051
 42
0.060582
  0
VERTEX
  8
0
 10
414.919359
 20
231.059020
 42
0.052049
  0
VERTEX
  8
0
 10
414.250000
 20
231.310674
 42
-0.423574
  0
VERTEX
  8
0
 10
414.152946
 20
231.482623
 42
-0.282799
  0
VERTEX
  8
0
 10
414.335938
 20
231.647088
 42
-0.033255
  0
VERTEX
  8
0
 10
415.374597
 20
231.766472
 42
-0.009449
  0
VERTEX
  8
0
 10
417.000000
 20
231.813713
 42
-0.015266
  0
VERTEX
  8
0
 10
418.864168
 20
231.775734
 42
-0.014750
  0
VERTEX
  8
0
 10
420.744148
 20
231.624264
 42
-0.014838
  0
VERTEX
  8
0
 10
422.389658
 20
231.393101
 42
-0.051077
  0
VERTEX
  8
0
 10
423.426885
 20
231.104581
 42
-0.009780
  0
VERTEX
  8
0
 10
424.592320
 20
230.621527
 42
-0.262779
  0
VERTEX
  8
0
 10
424.786416
 20
230.363199
 42
-0.331711
  0
VERTEX
  8
0
 10
424.644543
 20
230.109651
 42
-0.013416
  0
VERTEX
  8
0
 10
423.613503
 20
229.681929
 42
0.154284
  0
VERTEX
  8
0
 10
422.476524
 20
228.776401
 42
0.406619
  0
VERTEX
  8
0
 10
422.645932
 20
227.847111
 42
0.139746
  0
VERTEX
  8
0
 10
424.360521
 20
227.239853
 42
0.055543
  0
VERTEX
  8
0
 10
426.877132
 20
227.361447
 42
-0.008083
  0
VERTEX
  8
0
 10
428.653411
 20
227.617353
 42
-0.087153
  0
VERTEX
  8
0
 10
429.375933
 20
227.583406
 42
-0.543903
  0
VERTEX
  8
0
 10
429.466402
 20
227.338368
 42
-0.078586
  0
VERTEX
  8
0
 10
429.000000
 20
226.884912
 42
0.013488
  0
VERTEX
  8
0
 10
428.248979
 20
226.324048
 42
0.491500
  0
VERTEX
  8
0
 10
428.251086
 20
226.137262
 42
0.211920
  0
VERTEX
  8
0
 10
428.537920
 20
226.070644
 42
0.006576
  0
VERTEX
  8
0
 10
429.750000
 20
226.319634
 42
-0.036889
  0
VERTEX
  8
0
 10
430.612199
 20
226.442905
 42
-0.062559
  0
VERTEX
  8
0
 10
431.339063
 20
226.401655
 42
-0.092441
  0
VERTEX
  8
0
 10
431.827614
 20
226.214408
 42
-0.260791
  0
VERTEX
  8
0
 10
432.000000
 20
225.906380
 42
0.287101
  0
VERTEX
  8
0
 10
432.417479
 20
225.239252
 42
0.128186
  0
VERTEX
  8
0
 10
433.475728
 20
225.027499
 42
0.098518
  0
VERTEX
  8
0
 10
434.726571
 20
225.352087
 42
0.142688
  0
VERTEX
  8
0
 10
435.569098
 20
226.111803
 42
0.120673
  0
VERTEX
  8
0
 10
435.727319
 20
226.600034
 42
0.100718
  0
VERTEX
  8
0
 10
435.657796
 20
227.142120
 42
0.091735
  0
VERTEX
  8
0
 10
435.369890
 20
227.655295
 42
0.080924
  0
VERTEX
  8
0
 10
434.906140
 20
228.058008
 42
-0.053630
  0
VERTEX
  8
0
 10
434.324825
 20
228.509851
 42
-0.303157
  0
VERTEX
  8
0
 10
434.245509
 20
228.874445
 42
-0.187168
  0
VERTEX
  8
0
 10
434.566969
 20
229.223304
 42
-0.023434
  0
VERTEX
  8
0
 10
435.528025
 20
229.640251
 42
0.029276
  0
VERTEX
  8
0
 10
436.379419
 20
230.021496
 42
0.019484
  0
VERTEX
  8
0
 10
437.308461
 20
230.551597
 42
0.019639
  0
VERTEX
  8
0
 10
438.172638
 20
231.138696
 42
0.035885
  0
VERTEX
  8
0
 10
438.819927
 20
231.692545
 42
-0.060171
  0
VERTEX
  8
0
 10
439.515041
 20
232.231253
 42
-0.026966
  0
VERTEX
  8
0
 10
440.539397
 20
232.771318
 42
-0.026220
  0
VERTEX
  8
0
 10
441.697032
 20
233.232139
 42
-0.032251
  0
VERTEX
  8
0
 10
442.819927
 20
233.533182
 42
0.009552
  0
VERTEX
  8
0
 10
444.066256
 20
233.807386
 42
0.004930
  0
VERTEX
  8
0
 10
445.614834
 20
234.195424
 42
0.004898
  0
VERTEX
  8
0
 10
447.200028
 20
234.625921
 42
0.007395
  0
VERTEX
  8
0
 10
448.570998
 20
235.034683
 42
-0.020174
  0
VERTEX
  8
0
 10
449.938003
 20
235.404506
 42
-0.013962
  0
VERTEX
  8
0
 10
451.509511
 20
235.716438
 42
-0.014103
  0
VERTEX
  8
0
 10
453.038825
 20
235.931669
 42
-0.027911
  0
VERTEX
  8
0
 10
454.261981
 20
236.000000
 42
0.035139
  0
VERTEX
  8
0
 10
455.310190
 20
236.073757
 42
0.039781
  0
VERTEX
  8
0
 10
456.293893
 20
236.293750
 42
0.043601
  0
VERTEX
  8
0
 10
457.083135
 20
236.615118
 42
0.136689
  0
VERTEX
  8
0
 10
457.500000
 20
237.000000
 42
-0.112213
  0
VERTEX
  8
0
 10
457.877249
 20
237.383588
 42
-0.050097
  0
VERTEX
  8
0
 10
458.512247
 20
237.706250
 42
-0.046123
  0
VERTEX
  8
0
 10
459.282466
 20
237.925931
 42
-0.046449
  0
VERTEX
  8
0
 10
460.078069
 20
238.000000
 42
-0.061440
  0
VERTEX
  8
0
 10
461.070137
 20
237.877632
 42
-0.226085
  0
VERTEX
  8
0
 10
461.544700
 20
237.485841
 42
-0.147368
  0
VERTEX
  8
0
 10
461.653244
 20
236.733704
 42
-0.023190
  0
VERTEX
  8
0
 10
461.359151
 20
235.250000
 42
-0.046042
  0
VERTEX
  8
0
 10
460.947224
 20
234.063160
 42
-0.029335
  0
VERTEX
  8
0
 10
460.265673
 20
232.769040
 42
-0.029385
  0
VERTEX
  8
0
 10
459.440234
 20
231.568039
 42
-0.047445
  0
VERTEX
  8
0
 10
458.590099
 20
230.665881
 42
0.027716
  0
VERTEX
  8
0
 10
457.786804
 20
229.878053
 42
0.030275
  0
VERTEX
  8
0
 10
457.100614
 20
229.028057
 42
0.031730
  0
VERTEX
  8
0
 10
456.609618
 20
228.236481
 42
0.113683
  0
VERTEX
  8
0
 10
456.454545
 20
227.665881
 42
-0.123236
  0
VERTEX
  8
0
 10
456.331631
 20
227.245100
 42
-0.122372
  0
VERTEX
  8
0
 10
456.024780
 20
226.930524
 42
-0.109558
  0
VERTEX
  8
0
 10
455.575720
 20
226.773669
 42
-0.084122
  0
VERTEX
  8
0
 10
455.055343
 20
226.799734
 42
0.058409
  0
VERTEX
  8
0
 10
454.421611
 20
226.864094
 42
0.030479
  0
VERTEX
  8
0
 10
453.629024
 20
226.803410
 42
0.029841
  0
VERTEX
  8
0
 10
452.812903
 20
226.640507
 42
0.039971
  0
VERTEX
  8
0
 10
452.100797
 20
226.391345
 42
-0.092357
  0
VERTEX
  8
0
 10
445.913058
 20
224.927581
 42
-0.013161
  0
VERTEX
  8
0
 10
432.813453
 20
224.642261
 42
-0.014932
  0
VERTEX
  8
0
 10
419.631429
 20
225.095958
 42
-0.060841
  0
VERTEX
  8
0
 10
411.765021
 20
226.574579
 42
0.050185
  0
VERTEX
  8
0
 10
411.089029
 20
226.716575
 42
0.087168
  0
VERTEX
  8
0
 10
410.518475
 20
226.678212
 42
0.130232
  0
VERTEX
  8
0
 10
410.142771
 20
226.472943
 42
0.205770
  0
VERTEX
  8
0
 10
410.000000
 20
226.140712
 42
-0.149860
  0
VERTEX
  8
0
 10
409.872043
 20
225.723380
 42
-0.067262
  0
VERTEX
  8
0
 10
409.485937
 20
225.291360
 42
-0.057824
  0
VERTEX
  8
0
 10
408.919433
 20
224.910722
 42
-0.049302
  0
VERTEX
  8
0
 10
408.250000
 20
224.645220
 42
0.155198
  0
VERTEX
  8
0
 10
408.076242
 20
224.529634
 42
0.635915
  0
VERTEX
  8
0
 10
408.115625
 20
224.449533
 42
0.025432
  0
VERTEX
  8
0
 10
408.902271
 20
224.504557
 42
0.005543
  0
VERTEX
  8
0
 10
410.250000
 20
224.683187
 42
-0.020576
  0
VERTEX
  8
0
 10
411.860871
 20
224.847601
 42
-0.053026
  0
VERTEX
  8
0
 10
413.027731
 20
224.794605
 42
-0.091244
  0
VERTEX
  8
0
 10
413.746833
 20
224.545621
 42
-0.270172
  0
VERTEX
  8
0
 10
414.000000
 20
224.111291
 42
-0.316491
  0
VERTEX
  8
0
 10
413.667635
 20
223.638808
 42
-0.040419
  0
VERTEX
  8
0
 10
412.400218
 20
223.296304
 42
-0.031855
  0
VERTEX
  8
0
 10
410.516105
 20
223.070169
 42
-0.013941
  0
VERTEX
  8
0
 10
408.000000
 20
223.000000
 42
-0.013976
  0
VERTEX
  8
0
 10
405.488692
 20
223.070207
 42
-0.031705
  0
VERTEX
  8
0
 10
403.603292
 20
223.296184
 42
-0.039949
  0
VERTEX
  8
0
 10
402.331822
 20
223.637870
 42
-0.317136
  0
VERTEX
  8
0
 10
402.000000
 20
224.108408
 42
0.215337
  0
VERTEX
  8
0
 10
401.817951
 20
224.511515
 42
0.130318
  0
VERTEX
  8
0
 10
401.341075
 20
224.749703
 42
0.077907
  0
VERTEX
  8
0
 10
400.575633
 20
224.786897
 42
0.034753
  0
VERTEX
  8
0
 10
399.579463
 20
224.609300
 42
-0.039051
  0
VERTEX
  8
0
 10
398.518651
 20
224.429561
 42
-0.029166
  0
VERTEX
  8
0
 10
397.332554
 20
224.392230
 42
-0.029785
  0
VERTEX
  8
0
 10
396.204148
 20
224.489972
 42
-0.057506
  0
VERTEX
  8
0
 10
395.329463
 20
224.723446
 42
-0.033723
  0
VERTEX
  8
0
 10
394.471226
 20
225.130792
 42
-0.477852
  0
VERTEX
  8
0
 10
394.421480
 20
225.422898
 42
-0.154941
  0
VERTEX
  8
0
 10
394.871396
 20
225.692895
 42
-0.008495
  0
VERTEX
  8
0
 10
396.500000
 20
226.050368
 42
0.000000
  0
VERTEX
  8
0
 10
399.500000
 20
226.655628
 42
0.000000
  0
VERTEX
  8
0
 10
396.751150
 20
227.987805
 42
0.047480
  0
VERTEX
  8
0
 10
395.086917
 20
228.607374
 42
0.064311
  0
VERTEX
  8
0
 10
393.498327
 20
228.820000
 42
0.046459
  0
VERTEX
  8
0
 10
391.550362
 20
228.647662
 42
0.013590
  0
VERTEX
  8
0
 10
388.605670
 20
228.025350
 42
-0.034989
  0
VERTEX
  8
0
 10
384.666257
 20
227.367367
 42
-0.048725
  0
VERTEX
  8
0
 10
381.093587
 20
227.373887
 42
-0.081219
  0
VERTEX
  8
0
 10
378.840284
 20
227.976406
 42
-0.452887
  0
VERTEX
  8
0
 10
378.518119
 20
229.029317
 42
0.129518
  0
VERTEX
  8
0
 10
378.630595
 20
229.398177
 42
0.189663
  0
VERTEX
  8
0
 10
378.519816
 20
229.714862
 42
0.145519
  0
VERTEX
  8
0
 10
378.186963
 20
229.928403
 42
0.070466
  0
VERTEX
  8
0
 10
377.681462
 20
230.000000
 42
-0.131109
  0
VERTEX
  8
0
 10
376.297118
 20
230.369348
 42
-0.093064
  0
VERTEX
  8
0
 10
375.069383
 20
231.418349
 42
-0.127031
  0
VERTEX
  8
0
 10
374.531488
 20
232.605457
 42
-0.306587
  0
VERTEX
  8
0
 10
374.907768
 20
233.442997
 42
0.138464
  0
VERTEX
  8
0
 10
375.243535
 20
233.809219
 42
0.078561
  0
VERTEX
  8
0
 10
375.428422
 20
234.386271
 42
0.068197
  0
VERTEX
  8
0
 10
375.440254
 20
235.078836
 42
0.059902
  0
VERTEX
  8
0
 10
375.269095
 20
235.782025
 42
-0.011811
  0
VERTEX
  8
0
 10
374.922811
 20
236.777387
 42
-0.423863
  0
VERTEX
  8
0
 10
375.026633
 20
236.971736
 42
-0.238262
  0
VERTEX
  8
0
 10
375.315538
 20
236.916338
 42
-0.006466
  0
VERTEX
  8
0
 10
376.355151
 20
236.092382
 42
0.038942
  0
VERTEX
  8
0
 10
377.230741
 20
235.486553
 42
0.105781
  0
VERTEX
  8
0
 10
377.943889
 20
235.252870
 42
0.137038
  0
VERTEX
  8
0
 10
378.575813
 20
235.359072
 42
0.086845
  0
VERTEX
  8
0
 10
379.191010
 20
235.791010
 42
0.221158
  0
VERTEX
  8
0
 10
379.414494
 20
236.403078
 42
0.189346
  0
VERTEX
  8
0
 10
379.107650
 20
237.023212
 42
0.073221
  0
VERTEX
  8
0
 10
378.085342
 20
237.708996
 42
0.016022
  0
VERTEX
  8
0
 10
376.139513
 20
238.560855
 42
-0.028389
  0
VERTEX
  8
0
 10
374.184509
 20
239.474969
 42
-0.057961
  0
VERTEX
  8
0
 10
372.797997
 20
240.443883
 42
-0.072525
  0
VERTEX
  8
0
 10
371.874320
 20
241.539893
 42
-0.077549
  0
VERTEX
  8
0
 10
371.327822
 20
242.829991
 42
-0.048995
  0
VERTEX
  8
0
 10
370.780069
 20
246.504128
 42
-0.020919
  0
VERTEX
  8
0
 10
370.739033
 20
251.478081
 42
-0.020406
  0
VERTEX
  8
0
 10
371.101106
 20
256.336454
 42
-0.064363
  0
VERTEX
  8
0
 10
371.887839
 20
259.500000
 42
0.001272
  0
VERTEX
  8
0
 10
372.370570
 20
260.745525
 42
0.001231
  0
VERTEX
  8
0
 10
372.852274
 20
262.007104
 42
0.001215
  0
VERTEX
  8
0
 10
373.270776
 20
263.119451
 42
0.004534
  0
VERTEX
  8
0
 10
373.525935
 20
263.822055
 42
-0.141745
  0
VERTEX
  8
0
 10
373.872487
 20
264.306563
 42
-0.075839
  0
VERTEX
  8
0
 10
374.517503
 20
264.673222
 42
-0.065507
  0
VERTEX
  8
0
 10
375.349683
 20
264.872186
 42
-0.057032
  0
VERTEX
  8
0
 10
376.246265
 20
264.863142
 42
0.129042
  0
VERTEX
  8
0
 10
378.175557
 20
265.120551
 42
0.036942
  0
VERTEX
  8
0
 10
380.897453
 20
266.479821
 42
0.021010
  0
VERTEX
  8
0
 10
384.932975
 20
269.118113
 42
0.004310
  0
VERTEX
  8
0
 10
391.814967
 20
274.132219
 42
-0.014621
  0
VERTEX
  8
0
 10
393.572231
 20
275.357878
 42
-0.017954
  0
VERTEX
  8
0
 10
395.283953
 20
276.393006
 42
-0.016581
  0
VERTEX
  8
0
 10
396.762946
 20
277.153284
 42
-0.110867
  0
VERTEX
  8
0
 10
397.564967
 20
277.333333
 42
0.060293
  0
VERTEX
  8
0
 10
398.113741
 20
277.399749
 42
0.079024
  0
VERTEX
  8
0
 10
398.578459
 20
277.595461
 42
0.097132
  0
VERTEX
  8
0
 10
398.889631
 20
277.885334
 42
0.158088
  0
VERTEX
  8
0
 10
399.000000
 20
278.225684
 42
-0.167957
  0
VERTEX
  8
0
 10
399.096273
 20
278.504197
 42
-0.190119
  0
VERTEX
  8
0
 10
399.339137
 20
278.646308
 42
-0.121259
  0
VERTEX
  8
0
 10
399.711990
 20
278.613536
 42
-0.056200
  0
VERTEX
  8
0
 10
400.154508
 20
278.404508
 42
0.031290
  0
VERTEX
  8
0
 10
400.576161
 20
278.179055
 42
0.231564
  0
VERTEX
  8
0
 10
400.797488
 20
278.184955
 42
0.374598
  0
VERTEX
  8
0
 10
400.859242
 20
278.343138
 42
0.052282
  0
VERTEX
  8
0
 10
400.693776
 20
278.686464
 42
-0.360783
  0
VERTEX
  8
0
 10
400.902119
 20
280.176509
 42
-0.051865
  0
VERTEX
  8
0
 10
403.568149
 20
282.143877
 42
-0.045834
  0
VERTEX
  8
0
 10
407.360767
 20
283.931664
 42
-0.046922
  0
VERTEX
  8
0
 10
411.386082
 20
284.981459
 42
0.040326
  0
VERTEX
  8
0
 10
418.218054
 20
286.667470
 42
0.040314
  0
VERTEX
  8
0
 10
424.691527
 20
289.428407
 42
0.041147
  0
VERTEX
  8
0
 10
429.639548
 20
292.571886
 42
0.233812
  0
VERTEX
  8
0
 10
430.993167
 20
295.282119
 42
-0.051936
  0
VERTEX
  8
0
 10
431.092504
 20
296.201640
 42
-0.015249
  0
VERTEX
  8
0
 10
431.433074
 20
297.582037
 42
-0.015137
  0
VERTEX
  8
0
 10
431.913669
 20
299.121172
 42
-0.015714
  0
VERTEX
  8
0
 10
432.481129
 20
300.609077
 42
-0.071551
  0
VERTEX
  8
0
 10
433.917080
 20
303.012027
 42
-0.224894
  0
VERTEX
  8
0
 10
435.568220
 20
303.803262
 42
-0.217852
  0
VERTEX
  8
0
 10
437.266757
 20
303.035445
 42
-0.067678
  0
SEQEND
  0
POLYLINE
  8
0
 66
1
 70
1
  0
VERTEX
  8
0
 10
377.418213
 20
268.393011
 42
-0.082797
  0
VERTEX
  8
0
 10
378.021724
 20
268.038086
 42
-0.066542
  0
VERTEX
  8
0
 10
378.530852
 20
267.481691
 42
-0.067105
  0
VERTEX
  8
0
 10
378.872255
 20
266.816475
 42
-0.087593
  0
VERTEX
  8
0
 10
378.984687
 20
266.143011
 42
-0.024591
  0
VERTEX
  8
0
 10
378.943844
 20
265.445544
 42
-0.230745
  0
VERTEX
  8
0
 10
378.788374
 20
265.198235
 42
-0.362440
  0
VERTEX
  8
0
 10
378.560412
 20
265.230221
 42
-0.042380
  0
VERTEX
  8
0
 10
378.224670
 20
265.670716
 42
0.142909
  0
VERTEX
  8
0
 10
376.714280
 20
266.996372
 42
0.097485
  0
VERTEX
  8
0
 10
374.482416
 20
267.547518
 42
0.088395
  0
VERTEX
  8
0
 10
372.007267
 20
267.227478
 42
0.090646
  0
VERTEX
  8
0
 10
369.819096
 20
266.072341
 42
0.070490
  0
VERTEX
  8
0
 10
367.583158
 20
263.736424
 42
0.112897
  0
VERTEX
  8
0
 10
366.518194
 20
261.203049
 42
0.127604
  0
VERTEX
  8
0
 10
366.722105
 20
258.682801
 42
0.105291
  0
VERTEX
  8
0
 10
368.122528
 20
256.369575
 42
-0.008853
  0
VERTEX
  8
0
 10
369.369206
 20
254.994552
 42
-0.129146
  0
VERTEX
  8
0
 10
369.658797
 20
254.412839
 42
-0.406798
  0
VERTEX
  8
0
 10
369.457700
 20
254.097485
 42
-0.057669
  0
VERTEX
  8
0
 10
368.615297
 20
254.000000
 42
-0.053632
  0
VERTEX
  8
0
 10
367.992180
 20
254.067030
 42
-0.116215
  0
VERTEX
  8
0
 10
367.560135
 20
254.273452
 42
-0.188409
  0
VERTEX
  8
0
 10
367.384979
 20
254.578491
 42
-0.177418
  0
VERTEX
  8
0
 10
367.457295
 20
254.930902
 42
0.125136
  0
VERTEX
  8
0
 10
367.586446
 20
255.341712
 42
0.100780
  0
VERTEX
  8
0
 10
367.519225
 20
255.801199
 42
0.090277
  0
VERTEX
  8
0
 10
367.264707
 20
256.239390
 42
0.077893
  0
VERTEX
  8
0
 10
366.860214
 20
256.586393
 42
0.437686
  0
VERTEX
  8
0
 10
366.352764
 20
256.445099
 42
0.097416
  0
VERTEX
  8
0
 10
366.072716
 20
255.470775
 42
0.033630
  0
VERTEX
  8
0
 10
366.034341
 20
253.388611
 42
0.006670
  0
VERTEX
  8
0
 10
366.265966
 20
249.666341
 42
-0.009162
  0
VERTEX
  8
0
 10
366.435465
 20
246.704346
 42
-0.014087
  0
VERTEX
  8
0
 10
366.462850
 20
244.136634
 42
-0.008437
  0
VERTEX
  8
0
 10
366.390268
 20
242.026357
 42
-0.246299
  0
VERTEX
  8
0
 10
366.124319
 20
241.576833
 42
-0.196759
  0
VERTEX
  8
0
 10
365.305459
 20
241.440464
 42
-0.096371
  0
VERTEX
  8
0
 10
364.321116
 20
241.874956
 42
-0.076027
  0
VERTEX
  8
0
 10
363.365330
 20
242.782644
 42
-0.061498
  0
VERTEX
  8
0
 10
362.641226
 20
244.000000
 42
0.827670
  0
VERTEX
  8
0
 10
362.086241
 20
243.872547
 42
0.006835
  0
VERTEX
  8
0
 10
362.499976
 20
235.827750
 42
0.007530
  0
VERTEX
  8
0
 10
363.193315
 20
227.191782
 42
0.045351
  0
VERTEX
  8
0
 10
364.024114
 20
222.772185
 42
0.000000
  0
VERTEX
  8
0
 10
365.081757
 20
219.044369
 42
0.000000
  0
VERTEX
  8
0
 10
372.145542
 20
219.174813
 42
0.012508
  0
VERTEX
  8
0
 10
376.016323
 20
219.343214
 42
0.045968
  0
VERTEX
  8
0
 10
378.433801
 20
219.734248
 42
0.065131
  0
VERTEX
  8
0
 10
380.277917
 20
220.475761
 42
0.046813
  0
VERTEX
  8
0
 10
382.104664
 20
221.741522
 42
-0.019095
  0
VERTEX
  8
0
 10
383.216703
 20
222.606938
 42
-0.040684
  0
VERTEX
  8
0
 10
384.149495
 20
223.168384
 42
-0.074920
  0
VERTEX
  8
0
 10
384.774768
 20
223.369319
 42
-0.462308
  0
VERTEX
  8
0
 10
385.000000
 20
223.177787
 42
-0.205492
  0
VERTEX
  8
0
 10
384.400239
 20
221.780079
 42
-0.023271
  0
VERTEX
  8
0
 10
381.738082
 20
219.475253
 42
-0.028449
  0
VERTEX
  8
0
 10
378.743886
 20
217.381821
 42
-0.076996
  0
VERTEX
  8
0
 10
376.362527
 20
216.376140
 42
-0.040723
  0
VERTEX
  8
0
 10
375.137184
 20
216.172729
 42
-0.016914
  0
VERTEX
  8
0
 10
373.460040
 20
216.090016
 42
-0.016603
  0
VERTEX
  8
0
 10
371.648045
 20
216.122184
 42
-0.020598
  0
VERTEX
  8
0
 10
369.968947
 20
216.277340
 42
0.012281
  0
VERTEX
  8
0
 10
367.673356
 20
216.528025
 42
0.123132
  0
VERTEX
  8
0
 10
366.728388
 20
216.374732
 42
0.257336
  0
VERTEX
  8
0
 10
366.309844
 20
215.836784
 42
0.065509
  0
VERTEX
  8
0
 10
366.279347
 20
214.691895
 42
-0.158597
  0
VERTEX
  8
0
 10
365.940905
 20
213.106928
 42
-0.200849
  0
VERTEX
  8
0
 10
364.759028
 20
212.209530
 42
-0.209034
  0
VERTEX
  8
0
 10
363.329213
 20
212.438999
 42
-0.166596
  0
VERTEX
  8
0
 10
362.350383
 20
213.676093
 42
0.050183
  0
VERTEX
  8
0
 10
361.934293
 20
214.561085
 42
0.016799
  0
VERTEX
  8
0
 10
361.158014
 20
215.763249
 42
0.016525
  0
VERTEX
  8
0
 10
360.203796
 20
217.044826
 42
0.018141
  0
VERTEX
  8
0
 10
359.194989
 20
218.220073
 42
0.000000
  0
VERTEX
  8
0
 10
356.683162
 20
220.940145
 42
0.000000
  0
VERTEX
  8
0
 10
357.758831
 20
233.797247
 42
-0.020183
  0
VERTEX
  8
0
 10
359.016205
 20
243.899350
 42
-0.026631
  0
VERTEX
  8
0
 10
361.017645
 20
252.958383
 42
-0.030012
  0
VERTEX
  8
0
 10
363.596277
 20
260.469649
 42
-0.065179
  0
VERTEX
  8
0
 10
366.625739
 20
265.750000
 42
-0.031266
  0
VERTEX
  8
0
 10
368.017349
 20
267.357430
 42
-0.071910
  0
VERTEX
  8
0
 10
369.286927
 20
268.324881
 42
-0.080173
  0
VERTEX
  8
0
 10
370.687996
 20
268.832466
 42
-0.046927
  0
VERTEX
  8
0
 10
372.469104
 20
269.000000
 42
-0.015863
  0
VERTEX
  8
0
 10
373.874326
 20
268.955406
 42
-0.014648
  0
VERTEX
  8
0
 10
375.311925
 20
268.821697
 42
-0.014823
  0
VERTEX
  8
0
 10
376.584850
 20
268.627124
 42
-0.046304
  0
SEQEND
  0
POLYLINE
  8
0
 66
1
 70
1
  0
VERTEX
  8
0
 10
370.000000
 20
263.000000
 42
-0.105053
  0
VERTEX
  8
0
 10
369.918938
 20
262.618444
 42
-0.099167
  0
VERTEX
  8
0
 10
369.688914
 20
262.293750
 42
-0.096420
  0
VERTEX
  8
0
 10
369.345238
 20
262.076123
 42
-0.093332
  0
VERTEX
  8
0
 10
368.940983
 20
262.000000
 42
-0.108972
  0
VERTEX
  8
0
 10
368.586039
 20
262.078288
 42
-0.182303
  0
VERTEX
  8
0
 10
368.374600
 20
262.293750
 42
-0.161196
  0
VERTEX
  8
0
 10
368.343488
 20
262.617900
 42
-0.082592
  0
VERTEX
  8
0
 10
368.500000
 20
263.000000
 42
-0.029505
  0
VERTEX
  8
0
 10
368.768994
 20
263.382774
 42
-0.035638
  0
VERTEX
  8
0
 10
369.066025
 20
263.706250
 42
-0.038439
  0
VERTEX
  8
0
 10
369.348290
 20
263.934461
 42
-0.151918
  0
VERTEX
  8
0
 10
369.559017
 20
264.000000
 42
-0.210953
  0
VERTEX
  8
0
 10
369.727648
 20
263.925540
 42
-0.081139
  0
VERTEX
  8
0
 10
369.870461
 20
263.706250
 42
-0.061769
  0
VERTEX
  8
0
 10
369.967655
 20
263.382849
 42
-0.042167
  0
SEQEND
  0
POLYLINE
  8
0
 66
1
 70
1
  0
VERTEX
  8
0
 10
368.683114
 20
244.812500
 42
-0.054073
  0
VERTEX
  8
0
 10
368.461564
 20
244.395823
 42
-0.470617
  0
VERTEX
  8
0
 10
368.279315
 20
244.378580
 42
-0.168741
  0
VERTEX
  8
0
 10
368.137993
 20
244.670344
 42
-0.018894
  0
VERTEX
  8
0
 10
368.078947
 20
245.416667
 42
-0.028489
  0
VERTEX
  8
0
 10
368.089945
 20
246.112848
 42
-0.077125
  0
VERTEX
  8
0
 10
368.200665
 20
246.592839
 42
-0.208169
  0
VERTEX
  8
0
 10
368.385309
 20
246.775380
 42
-0.296942
  0
VERTEX
  8
0
 10
368.604167
 20
246.729167
 42
-0.126455
  0
VERTEX
  8
0
 10
368.797407
 20
246.402231
 42
-0.060344
  0
VERTEX
  8
0
 10
368.876576
 20
245.916927
 42
-0.054150
  0
VERTEX
  8
0
 10
368.839148
 20
245.359369
 42
-0.051402
  0
SEQEND
  0
POLYLINE
  8
0
 66
1
 70
1
  0
VERTEX
  8
0
 10
416.360687
 20
233.937723
 42
-0.056849
  0
VERTEX
  8
0
 10
415.392865
 20
233.700125
 42
-0.026226
  0
VERTEX
  8
0
 10
414.097885
 20
233.603180
 42
-0.025569
  0
VERTEX
  8
0
 10
412.710510
 20
233.643208
 42
-0.032247
  0
VERTEX
  8
0
 10
411.439717
 20
233.828051
 42
-0.004183
  0
VERTEX
  8
0
 10
409.497903
 20
234.256736
 42
-0.569894
  0
VERTEX
  8
0
 10
409.438093
 20
234.443984
 42
-0.175746
  0
VERTEX
  8
0
 10
409.767404
 20
234.622203
 42
-0.001691
  0
VERTEX
  8
0
 10
412.500000
 20
235.020478
 42
-0.020035
  0
VERTEX
  8
0
 10
415.469171
 20
235.322239
 42
-0.083859
  0
VERTEX
  8
0
 10
417.248219
 20
235.132760
 42
-0.568113
  0
VERTEX
  8
0
 10
417.389844
 20
234.608983
 42
-0.112287
  0
SEQEND
  0
POLYLINE
  8
0
 66
1
 70
1
  0
VERTEX
  8
0
 10
404.250000
 20
233.337719
 42
-0.057986
  0
VERTEX
  8
0
 10
403.679992
 20
233.181385
 42
-0.037979
  0
VERTEX
  8
0
 10
403.000000
 20
233.129660
 42
-0.037979
  0
VERTEX
  8
0
 10
402.320008
 20
233.181385
 42
-0.057986
  0
VERTEX
  8
0
 10
401.750000
 20
233.337719
 42
-0.174857
  0
VERTEX
  8
0
 10
401.540618
 20
233.525001
 42
-0.447206
  0
VERTEX
  8
0
 10
401.601562
 20
233.693942
 42
-0.078554
  0
VERTEX
  8
0
 10
402.108560
 20
233.810911
 42
-0.017491
  0
VERTEX
  8
0
 10
403.000000
 20
233.842105
 42
-0.017491
  0
VERTEX
  8
0
 10
403.891440
 20
233.810911
 42
-0.078554
  0
VERTEX
  8
0
 10
404.398438
 20
233.693942
 42
-0.447206
  0
VERTEX
  8
0
 10
404.459382
 20
233.525001
 42
-0.174857
  0
SEQEND
  0
POLYLINE
  8
0
 66
1
 70
1
  0
VERTEX
  8
0
 10
373.361626
 20
231.500000
 42
-0.084281
  0
VERTEX
  8
0
 10
373.490514
 20
230.858387
 42
-0.164070
  0
VERTEX
  8
0
 10
373.340302
 20
230.364346
 42
-0.153356
  0
VERTEX
  8
0
 10
372.910794
 20
230.040502
 42
-0.071062
  0
VERTEX
  8
0
 10
372.218615
 20
229.900320
 42
0.022396
  0
VERTEX
  8
0
 10
371.490350
 20
229.825249
 42
0.551156
  0
VERTEX
  8
0
 10
371.422564
 20
229.671744
 42
0.166724
  0
VERTEX
  8
0
 10
371.684487
 20
229.473141
 42
0.008424
  0
VERTEX
  8
0
 10
372.722551
 20
229.150320
 42
-0.034943
  0
VERTEX
  8
0
 10
373.935898
 20
228.701198
 42
-0.210124
  0
VERTEX
  8
0
 10
374.375141
 20
228.212549
 42
-0.176095
  0
VERTEX
  8
0
 10
374.353350
 20
227.501437
 42
-0.023492
  0
VERTEX
  8
0
 10
373.722551
 20
226.112198
 42
-0.053908
  0
VERTEX
  8
0
 10
372.681007
 20
224.525620
 42
-0.175979
  0
VERTEX
  8
0
 10
371.616420
 20
223.896437
 42
-0.281707
  0
VERTEX
  8
0
 10
370.736529
 20
224.231442
 42
-0.113621
  0
VERTEX
  8
0
 10
370.176676
 20
225.447179
 42
-0.103403
  0
VERTEX
  8
0
 10
370.177176
 20
226.081908
 42
-0.134932
  0
VERTEX
  8
0
 10
370.441663
 20
226.596069
 42
-0.121656
  0
VERTEX
  8
0
 10
370.958035
 20
226.938324
 42
-0.075124
  0
VERTEX
  8
0
 10
371.676676
 20
227.078947
 42
0.019569
  0
VERTEX
  8
0
 10
372.384812
 20
227.137433
 42
0.179949
  0
VERTEX
  8
0
 10
372.654042
 20
227.276784
 42
0.459607
  0
VERTEX
  8
0
 10
372.631663
 20
227.455549
 42
0.050713
  0
VERTEX
  8
0
 10
372.216378
 20
227.673488
 42
0.104554
  0
VERTEX
  8
0
 10
371.614107
 20
227.779102
 42
0.056166
  0
VERTEX
  8
0
 10
370.864631
 20
227.668152
 42
0.052348
  0
VERTEX
  8
0
 10
370.092215
 20
227.374070
 42
0.056143
  0
VERTEX
  8
0
 10
369.417219
 20
226.931298
 42
-0.026671
  0
VERTEX
  8
0
 10
368.583410
 20
226.311275
 42
-0.398309
  0
VERTEX
  8
0
 10
368.256639
 20
226.368051
 42
-0.197201
  0
VERTEX
  8
0
 10
368.141116
 20
226.818099
 42
-0.010311
  0
VERTEX
  8
0
 10
368.381629
 20
228.320261
 42
-0.014439
  0
VERTEX
  8
0
 10
368.611519
 20
229.408115
 42
-0.014157
  0
VERTEX
  8
0
 10
368.905134
 20
230.488122
 42
-0.014183
  0
VERTEX
  8
0
 10
369.216059
 20
231.419735
 42
-0.050815
  0
VERTEX
  8
0
 10
369.489805
 20
231.983504
 42
-0.144979
  0
VERTEX
  8
0
 10
370.364326
 20
232.764979
 42
-0.142338
  0
VERTEX
  8
0
 10
371.530070
 20
232.951362
 42
-0.138001
  0
VERTEX
  8
0
 10
372.641158
 20
232.483559
 42
-0.133692
  0
SEQEND
  0
POLYLINE
  8
0
 66
1
 70
1
  0
VERTEX
  8
0
 10
408.729167
 20
232.395833
 42
-0.126455
  0
VERTEX
  8
0
 10
408.402231
 20
232.202593
 42
-0.060344
  0
VERTEX
  8
0
 10
407.916927
 20
232.123424
 42
-0.054150
  0
VERTEX
  8
0
 10
407.359369
 20
232.160852
 42
-0.051402
  0
VERTEX
  8
0
 10
406.812500
 20
232.316886
 42
-0.054073
  0
VERTEX
  8
0
 10
406.395823
 20
232.538436
 42
-0.470617
  0
VERTEX
  8
0
 10
406.378580
 20
232.720685
 42
-0.168741
  0
VERTEX
  8
0
 10
406.670344
 20
232.862007
 42
-0.018894
  0
VERTEX
  8
0
 10
407.416667
 20
232.921053
 42
-0.028489
  0
VERTEX
  8
0
 10
408.112848
 20
232.910055
 42
-0.077125
  0
VERTEX
  8
0
 10
408.592839
 20
232.799335
 42
-0.208169
  0
VERTEX
  8
0
 10
408.775380
 20
232.614691
 42
-0.296942
  0
SEQEND
  0
POLYLINE
  8
0
 66
1
 70
1
  0
VERTEX
  8
0
 10
381.729167
 20
225.395833
 42
-0.126455
  0
VERTEX
  8
0
 10
381.402231
 20
225.202593
 42
-0.060344
  0
VERTEX
  8
0
 10
380.916927
 20
225.123424
 42
-0.054150
  0
VERTEX
  8
0
 10
380.359369
 20
225.160852
 42
-0.051402
  0
VERTEX
  8
0
 10
379.812500
 20
225.316886
 42
-0.054073
  0
VERTEX
  8
0
 10
379.395823
 20
225.538436
 42
-0.470617
  0
VERTEX
  8
0
 10
379.378580
 20
225.720685
 42
-0.168741
  0
VERTEX
  8
0
 10
379.670344
 20
225.862007
 42
-0.018894
  0
VERTEX
  8
0
 10
380.416667
 20
225.921053
 42
-0.028489
  0
VERTEX
  8
0
 10
381.112848
 20
225.910055
 42
-0.077125
  0
VERTEX
  8
0
 10
381.592839
 20
225.799335
 42
-0.208169
  0
VERTEX
  8
0
 10
381.775380
 20
225.614691
 42
-0.296942
  0
SEQEND
  0
POLYLINE
  8
0
 66
1
 70
1
  0
VERTEX
  8
0
 10
448.086147
 20
211.499302
 42
-0.008981
  0
VERTEX
  8
0
 10
449.020595
 20
208.622977
 42
-0.015656
  0
VERTEX
  8
0
 10
449.676962
 20
206.202920
 42
-0.010109
  0
VERTEX
  8
0
 10
450.094983
 20
204.273147
 42
-0.471972
  0
VERTEX
  8
0
 10
449.870074
 20
204.000000
 42
-0.084974
  0
VERTEX
  8
0
 10
449.378544
 20
204.084142
 42
-0.008246
  0
VERTEX
  8
0
 10
448.241902
 20
204.506244
 42
-0.010275
  0
VERTEX
  8
0
 10
446.896516
 20
205.063388
 42
-0.007952
  0
VERTEX
  8
0
 10
445.453882
 20
205.723383
 42
-0.021886
  0
VERTEX
  8
0
 10
443.239173
 20
206.901086
 42
-0.148367
  0
VERTEX
  8
0
 10
442.408889
 20
207.803649
 42
-0.133721
  0
VERTEX
  8
0
 10
442.175970
 20
209.060363
 42
-0.016563
  0
VERTEX
  8
0
 10
442.500400
 20
211.851232
 42
-0.009795
  0
VERTEX
  8
0
 10
443.549312
 20
218.019471
 42
-0.378028
  0
VERTEX
  8
0
 10
444.570169
 20
218.811638
 42
-0.294307
  0
VERTEX
  8
0
 10
445.753476
 20
217.939095
 42
-0.007723
  0
SEQEND
  0
POLYLINE
  8
0
 66
1
 70
1
  0
VERTEX
  8
0
 10
442.383902
 20
198.558048
 42
0.052623
  0
VERTEX
  8
0
 10
441.972069
 20
197.017742
 42
0.013065
  0
VERTEX
  8
0
 10
441.633204
 20
194.425443
 42
0.010958
  0
VERTEX
  8
0
 10
441.349629
 20
190.972412
 42
0.005154
  0
VERTEX
  8
0
 10
441.127092
 20
186.500000
 42
-0.031658
  0
VERTEX
  8
0
 10
440.808458
 20
183.408452
 42
-0.073922
  0
VERTEX
  8
0
 10
440.092721
 20
181.201253
 42
-0.176276
  0
VERTEX
  8
0
 10
439.149609
 20
180.303652
 42
-0.316855
  0
VERTEX
  8
0
 10
438.149947
 20
180.508359
 42
-0.169899
  0
VERTEX
  8
0
 10
437.833833
 20
181.219022
 42
-0.037761
  0
VERTEX
  8
0
 10
437.825107
 20
182.569346
 42
-0.031600
  0
VERTEX
  8
0
 10
438.061347
 20
184.345877
 42
-0.016971
  0
VERTEX
  8
0
 10
438.564173
 20
186.500000
 42
0.006909
  0
VERTEX
  8
0
 10
439.083297
 20
188.537811
 42
0.007593
  0
VERTEX
  8
0
 10
439.528852
 20
190.526189
 42
0.007147
  0
VERTEX
  8
0
 10
439.859192
 20
192.235011
 42
0.037637
  0
VERTEX
  8
0
 10
439.955867
 20
193.184900
 42
-0.058253
  0
VERTEX
  8
0
 10
440.212495
 20
194.972794
 42
-0.022779
  0
VERTEX
  8
0
 10
440.961278
 20
197.355478
 42
-0.014435
  0
VERTEX
  8
0
 10
441.861866
 20
199.617435
 42
-0.299235
  0
VERTEX
  8
0
 10
442.443864
 20
200.000000
 42
-0.331445
  0
VERTEX
  8
0
 10
442.590406
 20
199.890870
 42
-0.083231
  0
VERTEX
  8
0
 10
442.629764
 20
199.576427
 42
-0.052840
  0
VERTEX
  8
0
 10
442.560797
 20
199.111107
 42
-0.028428
  0
SEQEND
  0
POLYLINE
  8
0
 66
1
 70
1
  0
VERTEX
  8
0
 10
449.761659
 20
199.312920
 42
-0.041951
  0
VERTEX
  8
0
 10
448.934218
 20
199.169017
 42
-0.020826
  0
VERTEX
  8
0
 10
447.869594
 20
199.119272
 42
-0.020511
  0
VERTEX
  8
0
 10
446.754739
 20
199.159391
 42
-0.028254
  0
VERTEX
  8
0
 10
445.761659
 20
199.292739
 42
-0.082665
  0
VERTEX
  8
0
 10
445.319562
 20
199.456590
 42
-0.671610
  0
VERTEX
  8
0
 10
445.339362
 20
199.605813
 42
-0.053901
  0
VERTEX
  8
0
 10
446.071102
 20
199.715166
 42
-0.008901
  0
VERTEX
  8
0
 10
447.500000
 20
199.747817
 42
-0.009782
  0
VERTEX
  8
0
 10
448.938425
 20
199.726931
 42
-0.038992
  0
VERTEX
  8
0
 10
449.814362
 20
199.628390
 42
-0.417468
  0
VERTEX
  8
0
 10
449.916221
 20
199.476221
 42
-0.285845
  0
SEQEND
  0
POLYLINE
  8
0
 66
1
 70
1
  0
VERTEX
  8
0
 10
551.692991
 20
138.269032
 42
-0.087174
  0
VERTEX
  8
0
 10
551.516660
 20
137.883358
 42
-0.597527
  0
VERTEX
  8
0
 10
551.356533
 20
137.900903
 42
-0.080377
  0
VERTEX
  8
0
 10
551.235556
 20
138.431793
 42
-0.012823
  0
VERTEX
  8
0
 10
551.194949
 20
139.500000
 42
-0.014395
  0
VERTEX
  8
0
 10
551.212705
 20
140.580113
 42
-0.052471
  0
VERTEX
  8
0
 10
551.315079
 20
141.257153
 42
-0.333666
  0
VERTEX
  8
0
 10
551.477130
 20
141.386009
 42
-0.313180
  0
VERTEX
  8
0
 10
551.655937
 20
141.269032
 42
-0.062780
  0
VERTEX
  8
0
 10
551.814405
 20
140.671085
 42
-0.030339
  0
VERTEX
  8
0
 10
551.872264
 20
139.880008
 42
-0.029507
  0
VERTEX
  8
0
 10
551.832894
 20
139.036634
 42
-0.037336
  0
SEQEND
  0
POLYLINE
  8
0
 66
1
 70
1
  0
VERTEX
  8
0
 10
408.500000
 20
521.000000
 42
0.012769
  0
VERTEX
  8
0
 10
409.229731
 20
520.233916
 42
0.017642
  0
VERTEX
  8
0
 10
409.925170
 20
519.587500
 42
0.014322
  0
VERTEX
  8
0
 10
410.525997
 20
519.096686
 42
0.165568
  0
VERTEX
  8
0
 10
410.809975
 20
519.000000
 42
0.549874
  0
VERTEX
  8
0
 10
410.889734
 20
519.125730
 42
0.034935
  0
VERTEX
  8
0
 10
410.631420
 20
519.587500
 42
0.025990
  0
VERTEX
  8
0
 10
410.159597
 20
520.232121
 42
0.012939
  0
VERTEX
  8
0
 10
409.500000
 20
521.000000
 42
0.012769
  0
VERTEX
  8
0
 10
408.770269
 20
521.766084
 42
0.017642
  0
VERTEX
  8
0
 10
408.074830
 20
522.412500
 42
0.014322
  0
VERTEX
  8
0
 10
407.474003
 20
522.903314
 42
0.165568
  0
VERTEX
  8
0
 10
407.190025
 20
523.000000
 42
0.549874
  0
VERTEX
  8
0
 10
407.110266
 20
522.874270
 42
0.034935
  0
VERTEX
  8
0
 10
407.368580
 20
522.412500
 42
0.025990
  0
VERTEX
  8
0
 10
407.840403
 20
521.767879
 42
0.012939
  0
SEQEND
  0
POLYLINE
  8
0
 66
1
 70
1
  0
VERTEX
  8
0
 10
463.000000
 20
497.059017
 42
0.089642
  0
VERTEX
  8
0
 10
463.073302
 20
496.653442
 42
0.053229
  0
VERTEX
  8
0
 10
463.293750
 20
496.212900
 42
0.051032
  0
VERTEX
  8
0
 10
463.617485
 20
495.806203
 42
0.060810
  0
VERTEX
  8
0
 10
464.000000
 20
495.500000
 42
0.139169
  0
VERTEX
  8
0
 10
464.379648
 20
495.392057
 42
0.191142
  0
VERTEX
  8
0
 10
464.706250
 20
495.521475
 42
0.138808
  0
VERTEX
  8
0
 10
464.926733
 20
495.889346
 42
0.066118
  0
VERTEX
  8
0
 10
465.000000
 20
496.440983
 42
0.062283
  0
VERTEX
  8
0
 10
464.925455
 20
497.037096
 42
0.080552
  0
VERTEX
  8
0
 10
464.706250
 20
497.542039
 42
0.097988
  0
VERTEX
  8
0
 10
464.381379
 20
497.879982
 42
0.153634
  0
VERTEX
  8
0
 10
464.000000
 20
498.000000
 42
0.092995
  0
VERTEX
  8
0
 10
463.618268
 20
497.928382
 42
0.096318
  0
VERTEX
  8
0
 10
463.293750
 20
497.723586
 42
0.099231
  0
VERTEX
  8
0
 10
463.076556
 20
497.418051
 42
0.105429
  0
SEQEND
  0
POLYLINE
  8
0
 66
1
 70
1
  0
VERTEX
  8
0
 10
417.666667
 20
488.333333
 42
0.178204
  0
VERTEX
  8
0
 10
417.069117
 20
487.039614
 42
0.046570
  0
VERTEX
  8
0
 10
417.099544
 20
484.714437
 42
0.045696
  0
VERTEX
  8
0
 10
417.611137
 20
482.157690
 42
0.061783
  0
VERTEX
  8
0
 10
418.554653
 20
480.000000
 42
0.018150
  0
VERTEX
  8
0
 10
419.116969
 20
479.126431
 42
0.076076
  0
VERTEX
  8
0
 10
419.546109
 20
478.675000
 42
0.412516
  0
VERTEX
  8
0
 10
419.764218
 20
478.702108
 42
0.200655
  0
VERTEX
  8
0
 10
419.846213
 20
479.000000
 42
-0.074791
  0
VERTEX
  8
0
 10
419.862954
 20
479.766089
 42
-0.023526
  0
VERTEX
  8
0
 10
420.111762
 20
480.888224
 42
-0.022914
  0
VERTEX
  8
0
 10
420.511391
 20
482.131253
 42
-0.023511
  0
VERTEX
  8
0
 10
421.020139
 20
483.321613
 42
0.018249
  0
VERTEX
  8
0
 10
421.689344
 20
484.842923
 42
0.090603
  0
VERTEX
  8
0
 10
421.871644
 20
485.755329
 42
0.161398
  0
VERTEX
  8
0
 10
421.669389
 20
486.401047
 42
0.098729
  0
VERTEX
  8
0
 10
421.079992
 20
486.950562
 42
-0.027381
  0
VERTEX
  8
0
 10
420.433881
 20
487.400531
 42
-0.242024
  0
VERTEX
  8
0
 10
420.292589
 20
487.706342
 42
-0.262020
  0
VERTEX
  8
0
 10
420.463397
 20
487.982066
 42
-0.031296
  0
VERTEX
  8
0
 10
421.136847
 20
488.300002
 42
0.059760
  0
VERTEX
  8
0
 10
421.556889
 20
488.528319
 42
0.486979
  0
VERTEX
  8
0
 10
421.565777
 20
488.716560
 42
0.151856
  0
VERTEX
  8
0
 10
421.233564
 20
488.861034
 42
0.017734
  0
VERTEX
  8
0
 10
420.416667
 20
488.921053
 42
0.030121
  0
VERTEX
  8
0
 10
419.570228
 20
488.902134
 42
0.032005
  0
VERTEX
  8
0
 10
418.749479
 20
488.780976
 42
0.033812
  0
VERTEX
  8
0
 10
418.063149
 20
488.584996
 42
0.110358
  0
SEQEND
  0
POLYLINE
  8
0
 66
1
 70
1
  0
VERTEX
  8
0
 10
412.000000
 20
611.333333
 42
0.065168
  0
VERTEX
  8
0
 10
412.066719
 20
610.823604
 42
0.082647
  0
VERTEX
  8
0
 10
412.262322
 20
610.391667
 42
0.098991
  0
VERTEX
  8
0
 10
412.552460
 20
610.102734
 42
0.147551
  0
VERTEX
  8
0
 10
412.893011
 20
610.000000
 42
0.126747
  0
VERTEX
  8
0
 10
413.272422
 20
610.097748
 42
0.063851
  0
VERTEX
  8
0
 10
413.673997
 20
610.391667
 42
0.057165
  0
VERTEX
  8
0
 10
414.035608
 20
610.823401
 42
0.054209
  0
VERTEX
  8
0
 10
414.297670
 20
611.333333
 42
0.098834
  0
VERTEX
  8
0
 10
414.384632
 20
611.841827
 42
0.141557
  0
VERTEX
  8
0
 10
414.246403
 20
612.275000
 42
0.143627
  0
VERTEX
  8
0
 10
413.900588
 20
612.563540
 42
0.102873
  0
VERTEX
  8
0
 10
413.404659
 20
612.666667
 42
0.093840
  0
VERTEX
  8
0
 10
412.868475
 20
612.565141
 42
0.096571
  0
VERTEX
  8
0
 10
412.412619
 20
612.275000
 42
0.099069
  0
VERTEX
  8
0
 10
412.107494
 20
611.842085
 42
0.104492
  0
SEQEND
  0
POLYLINE
  8
0
 66
1
 70
1
  0
VERTEX
  8
0
 10
443.039142
 20
601.990547
 42
0.011108
  0
VERTEX
  8
0
 10
443.095107
 20
598.536467
 42
0.048932
  0
VERTEX
  8
0
 10
443.371350
 20
596.520839
 42
0.087536
  0
VERTEX
  8
0
 10
443.930709
 20
595.228972
 42
0.107741
  0
VERTEX
  8
0
 10
444.868889
 20
594.313953
 42
0.054904
  0
VERTEX
  8
0
 10
445.921836
 20
593.807205
 42
0.406360
  0
VERTEX
  8
0
 10
446.380405
 20
594.019240
 42
0.113978
  0
VERTEX
  8
0
 10
446.505029
 20
594.911582
 42
0.005888
  0
VERTEX
  8
0
 10
446.212896
 20
597.823406
 42
0.017305
  0
VERTEX
  8
0
 10
445.916539
 20
599.833572
 42
0.013252
  0
VERTEX
  8
0
 10
445.458895
 20
602.007501
 42
0.013449
  0
VERTEX
  8
0
 10
444.921224
 20
604.021475
 42
0.030632
  0
VERTEX
  8
0
 10
444.383149
 20
605.500000
 42
0.017899
  0
VERTEX
  8
0
 10
443.580274
 20
607.178908
 42
0.645916
  0
VERTEX
  8
0
 10
443.256627
 20
607.160095
 42
0.088027
  0
VERTEX
  8
0
 10
443.082982
 20
606.257856
 42
0.002130
  0
SEQEND
  0
POLYLINE
  8
0
 66
1
 70
1
  0
VERTEX
  8
0
 10
436.446149
 20
548.912868
 42
0.090569
  0
VERTEX
  8
0
 10
436.257168
 20
548.429833
 42
0.076639
  0
VERTEX
  8
0
 10
436.235589
 20
547.881122
 42
0.076786
  0
VERTEX
  8
0
 10
436.380187
 20
547.352368
 42
0.091551
  0
VERTEX
  8
0
 10
436.672847
 20
546.927153
 42
0.141706
  0
VERTEX
  8
0
 10
437.028511
 20
546.731066
 42
0.282794
  0
VERTEX
  8
0
 10
437.321429
 20
546.831029
 42
0.135981
  0
VERTEX
  8
0
 10
437.515007
 20
547.264011
 42
0.037548
  0
VERTEX
  8
0
 10
437.571429
 20
548.014286
 42
0.008897
  0
VERTEX
  8
0
 10
437.544594
 20
549.522161
 42
0.218731
  0
VERTEX
  8
0
 10
437.361390
 20
549.886183
 42
0.427566
  0
VERTEX
  8
0
 10
437.073167
 20
549.847260
 42
0.018728
  0
SEQEND
  0
POLYLINE
  8
0
 66
1
 70
1
  0
VERTEX
  8
0
 10
407.000000
 20
249.592493
 42
0.110897
  0
VERTEX
  8
0
 10
410.326753
 20
248.468355
 42
0.019246
  0
VERTEX
  8
0
 10
416.990496
 20
248.024670
 42
0.014129
  0
VERTEX
  8
0
 10
423.729157
 20
248.026413
 42
0.252337
  0
VERTEX
  8
0
 10
425.545203
 20
249.073141
 42
0.479712
  0
VERTEX
  8
0
 10
425.380203
 20
249.538113
 42
0.056758
  0
VERTEX
  8
0
 10
424.146897
 20
249.816276
 42
0.028549
  0
VERTEX
  8
0
 10
421.901667
 20
249.931679
 42
0.007804
  0
VERTEX
  8
0
 10
418.354220
 20
249.855977
 42
-0.010068
  0
VERTEX
  8
0
 10
415.127219
 20
249.801726
 42
-0.010308
  0
VERTEX
  8
0
 10
411.925927
 20
249.878377
 42
-0.010110
  0
VERTEX
  8
0
 10
409.152820
 20
250.058254
 42
-0.041917
  0
VERTEX
  8
0
 10
407.500000
 20
250.339894
 42
0.000000
  0
VERTEX
  8
0
 10
404.500000
 20
251.114115
 42
0.000000
  0
SEQEND
  0
ENDSEC
  0
EOF
