999
DXF data, created by potrace 1.16, written by Peter Selinger 2001-2019
  0
SECTION
  2
HEADER
  9
$ACADVER
  1
AC1006
  9
$EXTMIN
 10
0.000000
 20
0.000000
 30
0.000000
  9
$EXTMAX
 10
200.000000
 20
200.000000
 30
0.000000
  0
ENDSEC
  0
SECTION
  2
ENTITIES
  0
POLYLINE
  8
0
 66
1
 70
1
  0
VERTEX
  8
0
 10
20.000000
 20
139.500000
 42
0.000000
  0
VERTEX
  8
0
 10
20.000000
 20
99.000000
 42
0.000000
  0
VERTEX
  8
0
 10
60.500000
 20
99.000000
 42
0.000000
  0
VERTEX
  8
0
 10
101.000000
 20
99.000000
 42
0.000000
  0
VERTEX
  8
0
 10
101.000000
 20
139.500000
 42
0.000000
  0
VERTEX
  8
0
 10
101.000000
 20
180.000000
 42
0.000000
  0
VERTEX
  8
0
 10
60.500000
 20
180.000000
 42
0.000000
  0
VERTEX
  8
0
 10
20.000000
 20
180.000000
 42
0.000000
  0
SEQEND
  0
ENDSEC
  0
EOF
