999
DXF data, created by potrace 1.16, written by Peter Selinger 2001-2019
  0
SECTION
  2
HEADER
  9
$ACADVER
  1
AC1006
  9
$EXTMIN
 10
0.000000
 20
0.000000
 30
0.000000
  9
$EXTMAX
 10
200.000000
 20
200.000000
 30
0.000000
  0
ENDSEC
  0
SECTION
  2
ENTITIES
  0
POLYLINE
  8
0
 66
1
 70
1
  0
VERTEX
  8
0
 10
20.000000
 20
139.500000
 42
0.000000
  0
VERTEX
  8
0
 10
20.000000
 20
99.000000
 42
0.000000
  0
VERTEX
  8
0
 10
60.500000
 20
99.000000
 42
0.000000
  0
VERTEX
  8
0
 10
101.000000
 20
99.000000
 42
0.000000
  0
VERTEX
  8
0
 10
101.000000
 20
139.500000
 42
0.000000
  0
VERTEX
  8
0
 10
101.000000
 20
180.000000
 42
0.000000
  0
VERTEX
  8
0
 10
60.500000
 20
180.000000
 42
0.000000
  0
VERTEX
  8
0
 10
20.000000
 20
180.000000
 42
0.000000
  0
SEQEND
  0
POLYLINE
  8
0
 66
1
 70
1
  0
VERTEX
  8
0
 10
137.500000
 20
179.110599
 42
0.057323
  0
VERTEX
  8
0
 10
130.190962
 20
176.201711
 42
0.049329
  0
VERTEX
  8
0
 10
123.323730
 20
171.585133
 42
0.049390
  0
VERTEX
  8
0
 10
117.502169
 20
165.719793
 42
0.057838
  0
VERTEX
  8
0
 10
113.290791
 20
159.111786
 42
0.022772
  0
VERTEX
  8
0
 10
111.834811
 20
155.727885
 42
0.044747
  0
VERTEX
  8
0
 10
111.050017
 20
152.907069
 42
0.036147
  0
VERTEX
  8
0
 10
110.688528
 20
149.623699
 42
0.010343
  0
VERTEX
  8
0
 10
110.602919
 20
144.500000
 42
0.011026
  0
VERTEX
  8
0
 10
110.725457
 20
139.793634
 42
0.027506
  0
VERTEX
  8
0
 10
111.079399
 20
136.372170
 42
0.034803
  0
VERTEX
  8
0
 10
111.738381
 20
133.527739
 42
0.031707
  0
VERTEX
  8
0
 10
112.801297
 20
130.709242
 42
0.055201
  0
VERTEX
  8
0
 10
115.826668
 20
125.596427
 42
0.032941
  0
VERTEX
  8
0
 10
120.441437
 20
120.232456
 42
0.032865
  0
VERTEX
  8
0
 10
125.747702
 20
115.495495
 42
0.052851
  0
VERTEX
  8
0
 10
130.888214
 20
112.290791
 42
0.022772
  0
VERTEX
  8
0
 10
134.272115
 20
110.834811
 42
0.044747
  0
VERTEX
  8
0
 10
137.092931
 20
110.050017
 42
0.036147
  0
VERTEX
  8
0
 10
140.376301
 20
109.688528
 42
0.010343
  0
VERTEX
  8
0
 10
145.500000
 20
109.602919
 42
0.011026
  0
VERTEX
  8
0
 10
150.206366
 20
109.725457
 42
0.027506
  0
VERTEX
  8
0
 10
153.627830
 20
110.079399
 42
0.034803
  0
VERTEX
  8
0
 10
156.472261
 20
110.738381
 42
0.031707
  0
VERTEX
  8
0
 10
159.290758
 20
111.801297
 42
0.055201
  0
VERTEX
  8
0
 10
164.403573
 20
114.826668
 42
0.032941
  0
VERTEX
  8
0
 10
169.767544
 20
119.441437
 42
0.032865
  0
VERTEX
  8
0
 10
174.504505
 20
124.747702
 42
0.052851
  0
VERTEX
  8
0
 10
177.709209
 20
129.888214
 42
0.022948
  0
VERTEX
  8
0
 10
179.159637
 20
133.262491
 42
0.043977
  0
VERTEX
  8
0
 10
179.951347
 20
136.099029
 42
0.035623
  0
VERTEX
  8
0
 10
180.326128
 20
139.399425
 42
0.010464
  0
VERTEX
  8
0
 10
180.432888
 20
144.500000
 42
0.010464
  0
VERTEX
  8
0
 10
180.326128
 20
149.600575
 42
0.035623
  0
VERTEX
  8
0
 10
179.951347
 20
152.900971
 42
0.043977
  0
VERTEX
  8
0
 10
179.159637
 20
155.737509
 42
0.022948
  0
VERTEX
  8
0
 10
177.709209
 20
159.111786
 42
0.052960
  0
VERTEX
  8
0
 10
174.479960
 20
164.289159
 42
0.033421
  0
VERTEX
  8
0
 10
169.724110
 20
169.600040
 42
0.033581
  0
VERTEX
  8
0
 10
164.361427
 20
174.177112
 42
0.058092
  0
VERTEX
  8
0
 10
159.290758
 20
177.102882
 42
0.054129
  0
VERTEX
  8
0
 10
154.607492
 20
178.547118
 42
0.024780
  0
VERTEX
  8
0
 10
148.268571
 20
179.449635
 42
0.024560
  0
VERTEX
  8
0
 10
141.970477
 20
179.719151
 42
0.064566
  0
SEQEND
  0
POLYLINE
  8
0
 66
1
 70
1
  0
VERTEX
  8
0
 10
51.127555
 20
78.322815
 42
0.002476
  0
VERTEX
  8
0
 10
66.589979
 20
59.616856
 42
0.002096
  0
VERTEX
  8
0
 10
83.115653
 20
39.992848
 42
0.000152
  0
VERTEX
  8
0
 10
99.868085
 20
20.280172
 42
0.275378
  0
VERTEX
  8
0
 10
100.650047
 20
20.013500
 42
0.166659
  0
VERTEX
  8
0
 10
101.424961
 20
20.477014
 42
0.000091
  0
VERTEX
  8
0
 10
119.324154
 20
41.672749
 42
0.001392
  0
VERTEX
  8
0
 10
136.097832
 20
61.655637
 42
0.002431
  0
VERTEX
  8
0
 10
149.872445
 20
78.322815
 42
0.598238
  0
VERTEX
  8
0
 10
149.449610
 20
79.344365
 42
0.016539
  0
VERTEX
  8
0
 10
143.429666
 20
79.748499
 42
0.007874
  0
VERTEX
  8
0
 10
131.729297
 20
79.961574
 42
0.000615
  0
VERTEX
  8
0
 10
100.500000
 20
80.000000
 42
0.000615
  0
VERTEX
  8
0
 10
69.270703
 20
79.961574
 42
0.007874
  0
VERTEX
  8
0
 10
57.570334
 20
79.748499
 42
0.016539
  0
VERTEX
  8
0
 10
51.550390
 20
79.344365
 42
0.598238
  0
SEQEND
  0
ENDSEC
  0
EOF
